<svg width="20" height="17" viewBox="0 0 20 17" fill="none" xmlns="http://www.w3.org/2000/svg">
<path d="M0 14.4975C2.15284 14.615 4.03541 14.127 5.87139 12.8348C4.01678 12.5275 2.73067 11.7052 2.03169 10.0063C2.57223 9.93405 3.04754 10.0696 3.60672 9.85272C1.78006 9.07558 0.596461 7.90986 0.549862 5.89471C1.12768 5.9399 1.56571 6.31039 2.25537 6.25617C0.577826 4.66574 0.0652376 2.93073 1.11836 0.825211C2.87046 2.7771 4.92079 4.10548 7.42778 4.729C7.56757 4.76514 7.69804 4.80129 7.83783 4.8284C8.48089 4.97299 9.24511 5.28023 9.63653 5.23505C10.3076 5.15372 9.63654 4.40368 9.80429 3.42774C10.3355 0.391457 13.7838 -0.991135 16.3374 0.789065C17.0829 1.31318 17.6701 1.30415 18.4063 0.987869C18.7884 0.825211 19.1799 0.662553 19.6365 0.472786C19.534 1.34029 18.8444 1.81923 18.2945 2.46083C18.9189 2.59637 19.4222 2.42468 20 2.24395C19.8043 2.86747 19.3197 3.2199 18.8816 3.56328C18.425 3.91571 18.2479 4.28621 18.2293 4.86455C17.9497 13.621 7.68873 20.3893 0.671023 15.0036C-0.00931286 14.4794 0.652376 15.0035 0 14.4975Z" fill="#1A0161"/>
</svg>
