<svg width="296" height="213" viewBox="0 0 296 213" fill="none" xmlns="http://www.w3.org/2000/svg">
<g clip-path="url(#clip0_6_701)">
<path d="M49.6706 204.46C49.4335 204.471 49.1987 204.409 48.9981 204.282C48.7975 204.155 48.6408 203.969 48.5492 203.751C48.4576 203.532 48.4356 203.29 48.486 203.058C48.5365 202.826 48.6571 202.616 48.8314 202.455L48.9108 202.14C48.9003 202.114 48.8898 202.089 48.8793 202.064C48.6403 201.5 48.24 201.019 47.7285 200.682C47.217 200.345 46.6171 200.166 46.0043 200.168C45.3914 200.171 44.7929 200.354 44.284 200.695C43.775 201.036 43.3782 201.52 43.1435 202.085C42.2054 204.343 41.011 206.604 40.7169 208.991C40.5874 210.046 40.642 211.116 40.8784 212.152C38.675 207.35 37.5309 202.13 37.5235 196.847C37.523 195.522 37.5967 194.197 37.7443 192.879C37.8662 191.799 38.0354 190.727 38.2518 189.662C39.4328 183.886 41.9684 178.471 45.6503 173.864C47.4324 172.892 48.8736 171.398 49.7797 169.583C50.1079 168.931 50.3399 168.234 50.4684 167.515C50.2674 167.541 49.7104 164.482 49.8621 164.295C49.5819 163.87 49.0805 163.659 48.7745 163.244C47.2528 161.183 45.1563 161.543 44.0619 164.344C41.7238 165.523 41.7012 167.478 43.1358 169.359C44.0485 170.555 44.1739 172.174 44.9748 173.455C44.8923 173.561 44.8067 173.663 44.7243 173.768C43.2182 175.703 41.9055 177.781 40.8051 179.972C41.0727 177.517 40.7533 175.035 39.8732 172.728C38.9812 170.578 37.3093 168.767 35.837 166.908C34.0685 164.676 30.4421 165.65 30.1305 168.48C30.1275 168.507 30.1246 168.535 30.1217 168.562C30.3404 168.685 30.5544 168.816 30.7639 168.955C31.027 169.13 31.2309 169.381 31.3489 169.675C31.4668 169.968 31.4933 170.29 31.4248 170.599C31.3564 170.908 31.1962 171.189 30.9653 171.405C30.7343 171.621 30.4434 171.762 30.1307 171.811L30.0986 171.816C30.1765 172.603 30.3142 173.383 30.5106 174.15C28.6218 181.448 32.6995 184.107 38.522 184.226C38.6506 184.292 38.7758 184.358 38.9044 184.42C37.7988 187.551 37.1053 190.812 36.8413 194.121C36.6919 196.073 36.7007 198.034 36.8677 199.985L36.8578 199.916C36.4359 197.747 35.2777 195.789 33.5787 194.374C31.0553 192.303 27.4901 191.541 24.7678 189.876C24.4785 189.69 24.142 189.591 23.7982 189.59C23.4544 189.589 23.1175 189.687 22.8273 189.871C22.5371 190.055 22.3056 190.318 22.1602 190.63C22.0149 190.941 21.9616 191.287 22.0068 191.628C22.0104 191.652 22.0141 191.676 22.0179 191.701C22.4237 191.866 22.8189 192.056 23.201 192.27C23.4197 192.394 23.6338 192.524 23.8432 192.663C24.1063 192.838 24.3102 193.089 24.4281 193.383C24.5461 193.676 24.5725 193.998 24.5041 194.307C24.4356 194.616 24.2755 194.897 24.0445 195.113C23.8136 195.329 23.5227 195.47 23.21 195.519L23.1779 195.524C23.1548 195.527 23.1351 195.53 23.112 195.533C23.8054 197.188 24.7786 198.71 25.989 200.035C27.17 206.406 32.2425 207.01 37.6685 205.155H37.6718C38.2671 207.74 39.1297 210.256 40.2456 212.663H49.4402C49.4732 212.56 49.5028 212.455 49.5325 212.353C48.6814 212.406 47.827 212.356 46.9883 212.202C47.6705 211.365 48.3527 210.522 49.0349 209.686C49.0501 209.67 49.0644 209.654 49.0777 209.636C49.4237 209.208 49.7731 208.784 50.1191 208.356L50.1193 208.355C50.1377 207.043 49.9867 205.734 49.6706 204.46Z" fill="#F2F2F2"/>
<path d="M60.246 212.457H75.0832C77.6208 203.92 75.0967 183.744 78.4415 175.497C84.8587 159.685 93.0567 143.002 108.358 135.281C114.891 131.985 122.015 130.697 129.289 130.767C139.339 130.862 149.671 133.558 159.13 137.13C163 138.588 166.834 140.191 170.653 141.83C185.041 148.007 199.273 154.735 214.746 156.554C234.325 158.854 257.345 150.101 262.693 131.248C266.774 116.814 259.423 101.829 251.715 88.9384C244.006 76.0475 235.389 62.2548 236.797 47.3299C236.802 47.2798 236.807 47.2246 236.817 47.1746C237.347 41.8138 240.55 37.9612 245.025 35.4912H225.542C225.284 49.4141 233.346 61.7037 240.601 73.838C248.309 86.7239 255.66 101.714 251.579 116.148C246.231 134.996 201.95 112.902 182.371 110.598C176.841 109.951 185.625 112.251 180.353 110.598C172.084 108.007 171.167 131.764 163.121 128.277C158.111 126.103 153.096 123.944 148.016 122.025C145.912 121.228 143.763 120.482 141.589 119.79C141.587 119.79 141.585 119.79 141.583 119.789C141.582 119.788 141.58 119.787 141.579 119.785C126.979 115.166 111.012 113.367 97.5215 120.046C97.4307 120.091 97.3348 120.136 97.244 120.181C81.9427 127.897 73.7447 144.58 67.3275 160.392C62.0253 173.463 62.8593 198.669 60.246 212.457Z" fill="#F2F2F2"/>
<path d="M148.197 212.019C75.786 213.552 74.1982 181.86 74.1982 144.164C74.1982 106.469 107.218 76.9802 148.136 76.9802C189.055 76.9802 221.552 106.458 221.552 144.152C221.552 181.847 189.115 212.019 148.197 212.019Z" fill="white"/>
<path d="M147.785 212.431C75.3735 213.964 73.7857 182.272 73.7857 144.576C73.7857 106.881 107.075 76.2144 147.993 76.2144C188.912 76.2144 222.201 106.882 222.201 144.576C222.201 182.271 188.703 212.431 147.785 212.431ZM147.994 78.0954C108.201 78.0954 76.4978 107.924 75.8277 144.576C75.2044 178.668 114.517 221.209 147.994 211.058C165.946 192.844 216.702 173.227 220.159 144.576C224.557 108.143 187.786 78.0954 147.994 78.0954Z" fill="#3F3D56"/>
<path d="M198.788 206.233H193.694L191.27 186.599L198.789 186.599L198.788 206.233Z" fill="#A0616A"/>
<path d="M198.968 211.543L183.301 211.543V211.345C183.301 209.729 183.944 208.179 185.087 207.037C186.231 205.894 187.782 205.252 189.399 205.252L192.261 203.083L197.6 205.253L198.968 205.253L198.968 211.543Z" fill="#2F2E41"/>
<path d="M191.047 160.721C185.229 155.077 178.544 150.4 171.244 146.871L167.521 151.07L169.893 146.232C160.123 141.774 149.517 139.44 138.777 139.383C128.037 139.326 117.407 141.549 107.591 145.903L109.525 150.101L106.555 146.37C98.8869 149.934 91.8697 154.754 85.7939 160.631C85.1693 161.213 84.7834 162.006 84.7113 162.856C84.6801 163.318 84.7485 163.781 84.9119 164.214C85.0753 164.647 85.3299 165.04 85.6585 165.366C86.5946 165.809 87.9286 166.825 89.9106 169.614C90.5185 170.213 91.3364 170.551 92.1901 170.557C93.0438 170.562 93.8658 170.234 94.4809 169.642C106.252 158.258 121.992 151.893 138.374 151.893C154.757 151.893 170.497 158.258 182.268 169.642C182.883 170.234 183.705 170.562 184.558 170.557C185.412 170.551 186.23 170.213 186.838 169.614C188.832 167.822 189.298 165.288 191.012 165.444C191.615 164.861 191.981 164.075 192.04 163.238C192.065 162.772 191.99 162.306 191.818 161.872C191.647 161.437 191.384 161.045 191.047 160.721Z" fill="#1A0161"/>
<path d="M152.205 166.831L147.111 166.831L144.687 147.197L152.206 147.197L152.205 166.831Z" fill="#A0616A"/>
<path d="M152.385 172.141L136.718 172.141V171.943C136.718 170.327 137.361 168.777 138.504 167.635C139.648 166.492 141.199 165.85 142.816 165.85L145.678 163.681L151.017 165.85L152.385 165.85L152.385 172.141Z" fill="#2F2E41"/>
<path d="M204.613 94.5427L168.458 98.3169L159.574 107.087L145.443 111.698C143.664 112.278 142.105 113.387 140.974 114.877C139.843 116.367 139.194 118.167 139.115 120.035C138.747 128.646 138.02 142.943 137.253 142.793C136.156 142.579 138.349 147.937 139.885 147.626C141.422 147.314 143.019 150.808 141.957 151.429C140.895 152.05 142.664 157.363 142.664 157.363L153.731 155.582C155.116 145.142 160.176 134.137 154.213 126.456C164.311 123.182 173.208 120.444 179.749 118.756L183.287 117.289L190.633 195.272L201.021 195.442C203.887 180.709 205.327 167.449 203.087 157.99C203.087 157.99 203.408 129.573 204.637 129.884C205.865 130.195 204.824 126.493 204.824 126.493C204.824 126.493 203.748 123.34 205.07 122.032C206.392 120.724 205.566 113.031 205.566 113.031C207.751 105.751 207.093 99.7398 204.613 94.5427Z" fill="#2F2E41"/>
<path d="M208.888 78.6303C209.246 77.0258 209.604 75.4211 209.962 73.8163C210.968 69.3227 211.972 64.831 212.974 60.3414C214.29 54.4589 215.612 48.3716 214.48 42.4521C214.31 41.5618 214.073 40.6858 213.769 39.8318C212.074 34.986 208.329 30.7399 203.364 29.8456L202.553 26.8253L191.473 25.4626L189.376 28.3522C184.863 27.9916 182.183 32.482 179.07 36.1825L177.832 37.4188C176.931 38.5456 176.746 42.7789 176.183 44.0124C173.679 49.4972 177.129 44.1669 177.008 50.1939C176.882 56.4393 175.653 62.4997 175.527 68.7448C175.513 69.4149 174.07 69.9258 173.822 71.1006C173.688 71.7347 174.806 72.9109 174.636 73.6199C174.492 74.2249 175.214 76.6567 175.059 77.2821C174.34 80.1833 172.711 81.3257 172.64 82.7562C172.607 83.3067 172.525 83.8532 172.394 84.3891C172.305 84.7693 171.056 84.3137 170.935 84.6999C170.73 85.3487 171.629 86.8428 171.383 87.4923C170.906 88.7492 171.227 90.9691 170.935 92.1177C169.709 96.9397 170.179 95.0262 167.521 99.2337C174.324 101.289 177.263 108.17 184.26 109.409C184.576 108.39 184.89 107.369 185.204 106.345C186.131 106.405 187.065 106.46 187.998 106.511C188.05 107.4 188.103 108.29 188.156 109.174C195.249 109.631 202.364 109.669 209.462 109.289C209.224 108.577 209.034 107.849 208.893 107.111C208.503 105.059 209.341 102.834 209.43 100.802C209.493 99.2977 208.777 98.0191 208.798 96.3985C208.803 96.0987 210.489 95.8464 210.483 95.5409C210.457 92.847 208.925 89.2427 209.43 86.5962C209.957 83.8762 208.287 81.3351 208.888 78.6311L208.888 78.6303Z" fill="#3F3D56"/>
<path d="M157.062 13.5603C156.122 13.5614 155.222 13.9347 154.557 14.5984C153.893 15.2621 153.519 16.1619 153.518 17.1005V38.4323C153.519 39.3709 153.893 40.2707 154.557 40.9344C155.222 41.5981 156.122 41.9714 157.062 41.9725H163.667C164.606 41.9714 165.507 41.5981 166.171 40.9344C166.835 40.2707 167.209 39.3709 167.21 38.4323C168.263 27.7137 167.876 21.929 167.21 17.1005C167.209 16.1619 166.835 15.2621 166.171 14.5984C165.507 13.9347 164.606 13.5614 163.667 13.5603L157.062 13.5603Z" fill="#1A0161"/>
<path d="M156.237 13.5603C155.297 13.5614 154.397 13.9347 153.732 14.5984C153.068 15.2621 152.695 16.1619 152.693 17.1004C152.314 25.4857 152.05 33.4826 152.693 38.4322C152.695 39.3708 153.068 40.2707 153.732 40.9344C154.397 41.5981 155.297 41.9715 156.237 41.9725H162.842C163.781 41.9714 164.682 41.5981 165.346 40.9344C166.01 40.2707 166.384 39.3709 166.385 38.4323V17.1005C166.384 16.162 166.01 15.2621 165.346 14.5984C164.682 13.9347 163.781 13.5614 162.842 13.5603L156.237 13.5603Z" fill="#3F3D56"/>
<path d="M173.24 44.6064C173.24 44.6064 179.488 44.3532 176.308 47.0483C174.239 48.8021 169.579 61.0116 164.739 62.4887C164.169 62.6623 163.569 62.7157 162.977 62.6456C162.385 62.5755 161.815 62.3833 161.301 62.0813C160.788 61.7793 160.343 61.374 159.994 60.8911C159.645 60.4082 159.401 59.8583 159.276 59.2761L154.888 38.8404L160.62 37.9692L164.114 54.1433L173.24 44.6064Z" fill="#FFBF9F"/>
<path d="M158.071 40.333C160.31 40.333 162.125 38.5195 162.125 36.2823C162.125 34.0452 160.31 32.2317 158.071 32.2317C155.832 32.2317 154.017 34.0452 154.017 36.2823C154.017 38.5195 155.832 40.333 158.071 40.333Z" fill="#FFBF9F"/>
<path d="M181.714 33.4395C185.428 36.2261 186.522 45.3641 184.188 49.3762C179.727 57.0456 170.932 62.9504 170.557 62.1304C170.044 61.0074 169.149 62.5153 169.179 63.009C169.209 63.5026 167.515 63.3554 167.713 63.8778C167.91 64.4002 166.573 64.5137 165.992 64.8166C165.992 64.8166 160.678 64.9064 159.001 62.4832C157.324 60.06 157.099 56.7113 157.099 56.7113L155.018 54.2643L166.054 47.8186L165.144 52.1693L170.65 45.7643L171.815 43.1947L173.673 42.2463L174.289 40.31L176.003 39.5357L182.782 31.6494L181.714 33.4395Z" fill="#3F3D56"/>
<path d="M212.208 108.507C212.671 108.202 213.062 107.799 213.352 107.326C213.642 106.854 213.826 106.324 213.889 105.773C213.952 105.222 213.893 104.664 213.717 104.138C213.541 103.612 213.252 103.131 212.87 102.729L213.65 68.0781L206.797 69.1433L207.28 102.753C206.647 103.439 206.288 104.334 206.27 105.267C206.253 106.2 206.579 107.108 207.186 107.817C207.793 108.526 208.64 108.988 209.566 109.115C210.491 109.243 211.431 109.026 212.208 108.507Z" fill="#FFBF9F"/>
<path d="M212.506 38.5415C212.506 38.5415 212.052 38.8848 214.383 42.4336C214.845 43.1374 215.158 45.9752 215.378 49.6784C215.449 50.8848 216.137 51.7324 216.19 53.0787C216.235 54.2212 215.649 55.849 215.684 57.0339C215.702 57.6659 216.174 58.2157 216.19 58.848C216.197 59.1116 215.749 59.4591 215.755 59.7217C215.762 60.005 215.769 60.2873 215.775 60.5688C215.935 67.6071 215.969 73.9639 216.129 73.8565C216.468 73.6276 215.625 74.8109 216.047 75.0085C216.468 75.206 215.687 76.1863 215.888 76.6944C216.133 77.3134 215.829 77.9963 215.636 78.6177C215.08 80.412 214.96 81.9527 214.476 82.805C215.05 83.1341 215.499 83.6447 215.75 84.2564C216.002 84.868 216.043 85.5459 215.866 86.1833L206.208 84.4386C205.031 82.5538 205.201 80.5757 206.003 80.231L205.764 74.0977L203.014 42.3666L211.075 38.7704L212.506 38.5415Z" fill="#3F3D56"/>
<path d="M152.563 19.0312C152.424 19.0312 152.311 19.0973 152.311 19.1784V20.3557C152.311 20.4369 152.424 20.5029 152.563 20.5029C152.702 20.5029 152.814 20.4369 152.814 20.3557V19.1784C152.814 19.0973 152.702 19.0312 152.563 19.0312Z" fill="#3F3D56"/>
<path d="M152.563 22.1511C152.424 22.1511 152.311 22.2171 152.311 22.2983V24.5794C152.311 24.6605 152.424 24.7265 152.563 24.7265C152.702 24.7265 152.814 24.6605 152.814 24.5794V22.2983C152.814 22.2171 152.702 22.1511 152.563 22.1511Z" fill="#3F3D56"/>
<path d="M166.586 22.5632C166.512 22.5717 166.444 22.6087 166.397 22.6664C166.35 22.724 166.328 22.7978 166.335 22.8719V27.6556C166.327 27.6929 166.328 27.7314 166.337 27.7685C166.346 27.8055 166.363 27.84 166.387 27.8696C166.411 27.8991 166.441 27.923 166.476 27.9393C166.51 27.9557 166.548 27.9642 166.586 27.9642C166.624 27.9642 166.662 27.9557 166.696 27.9393C166.731 27.923 166.761 27.8991 166.785 27.8696C166.809 27.84 166.826 27.8055 166.835 27.7685C166.845 27.7314 166.845 27.6929 166.837 27.6556V22.8719C166.844 22.7978 166.822 22.724 166.775 22.6664C166.728 22.6087 166.66 22.5717 166.586 22.5632Z" fill="#3F3D56"/>
<path d="M152.15 25.801C152.012 25.801 151.899 25.867 151.899 25.9482V28.2293C151.899 28.3104 152.012 28.3764 152.15 28.3764C152.289 28.3764 152.402 28.3104 152.402 28.2293V25.9482C152.402 25.867 152.289 25.801 152.15 25.801Z" fill="#3F3D56"/>
<path d="M196.237 24.3927C201.955 24.3927 206.591 19.7609 206.591 14.0473C206.591 8.33369 201.955 3.7019 196.237 3.7019C190.519 3.7019 185.883 8.33369 185.883 14.0473C185.883 19.7609 190.519 24.3927 196.237 24.3927Z" fill="#FFBF9F"/>
<path d="M207.798 18.8008C206.99 20.4171 206.22 21.428 204.823 22.3315C204.752 22.1256 204.694 21.9151 204.651 21.7016C204.502 22.0338 204.357 22.3653 204.205 22.6982C203.321 23.1915 204.275 22.4305 202.828 22.982L201.61 20.8945C201.277 19.9036 201.749 18.8243 202.35 17.9668C202.951 17.1127 203.7 16.3297 204.026 15.3368C204.352 14.3439 204.063 13.0285 203.085 12.6589C202.123 12.2898 201.059 12.99 200.036 12.8684C198.855 12.7292 198.051 11.4945 197.987 10.3067C197.923 9.11889 198.408 7.97838 198.883 6.8914C197.453 7.91552 193.022 9.75033 190.61 9.83799C190.545 9.08629 190.197 8.38714 189.637 7.88131C189.735 8.56567 189.568 9.26167 189.171 9.82741C186.809 9.70642 186.365 13.1334 185.146 11.8925C185.527 11.7011 184.124 7.44218 184.505 7.25083C184.212 6.44901 183.919 5.64952 183.627 4.85236C184.17 4.989 184.717 5.12838 185.263 5.26426C185.297 4.97278 185.386 4.69032 185.524 4.43168C185.914 4.20994 186.328 4.03521 186.758 3.91117C186.897 3.87415 187.039 3.83638 187.183 3.80561C187.396 3.75827 187.611 3.72321 187.828 3.70059C187.514 3.51869 187.197 3.34103 186.882 3.15566C186.845 3.13439 186.811 3.11236 186.773 3.09109C187.215 2.78749 187.677 2.51364 188.156 2.27137C190.173 1.21676 192.267 0.14217 194.541 0.0107188C196.019 -0.0832803 197.484 0.337989 198.685 1.20265C199.722 1.94618 200.976 2.32328 202.251 2.27429C202.871 2.26958 203.484 2.40598 204.043 2.67317C203.787 2.93102 203.507 3.16396 203.206 3.36885C203.863 3.3859 204.515 3.4037 205.172 3.42426C205.908 4.09328 206.529 4.87877 207.009 5.74922C209.31 9.67809 209.836 14.7306 207.798 18.8008Z" fill="#2F2E41"/>
<path d="M174.548 179.975C174.469 179.458 174.268 178.968 173.962 178.545C173.656 178.121 173.252 177.777 172.786 177.541C168.409 175.303 163.821 173.501 159.09 172.164L154.663 177.995L157.935 171.842C145.823 168.595 133.093 168.415 120.895 171.317L122.597 176.007L119.816 171.585C114.323 172.965 109.004 174.963 103.962 177.541C103.498 177.779 103.097 178.122 102.791 178.544C102.485 178.966 102.283 179.455 102.201 179.969C102.12 180.484 102.162 181.011 102.323 181.507C102.484 182.002 102.76 182.453 103.129 182.822C105.043 182.939 106.307 184.716 107.568 187.258C108.052 187.734 108.671 188.05 109.341 188.161C110.011 188.273 110.699 188.175 111.311 187.88C119.766 183.862 129.011 181.777 138.374 181.777C147.737 181.777 156.982 183.862 165.438 187.88C166.049 188.175 166.738 188.273 167.407 188.162C168.077 188.05 168.696 187.734 169.18 187.258C169.938 185.203 171.501 183.988 173.62 182.822C173.99 182.455 174.268 182.006 174.429 181.51C174.59 181.015 174.631 180.489 174.548 179.975Z" fill="#1A0161"/>
<path d="M150.086 200.058C149.117 199.906 148.141 199.773 147.16 199.66L143.314 205.775L146.18 199.555C141.523 199.08 136.832 199.03 132.166 199.408L135.1 205.775L131.151 199.496C129.643 199.639 128.147 199.826 126.662 200.058C126.153 200.133 125.676 200.35 125.286 200.684C124.895 201.018 124.607 201.455 124.454 201.945C124.291 202.44 124.268 202.97 124.389 203.476C124.51 203.983 124.77 204.445 125.139 204.813C126.727 206.367 128.478 208.526 131.356 211.025C131.637 211.309 131.976 211.529 132.35 211.67C132.725 211.81 133.125 211.868 133.523 211.839C135.118 211.721 136.75 211.661 138.374 211.661C139.998 211.661 141.63 211.721 143.225 211.839C143.624 211.868 144.024 211.81 144.398 211.669C144.772 211.528 145.111 211.309 145.392 211.025C148.364 208.49 149.866 206.166 151.61 204.813C151.979 204.445 152.238 203.983 152.359 203.476C152.48 202.97 152.458 202.44 152.295 201.945C152.142 201.455 151.853 201.018 151.463 200.684C151.072 200.35 150.595 200.133 150.086 200.058Z" fill="#1A0161"/>
</g>
<defs>
<clipPath id="clip0_6_701">
<rect width="296" height="213" fill="white"/>
</clipPath>
</defs>
</svg>
