<svg width="24" height="18" viewBox="0 0 24 18" fill="none" xmlns="http://www.w3.org/2000/svg">
<path d="M23.7183 7.49448C23.1531 7.75538 22.4863 7.64318 21.8742 7.51534C20.2957 7.18401 18.699 6.85007 17.2377 6.16652C16.7811 5.99152 16.3855 5.68687 16.0994 5.28992C15.9216 4.95045 15.8136 4.57875 15.7816 4.19677L15.5211 2.37051C15.4274 1.73653 15.5888 1.14952 15.6045 0.507716C15.6144 0.436585 15.6101 0.364188 15.5918 0.294752C15.5734 0.225316 15.5414 0.160238 15.4977 0.103333C15.4085 0.0283084 15.2933 -0.00828165 15.1773 0.00157991C14.4454 0.0146246 14.0025 0.784264 13.4894 1.30605C13.1928 1.60723 12.8384 1.84508 12.4475 2.00525C11.9786 2.19831 11.4056 2.33398 11.2102 2.80359C11.1321 2.99926 11.1425 3.22103 11.0592 3.4167C10.731 4.19938 9.33219 3.93849 8.97534 4.72117C8.87375 4.94032 8.88157 5.21426 8.71486 5.38645C8.54816 5.55864 8.23558 5.55603 7.97771 5.59777C6.95924 5.76475 6.46694 6.94137 5.59695 7.49708C4.86501 7.96669 3.92208 7.95626 3.13283 8.32151C2.69523 8.52501 2.30712 8.84331 1.84347 8.97636C1.37983 9.10942 0.856263 9.03897 0.358751 9.05202C0.305702 9.04701 0.252189 9.05299 0.201549 9.0696C0.15091 9.0862 0.104229 9.11308 0.0644109 9.14855C0.033495 9.19577 0.0130769 9.2491 0.00453803 9.30492C-0.00400085 9.36073 -0.000461573 9.41773 0.0149196 9.47205C0.256169 11.0147 0.894413 12.4679 1.86681 13.6884C2.8392 14.9089 4.11221 15.8548 5.56048 16.4327C5.7286 16.4863 5.88823 16.5636 6.03455 16.6623C6.47736 16.9936 6.5555 17.7059 7.05822 17.9407C7.23966 18.0047 7.43522 18.017 7.62326 17.9765C7.81129 17.936 7.98446 17.8441 8.12357 17.7111C8.40092 17.4436 8.66188 17.1596 8.90501 16.8606C9.36404 16.3804 9.96649 16.0626 10.6215 15.9553C11.2259 15.8588 11.9005 15.9292 12.3902 15.5561C12.5905 15.372 12.7768 15.1731 12.9476 14.9613C13.3104 14.6223 13.741 14.3644 14.2109 14.2047C15.4948 13.6966 16.8518 13.398 18.2301 13.3202C19.5142 13.2498 20.8349 13.3672 22.0487 12.9498C22.3638 12.8519 22.6543 12.6873 22.9004 12.4671C23.1614 12.1844 23.3555 11.8464 23.4683 11.4783C23.9062 10.1967 23.9925 8.82091 23.7183 7.49448Z" fill="#1A0161"/>
</svg>
