<svg width="12" height="7" viewBox="0 0 12 7" fill="none" xmlns="http://www.w3.org/2000/svg">
<path d="M2.6075 5.69156L3.08414 5.96593L7.91353 6.08939C8.45501 6.41918 9.02753 6.69489 9.62286 6.91251C9.70175 6.93605 9.78235 6.95348 9.86392 6.96464C10.3122 7.00128 10.7623 7.00951 11.2116 6.98932C11.5815 6.98932 11.8663 6.96464 11.8663 6.96464C11.8663 6.96464 11.639 0.865402 11.4664 0.223377C11.3842 -0.0839163 10.9788 -0.0180696 10.5789 0.135577C10.2791 0.258465 9.98959 0.405268 9.71325 0.57457C9.71325 0.57457 7.66425 0.774858 7.33828 0.950455C7.0123 1.12605 6.08641 0.848938 5.51116 0.950455C4.9359 1.05197 3.90867 0.272762 3.90867 0.272762C1.10636 -0.654607 2.6842 1.07392 2.88417 1.15074C2.88417 1.15074 0.144867 0.522441 0.00516264 3.49935C-0.134542 6.47626 2.6075 5.69156 2.6075 5.69156Z" fill="#3F3D56"/>
</svg>
