<svg width="243" height="48" viewBox="0 0 243 48" fill="none" xmlns="http://www.w3.org/2000/svg">
<path opacity="0.1" d="M243 31.6602C243 37.4792 236.978 42.9244 226.471 47.6145H27.9852C18.8016 47.6145 10.2008 44.2864 2.82944 38.4827C0.976374 36.2811 0 34.0001 0 31.6576C0 25.4725 6.80907 19.6996 18.5818 14.8202L18.9141 14.687C22.2368 13.3225 25.9506 12.0348 30.0095 10.8239C30.1117 10.7932 30.2165 10.765 30.3188 10.7292C33.5393 9.78196 36.9651 8.88425 40.5963 8.03602C40.7113 8.01041 40.8238 7.98224 40.9388 7.96176C42.3394 7.62896 43.7682 7.3192 45.2277 7.00943L45.79 6.89166C56.41 4.6849 68.4818 2.93382 81.5734 1.74596H81.5887C83.4222 1.57529 85.2753 1.42253 87.1479 1.2877C89.2311 1.1213 91.3397 0.980503 93.4714 0.84994C95.0995 0.744978 96.7481 0.655371 98.4018 0.57345C98.4079 0.570844 98.4144 0.569497 98.421 0.569497C98.4276 0.569497 98.4341 0.570844 98.4402 0.57345C105.901 0.197122 113.61 0 121.492 0C140.984 0 159.407 1.19811 175.732 3.32807C175.748 3.32539 175.763 3.32539 175.778 3.32807C178.288 3.65576 180.752 4.00137 183.155 4.37001C183.842 4.47754 184.527 4.58505 185.2 4.69513C187.911 5.13375 190.552 5.59712 193.123 6.08524C223.36 11.8428 243 21.1588 243 31.6602Z" fill="#1A0161"/>
</svg>
