<svg width="52" height="49" viewBox="0 0 52 49" fill="none" xmlns="http://www.w3.org/2000/svg">
<path d="M51.1916 42.8943C51.1916 42.8943 48.4898 41.797 39.894 45.7437C31.2982 49.6904 30.2257 49.1916 28.0014 48.5982C25.7771 48.0048 24.536 47.8513 22.1509 44.5543C22.1509 44.5543 20.468 35.4204 18.831 34.0034C17.1941 32.5864 10.2838 34.8117 10.2838 34.8117C10.2838 34.8117 1.98678 36.7172 0.406031 25.6036C0.406031 25.6036 1.52712 17.2345 0 14.6664C0 14.6664 3.08488 15.9965 8.17186 13.8479C13.2588 11.6994 17.332 16.1627 17.332 16.1627C17.332 16.1627 18.6089 19.4879 18.4812 21.4727C18.3535 23.4576 19.1605 24.2019 21.5865 23.2427C21.5865 23.2427 22.7791 21.5444 21.0911 18.7359C19.4031 15.9274 18.1977 13.8377 18.6676 11.6585C19.1375 9.47921 20.4935 6.45333 24.8476 4.94167C29.2016 3.43001 35.1135 3.15121 37.9506 1.95672C40.7878 0.762223 41.4875 0 41.4875 0C41.4875 0 39.7408 1.75209 43.8548 9.1825C47.9688 16.6129 45.3462 19.8357 45.3462 19.8357C45.3462 19.8357 43.1577 25.0613 33.4944 24.6367C33.4944 24.6367 24.1836 24.9769 29.2604 28.9313C29.2604 28.9313 32.5112 28.2688 37.3709 26.7213C42.2307 25.1739 45.7395 31.5607 46.6103 36.0036C47.4811 40.4465 51.1916 42.8943 51.1916 42.8943Z" fill="#1A0161"/>
</svg>
