<svg width="18" height="33" viewBox="0 0 18 33" fill="none" xmlns="http://www.w3.org/2000/svg">
<path opacity="0.05" d="M2.98578 12.9332C3.30049 13.9439 3.61781 14.9573 4.01055 15.9395C4.71815 17.6469 5.60854 19.2724 6.6661 20.7876C7.34793 21.7851 8.08063 22.7468 8.8613 23.6688C9.83925 24.8229 10.942 25.9848 11.275 27.4592C11.4752 28.3111 11.4076 29.1995 11.4908 30.0643C11.5741 30.9292 11.8576 31.8567 12.5624 32.3777C13.0644 32.7502 13.7068 32.8622 14.3233 32.9586C14.7654 33.029 15.3168 33.0524 15.5457 32.6695C15.6258 32.513 15.6676 32.3398 15.668 32.1641L15.7746 30.8902C15.7954 30.614 15.8942 30.2623 16.1699 30.2493C16.4456 30.2363 16.5835 30.6036 16.8176 30.7703C17.1297 30.9892 17.5978 30.7703 17.7695 30.4395C17.912 30.0813 17.9213 29.6837 17.7955 29.3193C17.6061 28.5942 17.2655 27.9175 16.7962 27.3338C16.3268 26.75 15.7393 26.2725 15.0723 25.9327C14.6091 25.7456 14.1649 25.5144 13.7459 25.2423C13.3202 24.8716 12.9674 24.4245 12.7055 23.9241C10.2918 19.9435 7.86514 15.9421 6.16152 11.6098C5.82586 10.8356 5.59915 10.0185 5.48788 9.18181C5.40465 8.32994 5.5373 7.47286 5.59192 6.61839C5.69274 5.08341 5.55052 3.54211 5.17056 2.05163C5.08752 1.66035 4.94078 1.28542 4.73621 0.941852C4.03396 -0.123636 2.39537 -0.282549 1.35499 0.452091C0.971911 0.747262 0.654309 1.11902 0.422368 1.54373C0.190428 1.96844 0.04922 2.43683 0.00770909 2.91914C-0.0677181 3.78403 0.42906 4.68018 0.681351 5.48516C1.44603 7.97043 2.21417 10.4531 2.98578 12.9332Z" fill="black"/>
</svg>
