<svg width="9" height="15" viewBox="0 0 9 15" fill="none" xmlns="http://www.w3.org/2000/svg">
<path d="M0 6.93147L0.723512 9.34105L1.65922 14.7671L5.09268 15.0001L6.0744 13.3613L7.06635 11.7122C7.06635 11.7122 7.68504 9.5203 8.12988 7.40007C8.52104 5.52311 8.77925 3.69991 8.3523 3.50274C7.97138 3.32862 7.72339 2.69613 7.55977 2.015C7.53931 1.93306 7.52142 1.84599 7.50608 1.75893C7.39157 1.1833 7.31472 0.600787 7.27599 0.01512C7.27599 0.01512 0.0843691 -0.358741 1.0891 2.61163C1.26834 3.11904 1.35998 3.65333 1.36009 4.19156C1.36009 4.32984 1.36009 4.46555 1.33453 4.59359C1.28466 5.05428 1.1404 5.4997 0.910769 5.90197C0.681137 6.30425 0.371079 6.65473 0 6.93147Z" fill="#EE8E9E"/>
</svg>
