<svg width="4" height="23" viewBox="0 0 4 23" fill="none" xmlns="http://www.w3.org/2000/svg">
<path opacity="0.1" d="M0.0104846 15.0982L0.250503 22.2344L1.62537 23C1.72858 22.9585 1.81871 22.8899 1.88626 22.8014C3.57419 20.2485 3.02111 12.8536 3.02111 12.8536L3.6655 8.07952L3.23504 5.60236L2.1915 5.49261C2.59326 3.57725 2.85415 1.71938 2.41847 1.51556C2.02975 1.33787 1.77669 0.692456 1.61233 0L0.868802 5.04839C0.868802 5.04839 0.931417 5.50306 0.952287 5.97341C0.983184 6.27081 0.962885 6.57132 0.892281 6.86184C0.79589 7.25258 0.779914 7.65888 0.845323 8.05601C0.414861 8.81379 0.200936 10.2196 0.0965814 11.5758C-0.044297 13.3788 0.0104846 15.0982 0.0104846 15.0982Z" fill="black"/>
</svg>
