<svg width="10" height="21" viewBox="0 0 10 21" fill="none" xmlns="http://www.w3.org/2000/svg">
<path opacity="0.1" d="M8.83752 0.280168C8.83752 0.280168 6.40293 -0.221871 5.74787 0.118137C5.09281 0.458145 3.81187 0.723776 3.62622 0.915031C3.44058 1.10629 2.94995 0.965495 2.51236 2.10505C2.07477 3.24461 2.02968 4.41073 1.47009 4.94465C0.910508 5.47857 0.624086 5.84249 0.600217 6.23031C0.576349 6.61813 0.671826 6.71641 0.454357 6.83595C0.236888 6.95548 -0.0760537 7.46815 0.0167685 7.66206C0.109591 7.85597 5.05569 12.1273 5.05569 12.1273C5.05569 12.1273 5.29967 13.753 5.51714 14.1647C5.73461 14.5764 5.27581 20.2556 4.79048 20.6435C4.30515 21.0313 8.04986 20.9994 8.04986 20.9994C8.04986 20.9994 8.21959 17.2806 8.36546 17.0787C8.51132 16.8768 8.26733 12.9056 8.26733 12.9056C8.26733 12.9056 8.24346 9.5082 8.55906 8.61036C8.87466 7.71253 8.82427 4.72683 8.82427 4.72683C8.82427 4.72683 9.10273 2.93648 9.44219 2.51944C9.78166 2.1024 8.83752 0.280168 8.83752 0.280168Z" fill="black"/>
</svg>
