<svg width="28" height="18" viewBox="0 0 28 18" fill="none" xmlns="http://www.w3.org/2000/svg">
<path d="M0.142354 4.80087C0.448397 5.55941 3.0316 8.47926 3.0316 8.47926C3.0316 8.47926 4.66556 10.6146 6.98941 11.5965C9.31325 12.5785 12.1766 14.6827 12.3892 15.0619C12.5267 15.3061 14.3785 16.4231 15.6805 17.1895L15.9736 17.3609L16.6194 17.7376L16.9617 17.9324C16.9617 17.9324 17.7554 17.296 18.5464 16.6543C19.3374 16.0127 20.1025 15.384 20.1025 15.3555C20.1025 15.3269 20.4345 14.4774 20.3619 14.4307C20.2893 14.3839 20.1622 14.0774 19.8613 13.6955C19.5438 13.2721 19.1305 12.9302 18.6553 12.698C17.9679 12.3441 17.4197 11.7684 17.0992 11.064C17.0992 11.064 16.9954 10.9887 16.8398 10.8874C16.5173 10.6653 16.1569 10.5042 15.7764 10.412C15.2577 10.347 14.2825 9.27936 14.2825 9.27936C13.9033 9.03211 13.5871 8.69939 13.3592 8.30781C13.0999 7.78826 9.43515 5.25806 9.09539 5.02427L18.0017 10.7549L20.1337 12.1265L23.1915 9.73137L28 4.9853L26.4127 4.91257C24.0785 4.81126 19.9288 4.65279 19.4101 4.77229C18.9852 4.87026 18.5473 4.89921 18.1133 4.85802C18.1133 4.85802 16.9306 4.90997 16.1473 4.49693C15.3641 4.08389 14.1321 3.88906 13.9895 3.58253C13.8468 3.276 9.65561 1.80568 9.65561 1.80568C9.65561 1.80568 3.94973 -1.23108 1.90858 0.571753C-0.132566 2.37458 -0.166282 4.03713 0.142354 4.80087Z" fill="#65617D"/>
</svg>
