<svg width="10" height="8" viewBox="0 0 10 8" fill="none" xmlns="http://www.w3.org/2000/svg">
<path opacity="0.05" d="M0.519366 7.54419C0.99506 7.7099 1.50082 7.77097 2.00221 7.72325C2.03902 7.31245 2.59114 7.22027 3.00129 7.24134C3.19967 7.23478 3.39631 7.28017 3.57182 7.37301C3.67435 7.43884 3.75323 7.53364 3.85314 7.60211C4.03128 7.69992 4.23103 7.75153 4.43418 7.75222L6.56906 7.93128C7.52081 8.01292 8.51201 8.08667 9.40329 7.74696C9.58085 7.6906 9.73866 7.58461 9.85814 7.44148C10.1 7.09387 9.85814 6.59617 9.52424 6.34337C9.19034 6.09056 8.75915 5.97733 8.42262 5.71926C7.6812 5.15308 7.57866 4.09446 7.18691 3.24652C6.90847 2.71189 6.56494 2.2139 6.16417 1.76393C5.87379 1.3775 5.5354 1.02972 5.1572 0.729012C4.30009 0.110169 3.31679 0.123332 2.30982 0.0337977C1.59995 -0.0294033 0.932146 -0.0715373 0.422089 0.560472C-0.20891 1.35048 0.0434873 2.93051 0.0829247 3.85219C0.132167 5.09236 0.278092 6.32679 0.519366 7.54419Z" fill="black"/>
</svg>
