<svg width="22" height="15" viewBox="0 0 22 15" fill="none" xmlns="http://www.w3.org/2000/svg">
<path d="M0 8.82674L1.56203 13.8243L1.80741 14.6171L2.55149 14.4136L4.19267 13.9617L11.4962 11.9532C12.4162 11.9132 13.3165 11.6733 14.1348 11.2502C15.5155 10.4753 17.0956 10.1303 18.6731 10.2591C19.6388 10.349 20.7127 9.93143 21.6045 8.28233C21.6045 8.28233 23.6283 2.29641 18.52 0.581244C13.4118 -1.13393 13.1664 1.493 13.1664 1.493L13.0952 1.53529C12.8973 1.66214 12.3432 2.06385 12.3221 2.54483C12.2983 3.13418 11.0028 2.58712 10.3247 2.92275C9.64657 3.25838 6.34838 7.49478 5.77054 7.4657C5.19269 7.43663 4.73358 7.17236 4.49083 7.58463L4.475 7.61106C4.29558 7.85684 3.75995 7.91498 3.40375 7.92291C3.293 7.92874 3.18203 7.92874 3.07129 7.92291L3.02379 7.93612L2.6544 8.04712L0 8.82674Z" fill="#65617D"/>
</svg>
