<svg width="14" height="12" viewBox="0 0 14 12" fill="none" xmlns="http://www.w3.org/2000/svg">
<path d="M9.31335 0.914233C8.62414 1.50924 7.63405 1.55304 6.72883 1.64576C4.79315 1.84496 2.909 2.39113 1.16631 3.25821C0.925117 3.36231 0.706679 3.51283 0.523397 3.70124C0.366961 3.90559 0.255641 4.14088 0.196798 4.39155C0.0311951 4.93402 -0.0307486 5.50291 0.0142122 6.06839C0.0772799 6.61684 0.234767 7.15019 0.479683 7.64477C1.14782 9.03017 2.17884 10.208 3.46281 11.0525C3.68907 11.2213 3.94582 11.3447 4.21888 11.4157C4.85151 11.5471 5.46357 11.1813 6.08848 11.0165C6.65691 10.868 7.25603 10.8867 7.81407 11.0706C8.3284 11.2457 8.8916 11.5651 9.40079 11.3513C9.72666 11.1688 9.97998 10.8796 10.1183 10.5322C10.6101 9.60139 11.0488 8.64337 11.4324 7.6628C11.5702 7.27995 11.729 6.90504 11.9082 6.53976C12.4662 5.47596 13.4306 4.65429 13.9115 3.54927C13.9603 3.46498 13.9898 3.37085 13.9978 3.27373C14.0058 3.1766 13.9921 3.07891 13.9578 2.98774C13.8686 2.86456 13.7452 2.77048 13.6029 2.71728C12.8918 2.30951 12.2438 1.80017 11.6793 1.2053C11.363 0.901356 10.7818 0.0796888 10.3266 0.00756674C9.81482 -0.08001 9.66052 0.615442 9.31335 0.914233Z" fill="#A1616A"/>
</svg>
