<svg width="24" height="31" viewBox="0 0 24 31" fill="none" xmlns="http://www.w3.org/2000/svg">
<path d="M15.9747 3.51669C16.1674 5.62 14.5816 7.66154 15.0442 9.72109C15.1419 10.1613 15.3321 10.5784 15.4015 11.0083C15.5917 12.2312 14.8643 13.3897 14.1677 14.4143L8.1969 23.2137C7.9574 23.5997 7.67074 23.9543 7.34356 24.2692C6.19977 25.299 4.48793 25.1806 2.98944 25.4844C1.9359 25.6983 0.940828 26.1374 0.0721206 26.7716C0.0342854 26.8016 0.00926399 26.8449 0.00210516 26.8927C-0.00505368 26.9405 0.00619484 26.9892 0.0335752 27.029C0.280575 27.3684 0.608503 27.6405 0.987435 27.8204C1.36637 28.0002 1.78424 28.0822 2.20292 28.0588C2.35971 28.2648 2.20292 28.5737 1.98701 28.7179C1.66572 28.9393 1.21591 28.9985 1.16193 29.5442C1.13933 29.7339 1.17713 29.9258 1.2699 30.0926C1.51152 30.4612 1.88657 30.7215 2.31602 30.8186C4.37227 31.4519 6.61616 30.3397 8.16349 28.826C9.71082 27.3122 10.8212 25.402 12.3403 23.8599C13.1807 23.0078 14.1395 22.2766 15.0031 21.4502C16.7304 19.8026 18.0875 17.7971 19.3726 15.7865C19.797 15.2034 20.1171 14.551 20.3185 13.8582C20.4779 13.1734 20.4059 12.45 20.591 11.7703C20.8326 10.8821 21.4829 10.1742 22.0226 9.4276C23.0842 7.96532 23.791 6.17866 23.6497 4.37655C23.5083 2.57445 22.3979 0.800656 20.7015 0.18794C20.1755 -0.0218332 19.5962 -0.0570298 19.0488 0.0875335C18.3522 0.301212 17.8407 0.877891 17.3652 1.42882L16.2317 2.7392C15.9492 3.02927 15.7249 3.37101 15.5711 3.74581C15.4981 3.93476 15.4813 4.14087 15.5228 4.33917C15.5643 4.53748 15.6624 4.71947 15.805 4.86311" fill="#FBBEBE"/>
</svg>
