<svg width="41" height="49" viewBox="0 0 41 49" fill="none" xmlns="http://www.w3.org/2000/svg">
<path d="M40.9988 40.4984L35.9596 33.1783C35.9596 33.1783 35.865 31.3662 35.5354 30.9439C35.2057 30.5216 35.4638 29.5797 35.4638 29.5797C35.4638 29.5797 35.819 29.0678 35.5124 29.014C35.2057 28.9603 35.4638 27.8136 35.4638 27.8136L35.4408 25.9785C35.4408 25.9785 35.7245 24.2125 35.4894 23.7901C35.4199 23.6755 35.3852 23.5432 35.3892 23.4092C35.3933 23.2752 35.4361 23.1453 35.5124 23.0351C35.5124 23.0351 35.7935 22.0241 35.5124 21.7554C35.2313 21.4866 35.3003 19.9202 35.3693 18.6712C35.4383 17.4222 34.8761 16.7183 34.8761 16.5315C34.8761 16.3446 33.0158 14.5069 33.0158 14.3405C33.0158 14.1742 31.8377 13.4934 31.1299 13.3168C30.422 13.1402 30.072 12.9866 30.095 12.8919C30.118 12.7972 28.9885 12.4235 28.9885 12.4235C28.9885 12.4235 27.9995 12.3518 27.6213 11.8579C27.2431 11.3639 26.0881 11.2205 26.06 11.2154L26.037 11.1182C26.037 11.0823 26.0242 11.0465 26.0166 11.0107C26.1099 10.8618 26.1952 10.708 26.2721 10.55L26.3385 10.4066C26.7524 10.4093 27.1569 10.2832 27.4961 10.0457C27.6632 9.90704 27.7996 9.73509 27.8969 9.54079C27.9941 9.34649 28.0499 9.13408 28.0609 8.91702C28.081 8.4819 27.9858 8.04919 27.7849 7.66287C27.5779 7.24055 27.2738 6.80033 27.3811 6.33962C27.4271 6.14254 27.5447 5.9685 27.606 5.77398C27.6976 5.39422 27.637 4.99365 27.4374 4.65804C27.2585 4.31763 27.0106 4.01561 26.8113 3.68544C26.5585 3.26272 26.3893 2.79522 26.313 2.30844C26.2988 2.04946 26.2373 1.79528 26.1316 1.55852C26.0246 1.39166 25.8835 1.24945 25.7176 1.14132C24.9802 0.614451 24.0905 0.344685 23.1852 0.373475C22.5438 0.393951 21.9075 0.567991 21.2687 0.488647C20.8881 0.423087 20.5136 0.325485 20.1494 0.196871C19.3598 -0.0386013 18.4475 -0.133307 17.7601 0.319721C17.0727 0.772749 16.7993 1.66345 16.3317 2.3673C15.9202 2.98158 15.3095 3.49859 15.0029 4.15894C15.0029 4.15894 15.0029 4.13335 15.0029 4.12311C14.9257 4.27343 14.8665 4.43237 14.8265 4.59662C14.7388 5.11807 14.7747 5.65289 14.9313 6.1579C14.9659 6.42979 15.1019 6.6785 15.3121 6.85407C15.5446 7.00508 15.864 6.96925 16.1349 7.01788L16.1042 7.15097C15.8285 8.47402 16.0592 9.85256 16.7508 11.0132C17.4423 12.1737 18.5441 13.0316 19.8376 13.4166C19.8376 13.4652 19.8376 13.5113 19.8376 13.5599C19.8371 13.6951 19.8286 13.8301 19.8121 13.9643C19.8121 13.9643 17.4433 13.4754 16.807 13.8056C16.1707 14.1358 14.9236 14.3943 14.7345 14.5735C14.5455 14.7526 14.0753 14.6221 13.6511 15.7278C13.2269 16.8335 13.1809 17.9622 12.6289 18.4818C12.077 19.0014 11.8061 19.352 11.7805 19.7283C11.755 20.1045 11.8521 20.1992 11.64 20.3169C11.4279 20.4347 11.1289 20.9286 11.2158 21.118C11.2483 21.2475 11.2413 21.3838 11.1958 21.5092C11.1502 21.6347 11.0682 21.7436 10.9603 21.8219C10.8485 21.9006 10.7592 22.0072 10.7014 22.1311C10.6436 22.255 10.6192 22.392 10.6306 22.5283C10.6306 22.5283 10.4875 23.0402 10.1579 23.1656C9.82821 23.291 9.61612 24.0589 9.61612 24.0589L8.54797 25.2874L6.43211 22.943C6.27318 22.7677 6.05145 22.6626 5.81539 22.6506C5.57933 22.6386 5.34812 22.7207 5.17231 22.879L4.13227 23.8157C3.73149 23.9133 3.36917 24.129 3.09222 24.4351C2.86685 24.6693 2.68434 24.9413 2.55304 25.2388L1.98574 25.7507C1.80652 25.9731 1.69684 26.2435 1.67047 26.5281C1.64411 26.8127 1.70222 27.0988 1.83753 27.3504L3.19444 28.8528V28.8656C2.71374 28.908 2.25693 29.0944 1.88353 29.4005C-0.140335 31.1922 -0.16078 32.8379 0.140756 33.5904C0.442291 34.3429 3.01301 37.2377 3.01301 37.2377C3.01301 37.2377 4.50535 39.1803 6.65954 40.2118L6.6442 40.2297C6.59987 40.276 6.55807 40.3247 6.51899 40.3756L6.48321 40.4216L6.45 40.4677L6.41166 40.524C6.40137 40.5388 6.39199 40.5542 6.38356 40.5701L6.34267 40.6366C6.33319 40.6514 6.32465 40.6668 6.31712 40.6827C6.29923 40.7134 6.2839 40.7441 6.26856 40.7749C6.26294 40.7848 6.25783 40.7951 6.25323 40.8056C6.23279 40.8465 6.21235 40.8875 6.19446 40.9335L6.17402 40.9796C6.16124 41.0103 6.15102 41.041 6.13824 41.0743C6.13028 41.0944 6.12345 41.1149 6.1178 41.1357L6.08713 41.2279C6.07882 41.2496 6.07199 41.2718 6.06669 41.2944C6.06669 41.3277 6.04625 41.361 6.03858 41.3968C6.03091 41.4326 6.0258 41.4378 6.02069 41.4608C6.01558 41.4838 5.99514 41.5708 5.98492 41.6297C5.98492 41.6502 5.98491 41.6732 5.97214 41.6963C5.95936 41.7193 5.95936 41.7756 5.9517 41.8166C5.94403 41.8575 5.9517 41.8729 5.9517 41.9036L5.93637 42.0188V42.1109C5.93637 42.1544 5.93636 42.1979 5.92358 42.244C5.91081 42.2901 5.92358 42.2977 5.92358 42.3259C5.92358 42.4001 5.92358 42.4743 5.92358 42.5537C5.87759 45.3077 6.03858 45.707 6.03858 45.707C6.14368 45.9613 6.31512 46.1828 6.53496 46.348C6.75479 46.5133 7.01494 46.6163 7.28817 46.6463C7.42222 46.6568 7.55707 46.6499 7.68936 46.6258C8.91594 46.4134 11.778 45.9194 12.8001 46.1139C13.4109 46.2265 14.5378 46.0576 15.3402 45.9066L15.5523 45.8657L15.6979 46.334L16.163 46.2061L16.5591 46.4339L16.8146 46.5797C17.2797 48.1564 19.1656 47.6189 19.1656 47.6189L19.6128 47.8748L24.1588 47.9926C24.6691 48.3006 25.2083 48.5578 25.7687 48.7604C25.8427 48.7846 25.9189 48.8018 25.9961 48.8116C26.4211 48.8463 26.8479 48.854 27.2738 48.8346C27.6213 48.8346 27.8897 48.8116 27.8897 48.8116C27.8897 48.8116 27.8437 47.5754 27.7772 46.1907C29.1864 46.1558 30.5924 46.0404 31.9885 45.8452C34.4161 45.4203 35.428 43.2089 35.8011 42.0264C35.9128 42.5095 35.9922 42.9994 36.0388 43.493C36.138 43.9271 36.2643 44.3545 36.417 44.7728C36.5471 45.107 36.7188 45.4235 36.9281 45.7146C38.7168 45.1029 37.6333 44.179 37.2577 43.7848C36.8821 43.3906 37.5132 43.0553 37.5132 43.0553C37.5132 43.0553 38.009 42.7252 37.9604 42.4206C37.9119 42.116 37.8889 41.7858 39.4937 41.8089C41.0984 41.8319 40.9988 40.4984 40.9988 40.4984ZM16.1298 25.4717C16.1502 25.6048 16.3853 27.056 16.5744 27.4374C16.6309 27.6892 16.6489 27.9481 16.6281 28.2052C15.68 28.1285 14.6911 28.0875 14.6911 28.0875C14.7189 28.1221 14.7366 28.1638 14.7422 28.2078L14.5914 28.1745L14.3768 28.1233L16.1247 25.4589L16.1298 25.4717ZM12.6647 30.99L14.3078 31.2459L14.4458 31.2664C14.3993 31.52 14.3712 31.7766 14.3615 32.0342C14.3615 32.0598 14.3972 32.088 14.4509 32.1212C14.428 32.2505 14.4178 32.3816 14.4202 32.5128C14.4458 32.6408 15.2124 32.9224 16.094 33.1553C16.0812 33.2039 16.071 33.25 16.0582 33.2909C15.2788 32.8814 14.0548 32.6895 13.9143 32.3849C13.7737 32.0803 9.60334 30.6214 9.60334 30.6214L9.18936 30.4141L10.2856 30.6214L10.5872 30.5907C11.2703 30.7687 11.9643 30.9021 12.6647 30.99Z" fill="url(#paint0_linear_6_643)"/>
<defs>
<linearGradient id="paint0_linear_6_643" x1="20.5072" y1="48.8602" x2="20.5072" y2="-0.000212599" gradientUnits="userSpaceOnUse">
<stop stop-color="#808080" stop-opacity="0.25"/>
<stop offset="0.54" stop-color="#808080" stop-opacity="0.12"/>
<stop offset="1" stop-color="#808080" stop-opacity="0.1"/>
</linearGradient>
</defs>
</svg>
