<svg width="11" height="11" viewBox="0 0 11 11" fill="none" xmlns="http://www.w3.org/2000/svg">
<path d="M1.22384e-06 5.49633C-0.000937305 6.9052 0.537956 8.26071 1.50553 9.28331C2.47311 10.3059 3.79558 10.9176 5.20022 10.9922C6.60486 11.0669 7.98454 10.5988 9.05473 9.68452C10.1249 8.77022 10.804 7.47944 10.9519 6.07838C11.0998 4.67733 10.7053 3.27283 9.84972 2.15456C8.99413 1.03629 7.74271 0.289526 6.35355 0.0682676C4.96439 -0.152991 3.54343 0.168133 2.38372 0.965414C1.224 1.7627 0.413967 2.97533 0.120684 4.35323C0.0402808 4.72893 -0.000171024 5.1121 1.22384e-06 5.49633Z" fill="#EE8E9E"/>
</svg>
