<svg width="14" height="11" viewBox="0 0 14 11" fill="none" xmlns="http://www.w3.org/2000/svg">
<path d="M8.3363 10.7461C8.3087 10.6325 8.3087 10.514 8.3363 10.4004C8.3664 10.2377 8.36152 10.0704 8.32199 9.90973C8.28245 9.74906 8.20918 9.59868 8.10703 9.46862C7.79871 9.11756 7.27955 9.08589 6.81574 9.02518C6.35193 8.96448 5.81961 8.79027 5.68784 8.34155C5.59297 8.01953 5.73791 7.62625 5.53236 7.3623C5.43609 7.25439 5.31214 7.17496 5.17397 7.13266C4.83666 6.9799 4.45756 6.9464 4.09877 7.03764C3.48211 7.23824 3.11318 7.96146 2.4728 8.05121C2.37607 8.07014 2.27587 8.05909 2.18556 8.01953C1.94311 7.89812 1.92203 7.54706 1.7481 7.3491C1.45559 7.04028 0.89954 7.24088 0.543777 7.01124C0.328012 6.83089 0.188618 6.57524 0.153753 6.29594C-0.00560791 5.77832 -0.0417075 5.23051 0.0483435 4.6964C0.256531 3.80161 1.05766 3.1866 1.56627 2.41851C2.04325 1.70584 2.31205 0.803129 3.02621 0.330658C3.74038 -0.141813 4.66009 -0.0362358 5.46912 0.203959C5.84105 0.336885 6.22369 0.43756 6.61283 0.504866C7.26374 0.584051 7.91729 0.407202 8.57084 0.386085C9.49715 0.356115 10.4072 0.634593 11.1587 1.17794C11.3281 1.28864 11.4719 1.43445 11.5803 1.60553C11.689 1.84812 11.7533 2.10828 11.7701 2.37363C11.8471 2.87197 12.0198 3.35063 12.2787 3.78313C12.479 4.12362 12.7346 4.4298 12.9164 4.78086C13.1197 5.12499 13.182 5.5346 13.0904 5.92377C13.0271 6.12173 12.9059 6.30122 12.8584 6.50446C12.753 6.97429 13.0614 7.42564 13.2722 7.85852C13.4773 8.25473 13.5746 8.69811 13.5542 9.14396C13.5429 9.36615 13.4858 9.58359 13.3865 9.78257C13.2872 9.98155 13.1477 10.1577 12.977 10.3001C12.6191 10.5488 12.1924 10.6789 11.7569 10.6722C11.2287 10.6883 10.702 10.6088 10.2021 10.4373C10.0176 10.355 9.81578 10.3197 9.61442 10.3344C9.33244 10.3924 9.36933 10.564 9.24811 10.7725C9.08736 11.0523 8.46543 11.1077 8.3363 10.7461Z" fill="#3F3D56"/>
</svg>
