<svg width="12" height="21" viewBox="0 0 12 21" fill="none" xmlns="http://www.w3.org/2000/svg">
<path d="M0 2.01482L0.265033 6.26215L0.869308 9.87503L1.54779 11.5501L2.15472 20.7031C2.15472 20.7031 7.98545 21.38 9.41132 20.6898C9.51646 20.6494 9.60825 20.5805 9.67636 20.4907C11.3911 17.8972 10.8293 10.3847 10.8293 10.3847L11.4812 5.5348L11.0466 3.01825L9.98644 2.90677L9.17544 2.81916C9.17544 2.81916 8.99257 3.0448 8.72753 3.39521C8.00929 4.34289 6.68944 6.21171 6.77955 6.9895C6.89881 8.05133 6.63378 9.14768 6.22032 9.31757C5.80687 9.48746 5.47028 9.77946 5.39872 9.48746C5.2957 9.24269 5.26981 8.97224 5.32451 8.71233C5.39872 8.29821 5.00912 7.03729 5.00912 7.03729C5.00912 7.03729 4.35714 5.55869 4.40485 4.92955C4.45255 4.30042 4.33329 3.57041 4.13981 3.40051C3.94634 3.23062 3.67866 3.06072 3.89599 2.28559C4.11331 1.51045 2.94187 0 2.94187 0L0 2.01482Z" fill="#E3E8F4"/>
</svg>
