<svg width="18" height="43" viewBox="0 0 18 43" fill="none" xmlns="http://www.w3.org/2000/svg">
<path d="M5.27926 0.351798C4.94532 0.137021 4.56012 0.0155656 4.16356 0C3.70385 0.023281 3.31129 0.325935 2.9523 0.615654C2.52693 0.942627 2.1232 1.29689 1.74363 1.67623C0.957605 2.5154 0.409965 3.54988 0.157481 4.67241C-0.095003 5.79495 -0.0431412 6.96469 0.307684 8.06039C0.687332 9.20116 1.38206 10.2074 2.06904 11.193L3.46367 13.2003C5.59176 16.2605 7.71985 19.3206 9.94867 22.3084C9.94915 22.3818 9.97293 22.4532 10.0166 22.5123C10.0602 22.5713 10.1214 22.615 10.1914 22.6369C10.2715 22.6576 10.3722 22.655 10.4213 22.7222C10.444 22.7642 10.4539 22.8118 10.4497 22.8593C10.4447 23.0803 10.4028 23.2989 10.3257 23.506C10.2895 23.5743 10.2803 23.6537 10.2999 23.7285C10.3722 23.8966 10.677 23.8009 10.7751 23.9587C10.8397 24.0622 10.7596 24.1967 10.6744 24.2847C10.5892 24.3726 10.4833 24.4709 10.4988 24.5925C10.5143 24.7141 10.726 24.8512 10.7183 25.0012C10.7183 25.0891 10.6408 25.1564 10.5866 25.2262C10.5107 25.3376 10.4761 25.472 10.4888 25.6062C10.5016 25.7404 10.5608 25.8659 10.6563 25.9609C10.8035 27.4198 10.0107 28.8063 9.85311 30.2601C9.59485 32.5572 10.6408 34.7999 10.7674 37.1047C10.7598 37.3641 10.8092 37.6219 10.912 37.8601C11.1264 38.2584 11.6868 38.499 11.6584 38.9517C11.6178 39.1377 11.5652 39.3209 11.5008 39.5001C11.4569 39.7588 11.5809 40.0174 11.5861 40.2761C11.5912 40.5348 11.3614 40.853 11.1186 40.7495C11.3011 41.36 11.4638 41.9756 11.6067 42.5964L16.4879 43C16.5405 42.5606 16.5257 42.1157 16.444 41.6807C16.3433 41.2074 16.1315 40.7676 16.0205 40.2994C15.9482 40.0689 15.9279 39.8253 15.961 39.586C15.994 39.3467 16.0796 39.1177 16.2116 38.9155C16.0843 38.917 15.9607 38.8734 15.8624 38.7925C15.7641 38.7116 15.6975 38.5984 15.6744 38.4731C15.6335 38.2209 15.6379 37.9633 15.6873 37.7126C15.8164 36.4373 15.2818 35.1802 15.2973 33.8997C15.3128 32.8909 15.6666 31.9208 15.8448 30.9301C16.2271 28.8089 15.8293 26.5093 16.772 24.5718C17.3428 23.4052 18.133 22.1118 17.4925 20.9813C17.1775 20.4226 16.6196 20.0398 16.2555 19.5121C15.9586 19.0133 15.7359 18.4739 15.5943 17.9108C14.8428 15.5827 13.6263 13.4202 12.5597 11.2059C12.2637 10.6509 12.0439 10.0583 11.9063 9.44433C11.831 8.90546 11.8033 8.36097 11.8237 7.81723C11.8237 6.84102 11.7641 5.86572 11.6455 4.89677C11.6214 4.47228 11.5003 4.059 11.2916 3.68875C11.0809 3.40865 10.8177 3.17231 10.5169 2.9929C8.91561 1.89352 7.00963 1.26493 5.27926 0.351798Z" fill="#464353"/>
</svg>
