<svg width="10" height="21" viewBox="0 0 10 21" fill="none" xmlns="http://www.w3.org/2000/svg">
<path d="M8.8413 0.281376C8.8413 0.281376 6.40594 -0.220832 5.75068 0.116626C5.09541 0.454084 3.81141 0.725113 3.62836 0.913771C3.44531 1.10243 2.94922 0.961603 2.51414 2.10418C2.07907 3.24675 2.02866 4.40792 1.47155 4.94201C0.914446 5.4761 0.622625 5.84013 0.598749 6.22807C0.574873 6.61601 0.673033 6.71433 0.452843 6.83656C0.232652 6.95879 -0.0777407 7.46631 0.0177636 7.66028C0.113268 7.85425 5.05827 12.1269 5.05827 12.1269C5.05827 12.1269 5.29969 13.7531 5.51988 14.165C5.74007 14.5768 5.27581 20.2578 4.79033 20.6458C4.30485 21.0337 8.06401 20.9992 8.06401 20.9992C8.06401 20.9992 8.23379 17.2792 8.37705 17.0799C8.5203 16.8806 8.28155 12.9028 8.28155 12.9028C8.28155 12.9028 8.25766 9.507 8.57336 8.60888C8.88905 7.71077 8.85192 4.72413 8.85192 4.72413C8.85192 4.72413 9.13047 2.93321 9.47004 2.51604C9.80961 2.09887 8.8413 0.281376 8.8413 0.281376Z" fill="#3F3D56"/>
</svg>
