<svg width="10" height="13" viewBox="0 0 10 13" fill="none" xmlns="http://www.w3.org/2000/svg">
<path d="M5.30163 1.06275C5.81426 1.88263 6.48627 2.59088 7.27771 3.14537C8.06914 3.69987 8.96382 4.08927 9.90855 4.29043L9.49091 5.80615C8.76906 8.42187 7.94409 11.1873 5.94098 13C6.16011 12.1143 5.87652 11.1615 5.37639 10.3998C4.84151 9.65875 4.20739 8.99493 3.49186 8.42702L0.297711 5.64347C0.202489 5.57305 0.121172 5.48549 0.0579417 5.38526C-0.0193139 5.1895 -0.0193139 4.97164 0.0579417 4.77588C0.465268 3.50804 1.62797 2.71014 2.56894 1.85804C3.04225 1.41399 3.46582 0.919616 3.83216 0.383639C4.48698 -0.527859 4.88142 0.38364 5.30163 1.06275Z" fill="#FBBEBE"/>
</svg>
