<svg width="15" height="8" viewBox="0 0 15 8" fill="none" xmlns="http://www.w3.org/2000/svg">
<path d="M5.07363 3.33412C3.93435 4.35161 2.45531 4.90379 0.929057 4.88144C0.540838 4.88144 0.00267737 4.95653 0 5.34537C0.00683508 5.46103 0.0457926 5.57248 0.112461 5.66717C0.595915 6.47162 1.35851 7.06931 2.25436 7.34589C3.08435 7.59797 3.97323 7.55506 4.8407 7.51216L7.37082 7.38076C7.84739 7.35394 8.32663 7.3298 8.80321 7.2708C9.27978 7.2118 9.79383 7.11259 10.2918 7.04018C11.5116 6.8655 12.7451 6.80714 13.9759 6.86588C14.3025 6.87929 14.68 6.86587 14.8835 6.61916C15.087 6.37244 14.9772 5.9273 14.9023 5.57063C14.7523 4.83586 14.9023 4.06622 14.763 3.32877C14.5194 2.03352 13.4083 1.04398 12.1821 0.574689C11.0442 0.14026 9.02543 -0.355856 7.94644 0.365512C6.78982 1.14319 6.09371 2.40894 5.07363 3.33412Z" fill="#3F3D56"/>
</svg>
