<svg width="11" height="8" viewBox="0 0 11 8" fill="none" xmlns="http://www.w3.org/2000/svg">
<path opacity="0.1" d="M0 4.26291C0.147451 4.27385 0.286535 4.33577 0.393445 4.43806C0.573449 4.63123 0.583728 4.97378 0.820304 5.09226C0.908748 5.12964 1.00616 5.14037 1.1006 5.12317C1.72547 5.0356 2.08548 4.32988 2.6872 4.13413C3.03701 4.04409 3.40699 4.07588 3.73637 4.22428C3.8702 4.2677 3.99063 4.34487 4.08609 4.44836C4.28667 4.70592 4.14524 5.09226 4.23781 5.40648C4.36638 5.84434 4.88839 6.0169 5.3384 6.07357C5.78841 6.13023 6.29757 6.16372 6.59843 6.5037C6.69802 6.63116 6.76946 6.77835 6.80802 6.93552C6.84659 7.0927 6.85141 7.25628 6.82216 7.41546C6.79512 7.5263 6.79512 7.64203 6.82216 7.75287C6.94559 8.10572 7.55502 8.05163 7.71445 7.77347C7.83274 7.56999 7.79674 7.40258 8.07189 7.34592C8.26845 7.33025 8.46576 7.36481 8.64534 7.44637C9.12406 7.6109 9.62826 7.68852 10.1342 7.67559C10.4561 6.98809 10.6292 6.24023 10.6422 5.48102C10.6553 4.72182 10.508 3.96842 10.21 3.27022C9.91205 2.57202 9.47009 1.9448 8.91313 1.42965C8.35618 0.914512 7.69681 0.523088 6.97825 0.281053C6.25969 0.0390188 5.49817 -0.0481597 4.74361 0.0252221C3.98906 0.0986039 3.25851 0.330889 2.59986 0.70686C1.94121 1.08283 1.36934 1.59399 0.921734 2.20683C0.474127 2.81967 0.160894 3.52034 0.002574 4.26291H0Z" fill="black"/>
</svg>
