<svg width="17" height="35" viewBox="0 0 17 35" fill="none" xmlns="http://www.w3.org/2000/svg">
<path d="M1.50002 0C1.50002 0 2.70264 0.148933 3.08352 0.650612C3.46439 1.15229 4.46614 1.22546 4.46614 1.22546C4.46614 1.22546 5.60877 1.60694 5.58529 1.70101C5.56181 1.79507 5.91921 1.94139 6.62878 2.13214C7.33836 2.32288 8.53576 3.0153 8.53576 3.1773C8.53576 3.3393 10.4167 5.20492 10.4167 5.39566C10.4167 5.5864 10.988 6.30234 10.9175 7.56699C10.8471 8.83164 10.7741 10.4412 11.061 10.7025C11.348 10.9638 11.061 11.9907 11.061 11.9907C10.9839 12.1024 10.9407 12.2342 10.9365 12.37C10.9323 12.5058 10.9674 12.6399 11.0375 12.7562C11.2749 13.1848 10.988 14.9746 10.988 14.9746L11.0141 16.8376C11.0141 16.8376 10.7532 18.0056 11.061 18.0552C11.3688 18.1049 11.0141 18.6274 11.0141 18.6274C11.0141 18.6274 10.7532 19.5812 11.0845 20.0123C11.4158 20.4434 11.5123 22.2777 11.5123 22.2777L16.6124 29.701C16.6124 29.701 16.6854 31.0623 15.0654 31.0388C13.4454 31.0153 13.4663 31.3497 13.5158 31.658C13.5654 31.9664 13.0619 32.3034 13.0619 32.3034C13.0619 32.3034 12.4202 32.6379 12.801 33.0429C13.1819 33.4479 14.2776 34.3807 12.4671 35C12.2538 34.7053 12.0785 34.3849 11.9454 34.0462C11.7919 33.6252 11.6647 33.1949 11.5645 32.7581C11.5645 32.7581 11.3975 30.9421 11.0636 30.7043C10.7297 30.4666 10.7767 29.3195 10.7767 29.3195C10.7767 29.3195 11.2541 28.3893 10.5862 28.013C9.91839 27.6368 0.245219 22.2646 0.245219 22.2646L0.0104344 15.1261C0.0104344 15.1261 -0.156521 9.85068 0.845231 8.08435C0.779826 7.68725 0.7958 7.28096 0.892187 6.89025C1.05915 6.46173 0.868709 5.07689 0.868709 5.07689L1.50002 0Z" fill="#3F3D56"/>
</svg>
