<svg width="17" height="23" viewBox="0 0 17 23" fill="none" xmlns="http://www.w3.org/2000/svg">
<path d="M16.9379 4.10302C16.9763 3.70298 16.6179 3.33371 16.2108 3.07727C15.782 2.85718 15.3704 2.60516 14.9793 2.32334C14.6157 2.00792 14.416 1.59762 14.0525 1.2822C13.6392 0.967001 13.1701 0.732947 12.6699 0.592373C11.6061 0.218799 10.4892 0.0187942 9.36202 0C8.2227 0 7.05776 0.256444 6.20007 0.838561C5.98845 0.97184 5.80563 1.14623 5.66241 1.35144C5.52717 1.59762 5.44026 1.86746 5.40638 2.14639C5.20201 3.0068 4.92537 3.84835 4.57941 4.66206C4.22353 5.56729 3.8446 6.50585 3.00739 7.20593C2.11129 7.95217 0.741535 8.383 0.150109 9.28566C0.084704 9.36587 0.0388528 9.46023 0.0161881 9.56128C-0.00647658 9.66232 -0.00532617 9.76725 0.01954 9.86777C0.104029 10.096 0.375419 10.2524 0.626327 10.396C2.08057 11.232 3.3351 12.3168 3.9803 13.6118C4.62549 14.9068 4.60757 16.4326 3.68843 17.625C3.35047 18.0661 2.8845 18.5893 3.21477 19.0329C3.72683 19.7073 5.43966 19.3201 5.83907 20.033C5.96452 20.2612 5.89027 20.5202 5.89027 20.769C5.89027 21.5178 6.60972 22.182 7.48277 22.5282C8.35583 22.8744 9.36714 22.9564 10.3503 23C10.6113 22.4124 10.637 21.7468 10.422 21.1408C10.3565 21.0101 10.3307 20.863 10.3477 20.7177C10.421 20.5563 10.5348 20.4167 10.678 20.3125C11.7277 19.3176 11.505 17.8559 10.8752 16.6737C10.2453 15.4915 9.26217 14.4119 8.89605 13.1681C8.71427 12.5501 8.71427 11.8552 9.20329 11.3423C9.48397 11.0956 9.78648 10.875 10.1071 10.6832C10.6798 10.2939 11.1208 9.73943 11.3718 9.09333C11.6663 8.27529 11.6279 7.29825 12.483 6.74691C13.3049 6.23403 14.4596 6.38277 15.3685 6.03145C16.0674 5.7545 16.8816 4.69027 16.9379 4.10302Z" fill="#464353"/>
</svg>
