<svg width="8" height="3" viewBox="0 0 8 3" fill="none" xmlns="http://www.w3.org/2000/svg">
<path d="M2.68801 0.106018C3.0443 0.0724 3.40317 0.106018 3.76204 0.106018C4.18288 0.106018 4.59856 0.00258596 5.0194 0C5.68582 0.0108884 6.33133 0.234797 6.86174 0.639057C7.39215 1.04332 7.7797 1.60677 7.96784 2.2472C8.00329 2.34948 8.00955 2.45963 7.98591 2.56527C7.97202 2.61743 7.93986 2.66284 7.8953 2.69323C7.85075 2.72361 7.79677 2.73695 7.74322 2.73078C7.60351 2.34833 7.42074 1.98307 7.19845 1.64208C6.79829 1.09495 6.22794 0.696518 5.57707 0.509427C4.92813 0.325269 4.24445 0.300441 3.5839 0.437028C3.30764 0.488748 3.03913 0.561144 2.77062 0.636137L1.47971 0.993001C1.24218 1.05765 1.00208 1.1223 0.772293 1.20764C0.594147 1.27488 0.289495 1.52054 0.113931 1.53089C-0.123597 1.53089 0.0674527 1.324 0.173308 1.18436C0.384105 0.896389 0.67918 0.681284 1.01757 0.568899C1.55409 0.348815 2.11484 0.193434 2.68801 0.106018Z" fill="#1A0161"/>
</svg>
