<svg width="30" height="25" viewBox="0 0 30 25" fill="none" xmlns="http://www.w3.org/2000/svg">
<path d="M2.48472 5.96392C2.51725 6.37767 2.46205 6.79363 2.32275 7.1845C2.14793 7.56046 1.70572 7.85144 1.32265 7.69951C1.43834 7.44201 1.12983 7.13557 0.844458 7.16905C0.703304 7.20051 0.57194 7.26596 0.461736 7.35974C0.351532 7.45352 0.265806 7.5728 0.212001 7.70724C0.0202557 8.08987 -0.0437219 8.52405 0.0294745 8.94585C0.119457 9.46086 0.422821 9.97587 0.343122 10.4909C0.278848 10.9286 -0.0425081 11.3664 0.129745 11.7784C0.240498 11.9635 0.37926 12.1303 0.541089 12.2728C0.767063 12.5504 0.87787 12.9043 0.850594 13.2614C0.823317 13.6185 0.660042 13.9514 0.394544 14.1912L4.70859 14.2762C4.55176 14.9998 4.87312 15.7389 5.24333 16.38C6.27933 18.1424 7.70853 19.6406 9.41904 20.7575C11.1295 21.8743 13.0749 22.5795 15.1029 22.8177C14.9935 22.8825 14.8997 22.9707 14.8283 23.076C14.7569 23.1814 14.7097 23.3012 14.69 23.427C14.6704 23.5528 14.6788 23.6814 14.7146 23.8035C14.7504 23.9257 14.8128 24.0384 14.8972 24.1336C15.2469 24.4812 15.8407 24.4374 16.2804 24.2108C16.72 23.9842 17.0671 23.6108 17.4682 23.3224C18.1756 22.8175 19.0404 22.5836 19.9054 22.6632C20.4453 22.7147 20.9698 22.8898 21.5123 22.9207C23.1114 23.0057 24.4843 21.8546 26.014 21.3757C27.1349 21.0306 28.4024 21.0306 29.3562 20.3302C29.7624 20.0289 30.094 19.5345 29.9758 19.0427C29.8754 18.7604 29.7169 18.5024 29.5104 18.2856C28.968 17.5852 28.6492 16.7406 28.2635 15.9449C27.4944 14.3678 26.4365 12.9493 25.145 11.763C24.1721 10.9088 23.1412 10.1233 22.0599 9.41193C21.7966 9.21524 21.5161 9.04286 21.2217 8.89692C20.829 8.7688 20.4459 8.61305 20.0751 8.43084C19.5609 8.11153 19.2755 7.54759 18.8873 7.0918C18.0312 6.09268 16.7174 5.63175 15.6634 4.84635C14.9564 4.33134 14.3342 3.62576 13.4883 3.37083C13.0796 3.24723 12.6425 3.23693 12.2311 3.11333C11.3005 2.83007 10.6218 2.0009 9.7065 1.66614C8.98149 1.40864 8.18449 1.47044 7.41835 1.37516C6.57563 1.27048 5.77049 0.963995 5.07109 0.481622C4.83891 0.294179 4.5786 0.144688 4.2998 0.0387037C3.14545 -0.31408 3.05033 1.84126 2.94235 2.5906C2.7701 3.7365 2.48472 4.83862 2.48472 5.96392Z" fill="#1A0161"/>
</svg>
