<svg width="10" height="37" viewBox="0 0 10 37" fill="none" xmlns="http://www.w3.org/2000/svg">
<path opacity="0.05" d="M4.97076 1.71406C4.32203 1.92366 4.03952 2.73326 4.15985 3.40661C4.28018 4.07996 4.68301 4.66161 5.01522 5.25898C5.96216 6.95414 6.37023 8.89297 7.16545 10.6615C7.75925 11.9715 8.56231 13.2029 9.14826 14.5287C9.73421 15.8544 10.0978 17.3504 9.74206 18.7574C9.56941 19.4412 9.23458 20.0674 9.01223 20.7408C8.79215 21.4706 8.64838 22.2213 8.58324 22.9809C8.29518 25.5611 8.24352 28.1623 8.42891 30.7519C8.43051 31.0676 8.49637 31.3796 8.62248 31.6689C8.75588 31.9309 8.98608 32.193 8.88406 32.455C8.83959 32.5624 8.7428 32.641 8.69572 32.7458C8.5597 33.0392 8.83174 33.351 9.08025 33.5606C9.03586 33.6394 8.9762 33.7085 8.90478 33.7638C8.83335 33.8191 8.7516 33.8596 8.66433 33.8829C8.84258 33.9966 8.97953 34.1647 9.05491 34.3624C9.13029 34.5601 9.1401 34.7769 9.08287 34.9807C8.86314 35.0147 8.85005 35.3527 8.98869 35.5309C9.12733 35.709 9.34706 35.8191 9.44647 36.0208C9.50499 36.1852 9.49859 36.3657 9.42856 36.5254C9.35853 36.6852 9.23018 36.8121 9.06978 36.8802C8.74299 37.0062 8.38651 37.0335 8.04438 36.9588C7.46432 36.8779 6.89144 36.7518 6.33099 36.5815C6.03802 36.5239 5.77565 36.3623 5.59208 36.1264C5.40851 35.8906 5.31607 35.5963 5.33175 35.2977C5.20221 34.2313 5.16283 33.1559 5.21403 32.0829C5.30559 26.8847 5.21404 21.6814 4.98907 16.4858C4.89752 14.3898 4.26971 12.3593 3.46141 10.4309C3.0146 9.44549 2.51782 8.48355 1.97301 7.54889C0.806339 5.41094 -0.224305 3.04242 0.0425108 0.618885C0.0712851 0.356881 0.165453 0.0451032 0.424422 0.00318256C0.525646 -0.00771455 0.627913 0.00949281 0.720013 0.0529479C1.25738 0.304303 1.77735 0.59141 2.27644 0.912328C3.09655 1.39398 4.02112 1.66909 4.97076 1.71406Z" fill="black"/>
</svg>
