<svg width="16" height="12" viewBox="0 0 16 12" fill="none" xmlns="http://www.w3.org/2000/svg">
<path d="M1.41222 4.48995L1.28739 3.44797C2.17165 3.67721 3.00909 2.92699 3.57346 2.1455C4.13783 1.36402 4.66318 0.447089 5.52404 0.124076C6.56435 -0.271875 7.67748 0.361119 8.67617 0.882107C9.79582 1.50621 11.0249 1.90861 12.2964 2.06736C12.4993 2.07424 12.7004 2.10752 12.8946 2.16635C13.5448 2.39819 13.8543 3.20832 13.9479 3.95594C14.0416 4.70356 14.0156 5.48504 14.3381 6.1467C14.5799 6.64685 14.9986 7.01935 15.2535 7.51168C15.9375 8.8402 15.2769 10.6532 16 11.9557L14.2054 10.3068C14.039 10.1557 13.8075 9.9994 13.628 10.127C13.4486 10.2547 13.4746 10.4475 13.4148 10.622C13.2405 11.143 12.6033 11.2888 12.1378 11.0883C11.6723 10.8877 11.3368 10.4448 10.9961 10.0463C10.2028 9.10851 9.25874 8.28535 8.13521 7.88419C7.64897 7.69744 7.12852 7.61686 6.60868 7.64786C6.08884 7.67886 5.5816 7.82071 5.12092 8.06393C4.28347 8.53803 3.66968 9.64253 2.64498 9.6816C1.23796 9.7337 0.652794 7.11052 0 6.07375C0.237677 5.89359 0.404789 5.63569 0.472263 5.3449C0.539737 5.0541 0.5033 4.74881 0.369305 4.48214C0.483739 4.43785 1.39401 4.32063 1.41222 4.48995Z" fill="#464353"/>
</svg>
