<svg width="301" height="185" viewBox="0 0 301 185" fill="none" xmlns="http://www.w3.org/2000/svg">
<path opacity="0.1" d="M300.311 118.824C300.316 123.837 299.711 128.831 298.508 133.697C298.104 135.335 297.634 136.941 297.099 138.514C296.443 140.453 295.683 142.356 294.824 144.214C294.391 145.152 293.933 146.073 293.45 146.977C293.458 152.117 292.401 157.203 290.347 161.914C286.632 170.364 280.011 177.198 271.688 181.169C266.478 183.658 260.784 184.966 255.011 185H57.0133C48.2033 185.019 39.5452 182.702 31.9194 178.283C30.7924 177.63 29.6944 176.933 28.6252 176.194C26.3038 174.588 24.1228 172.787 22.1057 170.811C19.375 168.136 16.9693 165.147 14.9386 161.906C10.1676 154.318 7.64017 145.532 7.64903 136.565C2.81739 128.074 0 117.902 0 106.972C0 93.1818 4.47723 80.602 11.833 71.079C13.3666 69.0894 15.0464 67.2174 16.8585 65.4786C18.6464 63.7579 20.5681 62.1824 22.6054 60.7669C24.2348 59.6323 25.9385 58.6085 27.7048 57.7024C28.4416 57.3244 29.181 56.972 29.9332 56.6426C30.5936 56.3489 31.2616 56.0756 31.9372 55.8177C32.748 55.5078 33.569 55.2244 34.4002 54.9673C35.2314 54.7102 36.0516 54.4838 36.8607 54.288C38.0505 53.9969 39.2608 53.7602 40.4914 53.578C41.5113 53.4274 42.5312 53.3227 43.551 53.241C44.3618 53.1831 45.1794 53.149 46.0038 53.1388H46.45C47.3577 53.1388 48.2603 53.1746 49.1552 53.2358C49.2496 53.0469 49.3515 52.8553 49.4459 52.6664C49.8028 51.9871 50.1725 51.3077 50.5448 50.6412V50.6233C50.6085 50.5084 50.6723 50.3935 50.7386 50.2811C51.0394 49.7372 51.353 49.1983 51.6743 48.6646C51.8222 48.4092 51.9675 48.1692 52.1179 47.9266C52.1511 47.8678 52.1842 47.8116 52.2225 47.7529C52.3755 47.4975 52.531 47.2422 52.6891 46.9868C53.4761 45.7286 54.2945 44.4901 55.1444 43.2711C55.2183 43.1664 55.2872 43.0642 55.3611 42.9621C55.4937 42.7731 55.6161 42.5867 55.764 42.4002C56.1158 41.9074 56.4779 41.4119 56.8425 40.9242C57.0975 40.5794 57.3524 40.2346 57.6278 39.9026C58.2907 39.0446 58.9715 38.1916 59.6675 37.3489C60.3636 36.5061 61.0979 35.6583 61.8398 34.8283C61.9418 34.7134 62.0438 34.601 62.1509 34.4861L63.2396 33.2986C63.2932 33.2424 63.3391 33.1914 63.3901 33.1403C63.5201 32.9998 63.645 32.8594 63.7852 32.7215C64.3691 32.1035 64.9683 31.4931 65.57 30.8904C68.6435 27.8316 71.9178 24.9821 75.371 22.3608C75.5061 22.2536 75.6438 22.1514 75.7789 22.0493C76.4265 21.559 77.0844 21.0763 77.7422 20.6013C81.3611 18.0023 85.1432 15.6395 89.0653 13.5274C89.3356 13.3742 89.6109 13.2286 89.8888 13.083C93.406 11.2206 97.0227 9.55306 100.722 8.08787C102.738 7.28939 104.79 6.54369 106.877 5.85077C108.259 5.39876 109.646 4.96717 111.051 4.57389C113.223 3.94907 115.423 3.38554 117.65 2.8833C124.21 1.40898 130.884 0.498233 137.598 0.16099C139.638 0.0537324 141.701 0.000104067 143.786 0.000104067C153.85 -0.0132403 163.874 1.25683 173.618 3.77967C173.718 3.93215 173.856 4.05646 174.018 4.1409C174.18 4.22534 174.361 4.26712 174.543 4.26233H175.4C175.772 4.36193 176.142 4.46663 176.514 4.57389C178.593 5.17488 180.642 5.82949 182.661 6.53774L183.171 6.72161C188.155 8.49668 193.005 10.6304 197.681 13.106C201.897 15.3332 205.956 17.8451 209.831 20.6243C210.427 21.0533 211.015 21.4866 211.595 21.9242C212.299 21.4696 213.014 21.0363 213.742 20.6243C216.552 19.0225 219.535 17.7492 222.635 16.8294C229.116 14.9085 235.973 14.6399 242.584 16.0479C251.062 17.8484 258.736 22.3174 264.934 28.6738C267.459 31.2661 269.708 34.1144 271.645 37.1727C271.785 37.3923 271.926 37.6145 272.061 37.8392C273.722 40.5552 275.15 43.4078 276.329 46.3662C276.372 46.4735 276.416 46.5782 276.454 46.6854C277.542 49.454 278.42 52.3011 279.08 55.2022C279.111 55.3478 279.146 55.4959 279.177 55.644C279.794 58.4517 280.213 61.2994 280.431 64.166C280.431 64.2681 280.431 64.3728 280.452 64.4775C280.559 65.9604 280.613 67.4594 280.615 68.9747C280.615 70.3282 280.569 71.6715 280.485 73.002C280.485 73.1475 280.464 73.3008 280.452 73.4489C280.429 73.837 280.396 74.215 280.362 74.6057C282.31 76.1781 284.132 77.8994 285.814 79.7541C286.556 80.5662 287.275 81.4098 287.971 82.2849C290.089 84.9427 291.95 87.7962 293.529 90.8068C297.833 98.9737 300.311 108.561 300.311 118.824Z" fill="#1A0161"/>
</svg>
