<svg width="16" height="6" viewBox="0 0 16 6" fill="none" xmlns="http://www.w3.org/2000/svg">
<path d="M5.41007 2.52904C4.0569 3.35345 2.37344 3.40681 0.801852 3.21204C0.535481 3.18269 0.250467 3.16402 0.0879802 3.35878C-0.146426 3.64425 0.130594 4.06045 0.415611 4.2899C1.34416 4.9861 2.43387 5.43499 3.58277 5.59455C4.6082 5.73784 5.64265 5.80648 6.67799 5.79997C9.50153 5.84799 12.341 5.89602 15.1379 5.48782C15.2994 5.47568 15.4565 5.4293 15.5988 5.35175C15.7793 5.22553 15.9043 5.03439 15.9477 4.81815C16.1422 4.09246 15.7719 3.30808 15.2152 2.80383C14.6585 2.29959 13.9419 2.01678 13.2414 1.73664L10.7854 0.778831C10.2074 0.552053 9.2831 -0.0428993 8.65446 0.00245633C7.5064 0.0958356 6.38498 1.95809 5.41007 2.52904Z" fill="#3F3D56"/>
</svg>
