<svg width="17" height="45" viewBox="0 0 17 45" fill="none" xmlns="http://www.w3.org/2000/svg">
<path opacity="0.05" d="M1.7947 13.4268C0.813053 14.7386 -0.207039 16.2507 0.0364511 17.8782C0.167167 18.7511 0.656712 19.5238 1.01554 20.3324C1.46439 21.4451 1.7968 22.6014 2.00744 23.7827C2.37652 25.5001 2.7456 27.2227 2.97115 28.9658C3.22746 30.9348 2.02282 36.6339 1.91004 38.6183C1.88185 39.0933 1.82803 39.6144 1.49483 39.9558C1.36411 40.0919 1.18982 40.2125 1.13343 40.3794C1.09455 40.5542 1.12197 40.7372 1.21033 40.8928C1.76652 42.1456 2.90194 43.0801 4.16296 43.6115C5.42398 44.1429 8.49197 44.6383 9.86064 44.682C10.0424 44.7039 10.2267 44.6792 10.3963 44.6101C10.5811 44.4994 10.7263 44.3332 10.8115 44.1352C11.8009 42.2432 10.85 35.9356 10.8654 33.7998C10.8654 32.0027 11.2985 30.2442 11.2216 28.4626C11.1575 27.0327 10.7756 25.6388 10.6372 24.2114C10.4091 21.8727 10.8372 19.5264 11.2678 17.2185C11.5958 15.4471 11.9239 13.6758 12.3442 11.925C12.6005 10.8596 12.8978 9.78141 13.4848 8.8444C13.9487 8.11019 14.5792 7.49407 15.1098 6.80607C16.5785 4.87459 17.2311 2.44261 16.927 0.033895C16.8962 -0.204851 13.513 0.891321 13.2182 1.02225C12.0032 1.53981 10.8857 2.26224 9.91445 3.15813C9.14554 3.90517 8.51759 4.90123 7.83069 5.72529C6.86186 6.90618 5.90584 8.09734 4.96263 9.29877C3.89128 10.6679 2.8353 12.0439 1.7947 13.4268Z" fill="black"/>
</svg>
