<svg width="21" height="18" viewBox="0 0 21 18" fill="none" xmlns="http://www.w3.org/2000/svg">
<path d="M19.2543 0.0714353C19.2543 0.0714353 21.458 -0.567345 20.9135 5.69321C20.5365 9.51614 18.914 13.1086 16.2963 15.9163C16.2963 15.9163 11.6064 17.9806 9.49872 17.6482C7.39102 17.3159 5.85107 17.238 5.85107 17.238C5.18798 16.9019 4.46215 16.7082 3.72002 16.6693C2.53525 16.62 0.0490356 15.8903 0.00237049 15.6488C-0.0442946 15.4073 0.616794 11.9252 0.334211 11.6629C0.334211 11.6629 3.65003 11.8006 3.98187 12.0394C4.31371 12.2783 4.78555 12.107 5.14072 12.0394C5.49589 11.9719 6.58474 11.0242 8.74171 11.8525C8.74171 11.8525 9.47539 11.9252 9.75797 11.7356C9.99056 11.628 10.2547 11.6104 10.4994 11.6863C10.6832 11.6235 10.8576 11.5362 11.0179 11.4266C11.0879 11.3306 11.6557 11.4266 11.6557 11.4266C11.6896 11.4418 11.7264 11.4495 11.7636 11.4492C11.8008 11.4489 11.8375 11.4406 11.8712 11.4248C11.9049 11.4091 11.9348 11.3862 11.9589 11.3579C11.983 11.3295 12.0007 11.2963 12.0109 11.2605C12.0858 11.0669 12.1987 10.8904 12.3427 10.7411C12.3427 10.7411 12.983 7.13695 14.1912 5.78409C14.2876 5.69965 14.3617 5.59265 14.407 5.47261C14.4522 5.35256 14.4671 5.22318 14.4504 5.09597C14.3545 4.72205 16.4129 -0.679 19.2543 0.0714353Z" fill="#3F3D56"/>
</svg>
