<svg width="9" height="10" viewBox="0 0 9 10" fill="none" xmlns="http://www.w3.org/2000/svg">
<path d="M4.75836 0L3.46039 0.403013C3.49356 0.53414 3.48654 0.67224 3.44023 0.799313C3.39393 0.926386 3.3105 1.03655 3.20079 1.11545C3.08786 1.19439 2.99784 1.30192 2.93992 1.42707C2.88201 1.55223 2.85826 1.69053 2.87111 1.82787C2.87111 1.82787 2.72833 2.34789 2.39605 2.4701C2.06377 2.5923 1.8509 3.37233 1.8509 3.37233L0.760609 4.63078C0.760609 4.63078 0.355643 4.9636 0.428329 5.13001C0.501015 5.29641 0 5.34321 0 5.34321L0.259594 9.57098L2.51287 10L3.91208 9.85699L5.0491 9.43057L6.04595 8.83516L6.49505 7.67291L8.48873 4.63078L4.75836 0Z" fill="#3F3D56"/>
</svg>
