<svg width="10" height="11" viewBox="0 0 10 11" fill="none" xmlns="http://www.w3.org/2000/svg">
<path d="M4.07421 0.072005C3.24475 0.120875 2.33397 0.202318 1.74846 0.794189C1.5046 1.06602 1.30682 1.37601 1.16297 1.71186C0.596442 2.87117 0.0434594 4.08205 0.00279948 5.37168C-0.0324391 6.40338 0.273862 7.41065 0.422948 8.4315C0.55306 9.27858 0.22236 10.142 0.151882 10.9999C1.17922 10.685 2.53456 10.256 3.46703 9.72384C4.07792 9.32344 4.72716 8.98509 5.40514 8.71385C6.39453 8.38533 8.05617 8.95006 8.98864 9.41433C9.04014 8.75186 8.5468 7.60342 8.5983 6.94096C8.60653 6.6637 8.65586 6.3892 8.74467 6.12646C8.8851 5.84821 9.05118 5.58369 9.24073 5.33638C9.60025 4.75362 9.76588 4.07162 9.71375 3.38857C9.66163 2.70552 9.39446 2.05665 8.95069 1.53538C8.11851 0.595988 6.81198 0.243044 5.56779 0.0991484C4.78344 0.00741906 3.99296 -0.0207268 3.20409 0.0149839" fill="#1A0161"/>
</svg>
