<svg width="22" height="47" viewBox="0 0 22 47" fill="none" xmlns="http://www.w3.org/2000/svg">
<path d="M4.89751 5.07605C5.11361 6.10673 6.09891 6.87974 6.12978 7.91042C6.15294 8.74527 5.5561 9.45644 5.12905 10.165C4.72101 10.9074 4.37676 11.6832 4.10002 12.4841C3.28812 14.5627 2.28207 16.5599 1.09525 18.4491C0.524141 19.3535 -0.113859 20.3378 0.0173425 21.402C0.107179 21.8986 0.281195 22.3762 0.531858 22.8141L2.24263 26.2179C2.61839 26.8977 2.91201 27.62 3.11729 28.3694C3.26393 29.0162 3.27937 29.6861 3.37455 30.3457C3.64467 32.4329 4.62225 34.5354 4.04599 36.5582C3.99454 36.7334 3.81446 36.9447 3.67811 36.8158C4.24151 37.8723 4.70715 38.939 4.65313 40.1372C4.62998 40.7659 4.43702 41.4255 4.67112 42.0079C4.8036 42.2346 4.89096 42.4848 4.92838 42.7448C4.92838 42.9149 4.84864 43.0772 4.83064 43.2602C4.78433 43.742 5.22423 44.144 5.68472 44.2908C6.14521 44.4377 6.64172 44.4326 7.10478 44.5717C7.99747 44.8294 8.63033 45.6024 9.39438 46.1383C10.1681 46.6758 11.0822 46.9741 12.0235 46.9964C12.157 47.0106 12.2917 46.9836 12.4094 46.9191C12.4769 46.8604 12.5311 46.788 12.5683 46.7067C12.6056 46.6253 12.6251 46.537 12.6255 46.4475C12.6666 46.0208 12.6021 45.5905 12.4379 45.1947C12.2737 44.7988 12.0148 44.4494 11.684 44.1775C11.5402 44.0856 11.421 43.96 11.3367 43.8116C11.2932 43.6796 11.2818 43.5392 11.3032 43.4019C11.4422 41.5286 11.4086 39.6466 11.2029 37.7795C11.1101 37.1883 11.08 36.5889 11.1129 35.9913C11.1643 35.494 11.3135 34.9993 11.2569 34.502C11.2003 34.0047 10.9508 33.5563 10.8016 33.077C10.5443 32.2267 10.6112 31.3146 10.5829 30.423C10.5366 28.877 10.1842 27.3619 9.83172 25.8571C9.69538 25.2671 9.54102 24.6461 9.12169 24.208C8.76668 23.837 8.19298 23.4788 8.32676 22.9841C8.3998 22.801 8.5102 22.6351 8.65091 22.4971C8.8168 22.2894 8.93865 22.0499 9.00898 21.7934C9.07932 21.5369 9.09666 21.2687 9.05995 21.0052C9.21041 21.0453 9.37014 21.0311 9.51122 20.9652C9.6523 20.8992 9.76575 20.7857 9.83172 20.6445C12.6127 19.3329 14.8611 16.7047 15.8515 13.7879C15.9071 13.5728 15.9938 13.3671 16.1088 13.1772C16.3661 12.8165 16.8137 12.6618 17.2099 12.4609C18.455 11.8347 19.3168 10.6572 20.1066 9.5054C20.5671 8.83546 21.025 8.1449 21.2231 7.35901C21.3313 6.85095 21.3831 6.33245 21.3774 5.81299L21.4469 3.12807C21.4609 2.95459 21.4434 2.78001 21.3954 2.61273C21.33 2.45248 21.2318 2.30767 21.1073 2.18757C20.3529 1.38296 19.3613 0.841204 18.2775 0.64155C17.5469 0.510138 16.8008 0.535914 16.0625 0.474074C14.6296 0.355546 13.2146 -0.0876542 11.7817 0.0154137C9.52815 0.180322 7.52411 1.74438 6.46164 3.74133C6.08862 4.45507 5.69758 5.07605 4.89751 5.07605Z" fill="#464353"/>
</svg>
