<svg width="11" height="7" viewBox="0 0 11 7" fill="none" xmlns="http://www.w3.org/2000/svg">
<path d="M0.119446 6.05336C0.223178 6.30892 0.394072 6.53158 0.61398 6.69768C0.833888 6.86379 1.0946 6.96714 1.36844 6.99677C1.50393 7.00517 1.63994 6.99736 1.77359 6.97351C2.99935 6.76157 5.8741 6.26531 6.88826 6.45657C7.49727 6.56772 8.62497 6.39971 9.42753 6.2498C9.9617 6.149 10.3539 6.05336 10.3539 6.05336C10.3539 6.05336 9.40946 2.91295 9.29333 2.8199C9.17721 2.72686 5.04832 0.235208 5.04832 0.235208L1.78133 0C1.34149 0.065859 0.944005 0.299187 0.67169 0.651348C0.328475 1.07007 0.0317038 1.75501 0.0110593 2.87936C-0.0431324 5.64756 0.119446 6.05336 0.119446 6.05336Z" fill="#3F3D56"/>
</svg>
