<svg width="8" height="12" viewBox="0 0 8 12" fill="none" xmlns="http://www.w3.org/2000/svg">
<path d="M5.67991 7.772H2.16391C2.16391 7.308 2.23591 6.932 2.37991 6.644C2.53191 6.348 2.71991 6.108 2.94391 5.924C3.16791 5.74 3.38791 5.58 3.60391 5.444C3.82791 5.308 4.01191 5.168 4.15591 5.024C4.30791 4.88 4.38391 4.696 4.38391 4.472V4.22C4.38391 4.164 4.37991 4.104 4.37191 4.04C4.37191 3.976 4.34391 3.92 4.28791 3.872C4.23991 3.816 4.14391 3.788 3.99991 3.788C3.85591 3.788 3.75991 3.816 3.71191 3.872C3.66391 3.92 3.63591 3.976 3.62791 4.04C3.62791 4.104 3.62791 4.164 3.62791 4.22V4.976H0.219906V3.608C0.219906 3.272 0.283906 2.948 0.411906 2.636C0.547906 2.324 0.763906 2.044 1.05991 1.796C1.35591 1.548 1.75191 1.352 2.24791 1.208C2.75191 1.056 3.37191 0.98 4.10791 0.98C4.84391 0.98 5.44791 1.056 5.91991 1.208C6.39991 1.352 6.77591 1.548 7.04791 1.796C7.31991 2.044 7.50791 2.324 7.61191 2.636C7.72391 2.948 7.77991 3.272 7.77991 3.608V4.52C7.77991 4.936 7.71191 5.272 7.57591 5.528C7.43991 5.776 7.27191 5.98 7.07191 6.14C6.87191 6.3 6.66791 6.452 6.45991 6.596C6.25991 6.732 6.08391 6.892 5.93191 7.076C5.78791 7.252 5.70391 7.484 5.67991 7.772ZM5.51191 9.176V10.136C5.51191 10.44 5.38791 10.7 5.13991 10.916C4.89191 11.132 4.49591 11.24 3.95191 11.24C3.41591 11.24 3.01991 11.128 2.76391 10.904C2.50791 10.68 2.37991 10.416 2.37991 10.112V9.164C2.37991 8.86 2.50791 8.596 2.76391 8.372C3.01991 8.148 3.41591 8.036 3.95191 8.036C4.49591 8.036 4.89191 8.144 5.13991 8.36C5.38791 8.576 5.51191 8.848 5.51191 9.176Z" fill="#272727"/>
</svg>
