<svg width="61" height="60" viewBox="0 0 61 60" fill="none" xmlns="http://www.w3.org/2000/svg">
<mask id="mask0_345_1233" style="mask-type:luminance" maskUnits="userSpaceOnUse" x="0" y="0" width="61" height="60">
<path d="M0.5 0.000171661H60.4998V60H0.5V0.000171661Z" fill="white"/>
</mask>
<g mask="url(#mask0_345_1233)">
<path d="M48.5196 22.8233L41.5008 7.97412C39.5084 3.81702 35.3072 1.17199 30.6973 1.17199H30.3006C25.6907 1.17199 21.4897 3.81702 19.4972 7.97412L12.4775 22.8264C12.4775 22.8264 18.5576 11.5721 30.499 11.5575C42.4404 11.5721 48.5196 22.8233 48.5196 22.8233Z" fill="#8AA7F5"/>
<path d="M48.7579 24.5252C48.7579 26.9247 47.3769 29.1088 45.2098 30.1365L33.5145 35.664C32.5618 36.1142 31.521 36.3473 30.4672 36.3462C29.4135 36.3451 28.3731 36.11 27.4213 35.6578L15.788 30.1365C14.7266 29.6325 13.8296 28.8382 13.201 27.8455C12.7343 27.1068 12.4286 26.2779 12.3039 25.4131C12.1792 24.5483 12.2382 23.6668 12.4771 22.8264C13.6659 20.6538 19.8911 11.5712 30.4981 11.5573C41.0958 11.5712 47.2743 20.5806 48.5192 22.8233C48.6772 23.3768 48.7575 23.9496 48.7579 24.5252Z" fill="#838EB1"/>
<path d="M58.6498 58.8281H2.34961L3.97265 46.0899C4.2111 44.2242 4.85063 42.4323 5.84731 40.8373C6.84398 39.2422 8.17417 37.8819 9.74646 36.8497L18.2601 31.2669L27.512 35.6579C28.4639 36.1102 29.5044 36.3453 30.5582 36.3464C31.6121 36.3474 32.653 36.1142 33.6058 35.6637L42.8178 31.3102L51.2518 36.8426C52.8247 37.8739 54.1553 39.2339 55.1521 40.8289C56.1489 42.4239 56.7881 44.2159 57.0257 46.0817L58.6498 58.8281Z" fill="#8AA7F5"/>
<path d="M39.1796 13.7545V22.4099C39.1796 27.204 35.2936 31.09 30.4995 31.09C25.7054 31.09 21.8193 27.204 21.8193 22.4099V13.7615C24.2662 12.4607 27.1654 11.5619 30.4983 11.5572C33.8357 11.5619 36.735 12.4584 39.1796 13.7545Z" fill="#FFD0C6"/>
</g>
</svg>
