<svg width="61" height="60" viewBox="0 0 61 60" fill="none" xmlns="http://www.w3.org/2000/svg">
<path d="M14.915 15.1484C14.4296 15.1484 14.0361 14.7507 14.0361 14.26V2.95493C14.0361 2.46426 14.4296 2.06653 14.915 2.06653C15.4004 2.06653 15.7939 2.46426 15.7939 2.95493V14.26C15.7939 14.7507 15.4004 15.1484 14.915 15.1484ZM23.792 15.1484C23.3066 15.1484 22.9131 14.7507 22.9131 14.26V2.95493C22.9131 2.46426 23.3066 2.06653 23.792 2.06653C24.2774 2.06653 24.6709 2.46426 24.6709 2.95493V14.26C24.6709 14.7507 24.2774 15.1484 23.792 15.1484Z" fill="#DDDAEC"/>
<path d="M25.7381 4.01742H12.9689C12.778 4.01742 12.5949 3.94158 12.4599 3.80657C12.3249 3.67157 12.249 3.48846 12.249 3.29754V0.719883C12.249 0.528958 12.3249 0.345853 12.4599 0.210849C12.5949 0.0758446 12.778 0 12.9689 0L25.7381 0C25.929 0 26.1122 0.0758446 26.2472 0.210849C26.3822 0.345853 26.458 0.528958 26.458 0.719883V3.29766C26.4579 3.48855 26.3821 3.67161 26.2471 3.80658C26.1121 3.94155 25.929 4.01739 25.7381 4.01742Z" fill="#4A80AA"/>
<path d="M25.7381 0H24.6471V1.48664C24.6471 1.67757 24.5713 1.86067 24.4363 1.99567C24.3013 2.13068 24.1182 2.20652 23.9272 2.20652H12.249V3.29754C12.249 3.48846 12.3249 3.67157 12.4599 3.80657C12.5949 3.94158 12.778 4.01742 12.9689 4.01742H25.7381C25.929 4.01742 26.1122 3.94158 26.2472 3.80657C26.3822 3.67157 26.458 3.48846 26.458 3.29754V0.719883C26.458 0.528967 26.3821 0.345881 26.2471 0.210883C26.1121 0.0758856 25.929 3.10709e-05 25.7381 0Z" fill="#407093"/>
<path d="M10.4765 59.1387C12.5611 59.1387 14.2509 57.4307 14.2509 55.3237C14.2509 53.2167 12.5611 51.5087 10.4765 51.5087C8.39199 51.5087 6.70215 53.2167 6.70215 55.3237C6.70215 57.4307 8.39199 59.1387 10.4765 59.1387Z" fill="#4A80AA"/>
<path d="M12.2805 51.9724C12.5827 52.5329 12.7404 53.1598 12.7393 53.7966C12.7393 55.9035 11.0495 57.6116 8.96496 57.6116C8.3338 57.6123 7.71279 57.4528 7.16016 57.1479C7.80023 58.3339 9.045 59.1388 10.4757 59.1388C12.5603 59.1388 14.2501 57.4308 14.2501 55.3237C14.2502 53.8775 13.4541 52.6194 12.2805 51.9724Z" fill="#407093"/>
<path d="M10.4766 56.3898C11.0591 56.3898 11.5312 55.9125 11.5312 55.3237C11.5312 54.735 11.0591 54.2577 10.4766 54.2577C9.89407 54.2577 9.42188 54.735 9.42188 55.3237C9.42188 55.9125 9.89407 56.3898 10.4766 56.3898Z" fill="#F9F6F6"/>
<path d="M28.2304 59.1387C30.315 59.1387 32.0048 57.4307 32.0048 55.3237C32.0048 53.2167 30.315 51.5087 28.2304 51.5087C26.1459 51.5087 24.4561 53.2167 24.4561 55.3237C24.4561 57.4307 26.1459 59.1387 28.2304 59.1387Z" fill="#4A80AA"/>
<path d="M30.0345 51.9724C30.3366 52.5329 30.4943 53.1598 30.4932 53.7966C30.4932 55.9035 28.8034 57.6116 26.7189 57.6116C26.0877 57.6124 25.4667 57.4528 24.9141 57.1479C25.5541 58.3339 26.7989 59.1388 28.2296 59.1388C30.3142 59.1388 32.004 57.4308 32.004 55.3237C32.0041 53.8775 31.208 52.6194 30.0345 51.9724Z" fill="#407093"/>
<path d="M28.2305 56.3898C28.813 56.3898 29.2852 55.9125 29.2852 55.3237C29.2852 54.735 28.813 54.2577 28.2305 54.2577C27.648 54.2577 27.1758 54.735 27.1758 55.3237C27.1758 55.9125 27.648 56.3898 28.2305 56.3898Z" fill="#F9F6F6"/>
<path d="M30.2865 54.5617H8.41992C8.29358 54.5617 8.16726 54.5576 8.04117 54.5496L2.56055 41.086V18.6912C2.56055 15.4551 5.18391 12.8318 8.41992 12.8318H30.2865C30.3609 12.8318 30.435 12.8332 30.5087 12.8359L32.3408 19.6289L36.1459 26.1412V48.7023C36.1459 51.9383 33.5225 54.5617 30.2865 54.5617Z" fill="#707DD3"/>
<path d="M32.2713 26.087V44.8279C32.2713 48.0639 29.6479 50.6873 26.4119 50.6873H10.7054L8.04102 54.5497C8.04102 54.5497 8.2925 54.5617 8.41977 54.5617H30.2864C33.5224 54.5617 36.1457 51.9384 36.1457 48.7024V26.1413L32.2713 26.087Z" fill="#5766CB"/>
<path d="M36.0967 60C35.6113 60 35.2178 59.6023 35.2178 59.1116V56.18C35.2178 55.6894 35.6113 55.2916 36.0967 55.2916C36.5821 55.2916 36.9756 55.6894 36.9756 56.18V59.1116C36.9756 59.6023 36.5821 60 36.0967 60ZM54.8607 60C54.3753 60 53.9818 59.6023 53.9818 59.1116V56.18C53.9818 55.6894 54.3753 55.2916 54.8607 55.2916C55.3461 55.2916 55.7396 55.6894 55.7396 56.18V59.1116C55.7396 59.6023 55.3461 60 54.8607 60Z" fill="#DDDAEC"/>
<path d="M10.2514 48.4167C8.81672 48.4167 7.64941 47.2369 7.64941 45.7867V20.2874C7.64941 18.8372 8.81672 17.6573 10.2514 17.6573C11.6862 17.6573 12.8535 18.8372 12.8535 20.2874V45.7867C12.8535 47.2369 11.6862 48.4167 10.2514 48.4167ZM10.2514 19.4341C9.78598 19.4341 9.40723 19.817 9.40723 20.2875V45.7868C9.40723 46.2573 9.78598 46.6402 10.2514 46.6402C10.7169 46.6402 11.0957 46.2573 11.0957 45.7868V20.2874C11.0957 19.8169 10.7169 19.4341 10.2514 19.4341ZM19.3535 48.4167C17.9188 48.4167 16.7515 47.2369 16.7515 45.7867V20.2874C16.7515 18.8372 17.9188 17.6573 19.3535 17.6573C20.7882 17.6573 21.9555 18.8372 21.9555 20.2874V45.7867C21.9555 47.2369 20.7882 48.4167 19.3535 48.4167ZM19.3535 19.4341C18.888 19.4341 18.5093 19.817 18.5093 20.2875V45.7868C18.5093 46.2573 18.888 46.6402 19.3535 46.6402C19.819 46.6402 20.1977 46.2573 20.1977 45.7868V20.2874C20.1977 19.8169 19.819 19.4341 19.3535 19.4341ZM28.4556 48.4167C27.0209 48.4167 25.8536 47.2369 25.8536 45.7867V20.2874C25.8536 18.8372 27.0209 17.6573 28.4556 17.6573C29.8903 17.6573 31.0576 18.8372 31.0576 20.2874V45.7867C31.0576 47.2369 29.8903 48.4167 28.4556 48.4167ZM28.4556 19.4341C27.9901 19.4341 27.6114 19.817 27.6114 20.2875V45.7868C27.6114 46.2573 27.9901 46.6402 28.4556 46.6402C28.9211 46.6402 29.2998 46.2573 29.2998 45.7868V20.2874C29.2998 19.8169 28.9211 19.4341 28.4556 19.4341Z" fill="#5766CB"/>
<path d="M36.1459 26.1412V18.7542C36.1459 15.5586 33.6416 12.9556 30.5086 12.8375L2.56055 41.086V48.6392C2.56055 51.7814 4.98187 54.3506 8.04129 54.548L36.1459 26.1412Z" fill="#FFE07D"/>
<path d="M13.6365 44.0423C13.5208 44.0423 13.4062 44.0193 13.2995 43.9747C13.1927 43.93 13.0959 43.8646 13.0147 43.7822L9.38048 40.1089C9.03724 39.762 9.03724 39.1995 9.38048 38.8527C9.72372 38.5058 10.2802 38.5058 10.6234 38.8527L13.6387 41.9005C13.8393 41.6967 14.0676 41.4641 14.2848 41.2421C14.3655 41.1592 14.4618 41.0933 14.5683 41.048C14.6747 41.0027 14.7891 40.9791 14.9047 40.9784C15.0204 40.9777 15.135 41.0001 15.242 41.0442C15.3489 41.0882 15.446 41.1531 15.5277 41.2351C15.8728 41.5801 15.8759 42.1426 15.5347 42.4914C14.2537 43.8008 14.2215 43.8238 14.1436 43.8795C13.9957 43.9854 13.8184 44.0423 13.6365 44.0423ZM21.9658 34.6086C21.9161 34.6086 21.8663 34.6073 21.8165 34.6048C21.3317 34.5808 20.958 34.164 20.9819 33.6739C21.0058 33.184 21.4191 32.8066 21.9029 32.8303C22.3022 32.8494 22.7298 32.6718 23.0449 32.3532C23.3202 32.075 23.335 31.7359 23.24 31.5979C23.1604 31.4825 22.8873 31.5073 22.5603 31.6597C21.7811 32.0229 21.0502 32.3064 21.0195 32.3184C20.9763 32.3351 20.9318 32.3484 20.8864 32.3581C20.1621 32.5125 19.4349 32.2343 18.9888 31.6323C18.5171 30.9956 18.4692 30.1385 18.8641 29.3954C19.4662 28.2622 20.6796 27.8676 21.3017 27.8131C21.7855 27.7705 22.2113 28.1328 22.2532 28.6216C22.2948 29.1076 21.941 29.536 21.4617 29.5825C21.432 29.5862 20.7082 29.6802 20.4127 30.236C20.3431 30.367 20.337 30.4877 20.3959 30.5672C20.4259 30.6077 20.4583 30.6201 20.4839 30.6226C20.6988 30.5372 21.2547 30.3117 21.8244 30.0463C23.2129 29.3993 24.2111 29.8987 24.6822 30.5822C25.3012 31.4799 25.1355 32.7532 24.288 33.6097C23.655 34.2494 22.8159 34.6086 21.9658 34.6086ZM23.2964 26.8911C23.1807 26.8911 23.0662 26.8682 22.9595 26.8235C22.8528 26.7788 22.7561 26.7134 22.6749 26.6309C22.3317 26.2839 22.3317 25.7216 22.6749 25.3746L24.6836 23.3443C24.7648 23.2619 24.8615 23.1964 24.9682 23.1518C25.0749 23.1071 25.1894 23.0841 25.3051 23.0841C25.4207 23.0841 25.5353 23.1071 25.6419 23.1518C25.7486 23.1964 25.8454 23.2619 25.9265 23.3443C26.2698 23.6913 26.2698 24.2537 25.9265 24.6006L23.9178 26.6308C23.8367 26.7133 23.74 26.7788 23.6333 26.8234C23.5266 26.8681 23.412 26.8911 23.2964 26.8911Z" fill="#365E7D"/>
<path d="M27.9339 29.5565C27.8182 29.5565 27.7037 29.5336 27.597 29.4889C27.4903 29.4442 27.3936 29.3788 27.3124 29.2963L23.7914 25.7375C23.4482 25.3906 23.4482 24.8281 23.7914 24.4812C24.1346 24.1344 24.6912 24.1344 25.0343 24.4812L28.5553 28.0401C28.8986 28.387 28.8986 28.9495 28.5553 29.2965C28.4741 29.3788 28.3774 29.4443 28.2707 29.4889C28.164 29.5335 28.0495 29.5565 27.9339 29.5565ZM16.6608 39.8724C16.2067 39.8728 15.7571 39.7828 15.3382 39.6077C14.9193 39.4326 14.5394 39.1759 14.2207 38.8525C13.5689 38.1937 13.21 37.3178 13.21 36.3862C13.21 35.4545 13.5689 34.5786 14.2207 33.9199C15.5661 32.5598 17.7555 32.5599 19.1009 33.9199C20.4463 35.2797 20.4463 37.4926 19.1009 38.8525C18.7822 39.1759 18.4023 39.4326 17.9833 39.6077C17.5644 39.7828 17.1148 39.8728 16.6608 39.8724ZM16.6608 34.6757C16.2272 34.6757 15.7937 34.8425 15.4636 35.1761C15.1438 35.4993 14.9677 35.929 14.9677 36.3862C14.9677 36.8432 15.1438 37.2729 15.4636 37.5963C16.1237 38.2634 17.1977 38.2635 17.8579 37.5963C18.518 36.929 18.518 35.8434 17.8579 35.1762C17.7015 35.0175 17.5152 34.8915 17.3096 34.8056C17.1041 34.7197 16.8835 34.6755 16.6608 34.6757Z" fill="#365E7D"/>
<path d="M50.2255 41.8354C49.7401 41.8354 49.3466 41.4377 49.3466 40.947V36.6164C49.3466 35.3061 48.2919 34.2401 46.9955 34.2401H43.9633C42.667 34.2401 41.6123 35.3061 41.6123 36.6164V40.9472C41.6123 41.4378 41.2188 41.8356 40.7334 41.8356C40.248 41.8356 39.8545 41.4378 39.8545 40.9472V36.6164C39.8545 34.3264 41.6977 32.4633 43.9633 32.4633H46.9955C49.2611 32.4633 51.1044 34.3263 51.1044 36.6164V40.9472C51.1044 41.4377 50.7109 41.8354 50.2255 41.8354Z" fill="#DDDAEC"/>
<path d="M50.8962 39.9089H40.0615C39.4077 39.9089 38.8081 40.2756 38.5046 40.8608L33.2648 50.966C32.7736 51.9141 32.5174 52.9662 32.5176 54.0339V54.0686C32.5176 56.2677 34.2814 58.0504 36.4571 58.0504H41.8327L46.1673 57.1692L49.8205 58.0504H54.5007C56.6764 58.0504 58.4402 56.2676 58.4402 54.0686V54.0339C58.4404 52.9662 58.1841 51.9141 57.693 50.966L57.396 50.3934L55.3464 48.501L54.6491 45.096L52.453 40.8608C52.1496 40.2756 51.5499 39.9089 50.8962 39.9089Z" fill="#E28086"/>
<path d="M57.6923 50.966L57.3953 50.3934L55.3457 48.501L54.6484 45.096L52.4525 40.861C52.1489 40.2757 51.5493 39.9091 50.8955 39.9091H46.4131C47.0669 39.9091 47.6665 40.2757 47.97 40.861L53.2098 50.9662C53.701 51.9142 53.9572 52.9663 53.957 54.034V54.0686C53.957 56.2677 52.1932 58.0504 50.0175 58.0504H54.5C56.6757 58.0504 58.4395 56.2676 58.4395 54.0686V54.034C58.4395 52.9653 58.183 51.9126 57.6923 50.966Z" fill="#DD636E"/>
<path d="M40.829 50.788H50.1287C51.0768 50.788 51.8454 50.0112 51.8454 49.053V40.1915C51.563 40.0075 51.2333 39.9093 50.8962 39.9089H40.0615C39.7184 39.9089 39.3906 40.0108 39.1123 40.1915V49.053C39.1123 50.0112 39.8808 50.788 40.829 50.788Z" fill="#DD636E"/>
<path d="M50.8962 39.9089H48.3496V45.3187C48.3496 46.2769 47.581 47.0537 46.6329 47.0537H39.1123V49.0528C39.1123 50.0111 39.8809 50.7879 40.829 50.7879H50.1287C51.0768 50.7879 51.8454 50.0111 51.8454 49.0528V40.1914C51.563 40.0074 51.2333 39.9093 50.8962 39.9089Z" fill="#DA4A54"/>
<path d="M46.4974 52.92H44.2562C44.0743 52.92 43.8998 52.8477 43.7712 52.7191C43.6426 52.5905 43.5703 52.416 43.5703 52.2341V49.342C43.5703 49.1601 43.6426 48.9857 43.7712 48.857C43.8998 48.7284 44.0743 48.6561 44.2562 48.6561H46.4974C46.6793 48.6561 46.8538 48.7284 46.9824 48.857C47.1111 48.9857 47.1833 49.1601 47.1833 49.342V52.2341C47.1833 52.416 47.111 52.5904 46.9824 52.7191C46.8538 52.8477 46.6793 52.92 46.4974 52.92Z" fill="#F9F6F6"/>
<path d="M46.4974 48.656H45.66V50.6869C45.66 51.0698 45.3529 51.3801 44.9741 51.3801H43.5703V52.2266C43.5703 52.6094 43.8775 52.9199 44.2562 52.9199H46.4974C46.8763 52.9199 47.1833 52.6094 47.1833 52.2266V49.3493C47.1833 48.9664 46.8762 48.656 46.4974 48.656Z" fill="#DDDAEC"/>
<path d="M41.833 58.0503H49.821L57.3964 50.3933L54.6496 45.0959L41.833 58.0503Z" fill="#FFE07D"/>
<path d="M51.709 48.0685L53.2114 50.966C53.6776 51.865 53.9295 52.8601 53.9538 53.8734L57.3969 50.3933L54.65 45.0958L51.709 48.0685Z" fill="#FFD064"/>
<path d="M4.54656 50.6874C3.95172 50.6874 3.37785 50.5981 2.83691 50.4332C3.55258 52.7099 5.59211 54.3899 8.04238 54.5481L11.862 50.6874H4.54656ZM32.0154 13.0967C32.1863 13.6541 32.2729 14.2339 32.2725 14.8169V30.0573L36.1469 26.1413V18.7543C36.1469 16.0916 34.4077 13.8419 32.0154 13.0967Z" fill="#FFD064"/>
</svg>
