<svg width="57" height="60" viewBox="0 0 57 60" fill="none" xmlns="http://www.w3.org/2000/svg">
<path d="M12.915 15.1484C12.4296 15.1484 12.0361 14.7507 12.0361 14.26V2.95493C12.0361 2.46426 12.4296 2.06653 12.915 2.06653C13.4004 2.06653 13.7939 2.46426 13.7939 2.95493V14.26C13.7939 14.7507 13.4004 15.1484 12.915 15.1484ZM21.792 15.1484C21.3066 15.1484 20.9131 14.7507 20.9131 14.26V2.95493C20.9131 2.46426 21.3066 2.06653 21.792 2.06653C22.2774 2.06653 22.6709 2.46426 22.6709 2.95493V14.26C22.6709 14.7507 22.2774 15.1484 21.792 15.1484Z" fill="#DDDAEC"/>
<path d="M23.7381 4.01742H10.9689C10.778 4.01742 10.5949 3.94158 10.4599 3.80657C10.3249 3.67157 10.249 3.48846 10.249 3.29754V0.719883C10.249 0.528958 10.3249 0.345853 10.4599 0.210849C10.5949 0.0758446 10.778 0 10.9689 0L23.7381 0C23.929 0 24.1122 0.0758446 24.2472 0.210849C24.3822 0.345853 24.458 0.528958 24.458 0.719883V3.29766C24.4579 3.48855 24.3821 3.67161 24.2471 3.80658C24.1121 3.94155 23.929 4.01739 23.7381 4.01742Z" fill="#4A80AA"/>
<path d="M23.7381 0H22.6471V1.48664C22.6471 1.67757 22.5713 1.86067 22.4363 1.99567C22.3013 2.13068 22.1182 2.20652 21.9272 2.20652H10.249V3.29754C10.249 3.48846 10.3249 3.67157 10.4599 3.80657C10.5949 3.94158 10.778 4.01742 10.9689 4.01742H23.7381C23.929 4.01742 24.1122 3.94158 24.2472 3.80657C24.3822 3.67157 24.458 3.48846 24.458 3.29754V0.719883C24.458 0.528967 24.3821 0.345881 24.2471 0.210883C24.1121 0.0758856 23.929 3.10709e-05 23.7381 0Z" fill="#407093"/>
<path d="M8.47652 59.1387C10.5611 59.1387 12.2509 57.4307 12.2509 55.3237C12.2509 53.2167 10.5611 51.5087 8.47652 51.5087C6.39199 51.5087 4.70215 53.2167 4.70215 55.3237C4.70215 57.4307 6.39199 59.1387 8.47652 59.1387Z" fill="#4A80AA"/>
<path d="M10.2805 51.9724C10.5827 52.5329 10.7404 53.1598 10.7393 53.7966C10.7393 55.9035 9.04949 57.6116 6.96496 57.6116C6.3338 57.6123 5.71279 57.4528 5.16016 57.1479C5.80023 58.3339 7.045 59.1388 8.47574 59.1388C10.5603 59.1388 12.2501 57.4308 12.2501 55.3237C12.2502 53.8775 11.4541 52.6194 10.2805 51.9724Z" fill="#407093"/>
<path d="M8.47656 56.3898C9.05905 56.3898 9.53125 55.9125 9.53125 55.3237C9.53125 54.735 9.05905 54.2577 8.47656 54.2577C7.89407 54.2577 7.42188 54.735 7.42188 55.3237C7.42188 55.9125 7.89407 56.3898 8.47656 56.3898Z" fill="#F9F6F6"/>
<path d="M26.2304 59.1387C28.315 59.1387 30.0048 57.4307 30.0048 55.3237C30.0048 53.2167 28.315 51.5087 26.2304 51.5087C24.1459 51.5087 22.4561 53.2167 22.4561 55.3237C22.4561 57.4307 24.1459 59.1387 26.2304 59.1387Z" fill="#4A80AA"/>
<path d="M28.0345 51.9724C28.3366 52.5329 28.4943 53.1598 28.4932 53.7966C28.4932 55.9035 26.8034 57.6116 24.7189 57.6116C24.0877 57.6124 23.4667 57.4528 22.9141 57.1479C23.5541 58.3339 24.7989 59.1388 26.2296 59.1388C28.3142 59.1388 30.004 57.4308 30.004 55.3237C30.0041 53.8775 29.208 52.6194 28.0345 51.9724Z" fill="#407093"/>
<path d="M26.2305 56.3898C26.813 56.3898 27.2852 55.9125 27.2852 55.3237C27.2852 54.735 26.813 54.2577 26.2305 54.2577C25.648 54.2577 25.1758 54.735 25.1758 55.3237C25.1758 55.9125 25.648 56.3898 26.2305 56.3898Z" fill="#F9F6F6"/>
<path d="M28.2865 54.5617H6.41992C6.29358 54.5617 6.16726 54.5576 6.04117 54.5496L0.560547 41.086V18.6912C0.560547 15.4551 3.18391 12.8318 6.41992 12.8318H28.2865C28.3609 12.8318 28.435 12.8332 28.5087 12.8359L30.3408 19.6289L34.1459 26.1412V48.7023C34.1459 51.9383 31.5225 54.5617 28.2865 54.5617Z" fill="#707DD3"/>
<path d="M30.2713 26.087V44.8279C30.2713 48.0639 27.6479 50.6873 24.4119 50.6873H8.70539L6.04102 54.5497C6.04102 54.5497 6.2925 54.5617 6.41977 54.5617H28.2864C31.5224 54.5617 34.1457 51.9384 34.1457 48.7024V26.1413L30.2713 26.087Z" fill="#5766CB"/>
<path d="M34.0967 60C33.6113 60 33.2178 59.6023 33.2178 59.1116V56.18C33.2178 55.6894 33.6113 55.2916 34.0967 55.2916C34.5821 55.2916 34.9756 55.6894 34.9756 56.18V59.1116C34.9756 59.6023 34.5821 60 34.0967 60ZM52.8607 60C52.3753 60 51.9818 59.6023 51.9818 59.1116V56.18C51.9818 55.6894 52.3753 55.2916 52.8607 55.2916C53.3461 55.2916 53.7396 55.6894 53.7396 56.18V59.1116C53.7396 59.6023 53.3461 60 52.8607 60Z" fill="#DDDAEC"/>
<path d="M8.25145 48.4167C6.81672 48.4167 5.64941 47.2369 5.64941 45.7867V20.2874C5.64941 18.8372 6.81672 17.6573 8.25145 17.6573C9.68617 17.6573 10.8535 18.8372 10.8535 20.2874V45.7867C10.8535 47.2369 9.68617 48.4167 8.25145 48.4167ZM8.25145 19.4341C7.78598 19.4341 7.40723 19.817 7.40723 20.2875V45.7868C7.40723 46.2573 7.78598 46.6402 8.25145 46.6402C8.71691 46.6402 9.09566 46.2573 9.09566 45.7868V20.2874C9.09566 19.8169 8.71691 19.4341 8.25145 19.4341ZM17.3535 48.4167C15.9188 48.4167 14.7515 47.2369 14.7515 45.7867V20.2874C14.7515 18.8372 15.9188 17.6573 17.3535 17.6573C18.7882 17.6573 19.9555 18.8372 19.9555 20.2874V45.7867C19.9555 47.2369 18.7882 48.4167 17.3535 48.4167ZM17.3535 19.4341C16.888 19.4341 16.5093 19.817 16.5093 20.2875V45.7868C16.5093 46.2573 16.888 46.6402 17.3535 46.6402C17.819 46.6402 18.1977 46.2573 18.1977 45.7868V20.2874C18.1977 19.8169 17.819 19.4341 17.3535 19.4341ZM26.4556 48.4167C25.0209 48.4167 23.8536 47.2369 23.8536 45.7867V20.2874C23.8536 18.8372 25.0209 17.6573 26.4556 17.6573C27.8903 17.6573 29.0576 18.8372 29.0576 20.2874V45.7867C29.0576 47.2369 27.8903 48.4167 26.4556 48.4167ZM26.4556 19.4341C25.9901 19.4341 25.6114 19.817 25.6114 20.2875V45.7868C25.6114 46.2573 25.9901 46.6402 26.4556 46.6402C26.9211 46.6402 27.2998 46.2573 27.2998 45.7868V20.2874C27.2998 19.8169 26.9211 19.4341 26.4556 19.4341Z" fill="#5766CB"/>
<path d="M34.1459 26.1412V18.7542C34.1459 15.5586 31.6416 12.9556 28.5086 12.8375L0.560547 41.086V48.6392C0.560547 51.7814 2.98187 54.3506 6.04129 54.548L34.1459 26.1412Z" fill="#FFE07D"/>
<path d="M11.6365 44.0423C11.5208 44.0423 11.4062 44.0193 11.2995 43.9747C11.1927 43.93 11.0959 43.8646 11.0147 43.7822L7.38048 40.1089C7.03724 39.762 7.03724 39.1995 7.38048 38.8527C7.72372 38.5058 8.28024 38.5058 8.62337 38.8527L11.6387 41.9005C11.8393 41.6967 12.0676 41.4641 12.2848 41.2421C12.3655 41.1592 12.4618 41.0933 12.5683 41.048C12.6747 41.0027 12.7891 40.9791 12.9047 40.9784C13.0204 40.9777 13.135 41.0001 13.242 41.0442C13.3489 41.0882 13.446 41.1531 13.5277 41.2351C13.8728 41.5801 13.8759 42.1426 13.5347 42.4914C12.2537 43.8008 12.2215 43.8238 12.1436 43.8795C11.9957 43.9854 11.8184 44.0423 11.6365 44.0423ZM19.9658 34.6086C19.9161 34.6086 19.8663 34.6073 19.8165 34.6048C19.3317 34.5808 18.958 34.164 18.9819 33.6739C19.0058 33.184 19.4191 32.8066 19.9029 32.8303C20.3022 32.8494 20.7298 32.6718 21.0449 32.3532C21.3202 32.075 21.335 31.7359 21.24 31.5979C21.1604 31.4825 20.8873 31.5073 20.5603 31.6597C19.7811 32.0229 19.0502 32.3064 19.0195 32.3184C18.9763 32.3351 18.9318 32.3484 18.8864 32.3581C18.1621 32.5125 17.4349 32.2343 16.9888 31.6323C16.5171 30.9956 16.4692 30.1385 16.8641 29.3954C17.4662 28.2622 18.6796 27.8676 19.3017 27.8131C19.7855 27.7705 20.2113 28.1328 20.2532 28.6216C20.2948 29.1076 19.941 29.536 19.4617 29.5825C19.432 29.5862 18.7082 29.6802 18.4127 30.236C18.3431 30.367 18.337 30.4877 18.3959 30.5672C18.4259 30.6077 18.4583 30.6201 18.4839 30.6226C18.6988 30.5372 19.2547 30.3117 19.8244 30.0463C21.2129 29.3993 22.2111 29.8987 22.6822 30.5822C23.3012 31.4799 23.1355 32.7532 22.288 33.6097C21.655 34.2494 20.8159 34.6086 19.9658 34.6086ZM21.2964 26.8911C21.1807 26.8911 21.0662 26.8682 20.9595 26.8235C20.8528 26.7788 20.7561 26.7134 20.6749 26.6309C20.3317 26.2839 20.3317 25.7216 20.6749 25.3746L22.6836 23.3443C22.7648 23.2619 22.8615 23.1964 22.9682 23.1518C23.0749 23.1071 23.1894 23.0841 23.3051 23.0841C23.4207 23.0841 23.5353 23.1071 23.6419 23.1518C23.7486 23.1964 23.8454 23.2619 23.9265 23.3443C24.2698 23.6913 24.2698 24.2537 23.9265 24.6006L21.9178 26.6308C21.8367 26.7133 21.74 26.7788 21.6333 26.8234C21.5266 26.8681 21.412 26.8911 21.2964 26.8911Z" fill="#365E7D"/>
<path d="M25.9339 29.5565C25.8182 29.5565 25.7037 29.5336 25.597 29.4889C25.4903 29.4442 25.3936 29.3788 25.3124 29.2963L21.7914 25.7375C21.4482 25.3906 21.4482 24.8281 21.7914 24.4812C22.1346 24.1344 22.6912 24.1344 23.0343 24.4812L26.5553 28.0401C26.8986 28.387 26.8986 28.9495 26.5553 29.2965C26.4741 29.3788 26.3774 29.4443 26.2707 29.4889C26.164 29.5335 26.0495 29.5565 25.9339 29.5565ZM14.6608 39.8724C14.2067 39.8728 13.7571 39.7828 13.3382 39.6077C12.9193 39.4326 12.5394 39.1759 12.2207 38.8525C11.5689 38.1937 11.21 37.3178 11.21 36.3862C11.21 35.4545 11.5689 34.5786 12.2207 33.9199C13.5661 32.5598 15.7555 32.5599 17.1009 33.9199C18.4463 35.2797 18.4463 37.4926 17.1009 38.8525C16.7822 39.1759 16.4023 39.4326 15.9833 39.6077C15.5644 39.7828 15.1148 39.8728 14.6608 39.8724ZM14.6608 34.6757C14.2272 34.6757 13.7937 34.8425 13.4636 35.1761C13.1438 35.4993 12.9677 35.929 12.9677 36.3862C12.9677 36.8432 13.1438 37.2729 13.4636 37.5963C14.1237 38.2634 15.1977 38.2635 15.8579 37.5963C16.518 36.929 16.518 35.8434 15.8579 35.1762C15.7015 35.0175 15.5152 34.8915 15.3096 34.8056C15.1041 34.7197 14.8835 34.6755 14.6608 34.6757Z" fill="#365E7D"/>
<path d="M48.2255 41.8354C47.7401 41.8354 47.3466 41.4377 47.3466 40.947V36.6164C47.3466 35.3061 46.2919 34.2401 44.9955 34.2401H41.9633C40.667 34.2401 39.6123 35.3061 39.6123 36.6164V40.9472C39.6123 41.4378 39.2188 41.8356 38.7334 41.8356C38.248 41.8356 37.8545 41.4378 37.8545 40.9472V36.6164C37.8545 34.3264 39.6977 32.4633 41.9633 32.4633H44.9955C47.2611 32.4633 49.1044 34.3263 49.1044 36.6164V40.9472C49.1044 41.4377 48.7109 41.8354 48.2255 41.8354Z" fill="#DDDAEC"/>
<path d="M48.8962 39.9089H38.0615C37.4077 39.9089 36.8081 40.2756 36.5046 40.8608L31.2648 50.966C30.7736 51.9141 30.5174 52.9662 30.5176 54.0339V54.0686C30.5176 56.2677 32.2814 58.0504 34.4571 58.0504H39.8327L44.1673 57.1692L47.8205 58.0504H52.5007C54.6764 58.0504 56.4402 56.2676 56.4402 54.0686V54.0339C56.4404 52.9662 56.1841 51.9141 55.693 50.966L55.396 50.3934L53.3464 48.501L52.6491 45.096L50.453 40.8608C50.1496 40.2756 49.5499 39.9089 48.8962 39.9089Z" fill="#E28086"/>
<path d="M55.6923 50.966L55.3953 50.3934L53.3457 48.501L52.6484 45.096L50.4525 40.861C50.1489 40.2757 49.5493 39.9091 48.8955 39.9091H44.4131C45.0669 39.9091 45.6665 40.2757 45.97 40.861L51.2098 50.9662C51.701 51.9142 51.9572 52.9663 51.957 54.034V54.0686C51.957 56.2677 50.1932 58.0504 48.0175 58.0504H52.5C54.6757 58.0504 56.4395 56.2676 56.4395 54.0686V54.034C56.4395 52.9653 56.183 51.9126 55.6923 50.966Z" fill="#DD636E"/>
<path d="M38.829 50.788H48.1287C49.0768 50.788 49.8454 50.0112 49.8454 49.053V40.1915C49.563 40.0075 49.2333 39.9093 48.8962 39.9089H38.0615C37.7184 39.9089 37.3906 40.0108 37.1123 40.1915V49.053C37.1123 50.0112 37.8808 50.788 38.829 50.788Z" fill="#DD636E"/>
<path d="M48.8962 39.9089H46.3496V45.3187C46.3496 46.2769 45.581 47.0537 44.6329 47.0537H37.1123V49.0528C37.1123 50.0111 37.8809 50.7879 38.829 50.7879H48.1287C49.0768 50.7879 49.8454 50.0111 49.8454 49.0528V40.1914C49.563 40.0074 49.2333 39.9093 48.8962 39.9089Z" fill="#DA4A54"/>
<path d="M44.4974 52.92H42.2562C42.0743 52.92 41.8998 52.8477 41.7712 52.7191C41.6426 52.5905 41.5703 52.416 41.5703 52.2341V49.342C41.5703 49.1601 41.6426 48.9857 41.7712 48.857C41.8998 48.7284 42.0743 48.6561 42.2562 48.6561H44.4974C44.6793 48.6561 44.8538 48.7284 44.9824 48.857C45.1111 48.9857 45.1833 49.1601 45.1833 49.342V52.2341C45.1833 52.416 45.111 52.5904 44.9824 52.7191C44.8538 52.8477 44.6793 52.92 44.4974 52.92Z" fill="#F9F6F6"/>
<path d="M44.4974 48.656H43.66V50.6869C43.66 51.0698 43.3529 51.3801 42.9741 51.3801H41.5703V52.2266C41.5703 52.6094 41.8775 52.9199 42.2562 52.9199H44.4974C44.8763 52.9199 45.1833 52.6094 45.1833 52.2266V49.3493C45.1833 48.9664 44.8762 48.656 44.4974 48.656Z" fill="#DDDAEC"/>
<path d="M39.833 58.0503H47.821L55.3964 50.3933L52.6496 45.0959L39.833 58.0503Z" fill="#FFE07D"/>
<path d="M49.709 48.0685L51.2114 50.966C51.6776 51.865 51.9295 52.8601 51.9538 53.8734L55.3969 50.3933L52.65 45.0958L49.709 48.0685Z" fill="#FFD064"/>
<path d="M2.54656 50.6874C1.95172 50.6874 1.37785 50.5981 0.836914 50.4332C1.55258 52.7099 3.59211 54.3899 6.04238 54.5481L9.86199 50.6874H2.54656ZM30.0154 13.0967C30.1863 13.6541 30.2729 14.2339 30.2725 14.8169V30.0573L34.1469 26.1413V18.7543C34.1469 16.0916 32.4077 13.8419 30.0154 13.0967Z" fill="#FFD064"/>
</svg>
