<svg width="76" height="50" viewBox="0 0 76 50" fill="none" xmlns="http://www.w3.org/2000/svg">
<path d="M61.4092 2.73382L51.1969 17.1706L41.5699 21.0275L31.3576 20.6373L27.8909 10.62C27.8909 10.62 24.4243 7.34851 14.3846 8.30896C4.34483 9.26941 0.322931 19.2941 0.51052 20.6373C0.698108 21.9804 7.63889 38.5557 9.5673 41.0544C11.4957 43.5531 11.8784 48.1828 15.1499 48.9556C18.4215 49.7285 26.3227 44.5285 26.3227 44.5285C26.3227 44.5285 52.33 28.3434 55.4139 26.6101C58.4979 24.8768 63.6678 22.5657 65.4311 21.6052C66.6622 20.8026 67.7125 19.7523 68.5151 18.5213C68.5151 18.5213 70.0533 20.6373 71.2089 19.6768C72.3644 18.7164 74.6755 12.3534 74.6755 12.3534C74.6755 12.3534 75.3508 8.20391 75.4934 6.62066C75.6359 5.03742 69.0929 2.91391 66.7818 1.95346C64.4707 0.993007 64.8759 -1.123 61.4092 2.73382Z" fill="white" stroke="#263238" stroke-linecap="round" stroke-linejoin="round"/>
</svg>
