<svg width="5" height="5" viewBox="0 0 5 5" fill="none" xmlns="http://www.w3.org/2000/svg">
<path d="M4.82318 2.50422C4.78106 2.50422 4.77264 2.29364 4.66314 1.95671C4.51573 1.48593 4.22032 1.07529 3.82082 0.785879C3.57665 0.60016 3.29527 0.469348 2.9959 0.402378C2.69653 0.335409 2.38621 0.333871 2.08618 0.397854C1.78616 0.461837 1.50349 0.589827 1.25749 0.773103C1.01148 0.95638 0.807942 1.19063 0.660786 1.4598C0.51363 1.72897 0.426328 2.02674 0.404836 2.33276C0.383345 2.63878 0.428179 2.94582 0.536269 3.23292C0.644358 3.52001 0.813152 3.78038 1.03113 3.99624C1.2491 4.2121 1.51112 4.37838 1.79926 4.48367C2.13243 4.60829 2.49118 4.64888 2.84378 4.60186C3.19637 4.55485 3.53194 4.42168 3.82082 4.21412C4.22207 3.92646 4.51795 3.51517 4.66314 3.04329C4.77264 2.70636 4.78106 2.49579 4.82318 2.50422C4.87726 2.69418 4.87726 2.89546 4.82318 3.08542C4.71931 3.63051 4.41973 4.11883 3.98086 4.4584C3.65557 4.71955 3.2692 4.89366 2.85809 4.96439C2.44699 5.03512 2.02464 5.00012 1.63078 4.8627C1.15134 4.68084 0.738581 4.35743 0.447302 3.93542C0.156022 3.51341 0 3.01277 0 2.5C0 1.98723 0.156022 1.48659 0.447302 1.06458C0.738581 0.642567 1.15134 0.319157 1.63078 0.137303C2.02464 -0.000122377 2.44699 -0.0351161 2.85809 0.0356121C3.2692 0.10634 3.65557 0.28045 3.98086 0.5416C4.41973 0.881174 4.71931 1.36949 4.82318 1.91458C4.87583 2.1076 4.87583 2.3112 4.82318 2.50422Z" fill="#263238"/>
</svg>
