<svg width="75" height="126" viewBox="0 0 75 126" fill="none" xmlns="http://www.w3.org/2000/svg">
<path d="M19.9383 0C19.9383 0 21.8995 12.3411 35.0683 10.8497C48.2371 9.35836 53.3898 1.99844 53.3898 1.99844L71.6889 7.86699L74.5673 43.2647C64.1328 63.5855 58.2785 85.9463 57.4165 108.773C57.2674 112.599 57.1331 116.797 54.5829 119.653C53.017 121.413 50.7501 122.375 48.513 123.135C41.3898 125.518 33.8567 126.429 26.3707 125.813C18.8848 125.196 11.6022 123.065 4.96494 119.548C4.96494 119.548 -0.627709 58.9838 0.058322 57.2687C0.744353 55.5536 9.90138 4.60088 9.90138 4.60088L19.9383 0Z" fill="#E0E0E0"/>
</svg>
