<svg width="24" height="31" viewBox="0 0 24 31" fill="none" xmlns="http://www.w3.org/2000/svg">
<path d="M2.62238 31C1.17644 31 0 29.8109 0 28.3494V2.65061C0 1.18907 1.17644 0 2.62238 0C4.06833 0 5.24477 1.18907 5.24477 2.65061V28.3494C5.24477 29.8109 4.06833 31 2.62238 31ZM2.62238 1.7907C2.15327 1.7907 1.77156 2.17654 1.77156 2.65073V28.3495C1.77156 28.8237 2.15327 29.2095 2.62238 29.2095C3.09149 29.2095 3.47321 28.8237 3.47321 28.3495V2.65061C3.47321 2.17642 3.09149 1.7907 2.62238 1.7907ZM11.7957 31C10.3497 31 9.17327 29.8109 9.17327 28.3494V2.65061C9.17327 1.18907 10.3497 0 11.7957 0C13.2416 0 14.418 1.18907 14.418 2.65061V28.3494C14.418 29.8109 13.2416 31 11.7957 31ZM11.7957 1.7907C11.3265 1.7907 10.9448 2.17654 10.9448 2.65073V28.3495C10.9448 28.8237 11.3265 29.2095 11.7957 29.2095C12.2648 29.2095 12.6465 28.8237 12.6465 28.3495V2.65061C12.6465 2.17642 12.2648 1.7907 11.7957 1.7907ZM20.9689 31C19.523 31 18.3465 29.8109 18.3465 28.3494V2.65061C18.3465 1.18907 19.523 0 20.9689 0C22.4149 0 23.5913 1.18907 23.5913 2.65061V28.3494C23.5913 29.8109 22.4149 31 20.9689 31ZM20.9689 1.7907C20.4998 1.7907 20.1181 2.17654 20.1181 2.65073V28.3495C20.1181 28.8237 20.4998 29.2095 20.9689 29.2095C21.438 29.2095 21.8197 28.8237 21.8197 28.3495V2.65061C21.8197 2.17642 21.438 1.7907 20.9689 1.7907Z" fill="#5766CB"/>
</svg>
