<svg width="51" height="169" viewBox="0 0 51 169" fill="none" xmlns="http://www.w3.org/2000/svg">
<path d="M11.8018 0C11.8018 0 18.246 9.93481 18.9172 10.621C18.9172 10.621 46.141 18.3257 47.7521 21.5702C54.3753 34.9508 49.0275 39.7616 47.7521 58.1544C46.1634 81.0149 38.5109 112.833 38.5109 112.833C38.5109 112.833 49.2811 154.34 50.4446 156.63C51.6081 158.92 13.7857 172.83 9.77303 167.594C5.76032 162.358 2.62027 144.323 2.62027 144.323C2.62027 144.323 -1.10902 107.679 0.33048 93.0829C1.76998 78.4865 8.53491 63.4798 10.9217 45.8478C13.3531 27.2163 11.8018 0 11.8018 0Z" fill="#455A64"/>
</svg>
