<svg width="44" height="48" viewBox="0 0 44 48" fill="none" xmlns="http://www.w3.org/2000/svg">
<path d="M43.4404 18.0593C43.4404 18.0593 41.6851 22.56 40.9575 23.3101C40.2299 24.0602 37.012 25.5004 37.012 25.5004C37.012 25.5004 35.6993 33.5341 35.1142 34.9968C34.5291 36.4595 29.4208 35.2893 29.4208 35.2893C29.4208 35.2893 24.4551 40.6901 24.0201 41.5678C23.585 42.4454 21.8297 41.7103 19.3469 40.3976C17.8184 39.5849 16.3539 38.6571 14.9662 37.6222L7.07508 47.1186C5.21779 41.608 3.6578 36.0016 2.40188 30.3236C1.35855 25.4189 0.723787 20.4361 0.504106 15.4264C0.504106 15.4264 4.44969 12.3585 4.74223 11.3383C5.03478 10.3182 7.66016 0.529256 7.66016 0.529256C7.66016 0.529256 16.5715 -0.0483232 29.2708 4.33232C41.9702 8.71296 43.8755 16.1615 43.4404 18.0593Z" fill="white" stroke="#263238" stroke-linecap="round" stroke-linejoin="round"/>
</svg>
