<svg width="7" height="7" viewBox="0 0 7 7" fill="none" xmlns="http://www.w3.org/2000/svg">
<path d="M5.82691 1.27397C5.93047 1.18635 6.17741 1.27397 6.45621 1.58463C6.83056 2.06588 7.02245 2.66414 6.99786 3.27336C6.99845 3.71253 6.90616 4.14686 6.72703 4.54785C6.50642 5.0334 6.16998 5.45737 5.74725 5.78253C5.26645 6.16249 4.69536 6.41132 4.08971 6.50473C3.48405 6.59813 2.86452 6.53292 2.29158 6.31546C1.71864 6.098 1.21188 5.73572 0.820728 5.26398C0.429575 4.79223 0.167405 4.22714 0.0598019 3.62385C-0.0338971 3.14703 -0.0173149 2.65508 0.108323 2.18567C0.233961 1.71625 0.465304 1.28179 0.784653 0.915523C1.17137 0.447305 1.70953 0.128916 2.30609 0.0154029C2.72827 -0.0403566 2.95929 0.0632054 2.99115 0.198621C3.05487 0.485384 2.36983 0.851805 1.99544 1.74396C1.78553 2.19669 1.75702 2.71263 1.91578 3.18573C1.99503 3.45767 2.13652 3.70741 2.32904 3.91518C2.52156 4.12295 2.75982 4.28303 3.02494 4.38274C3.29006 4.48245 3.57474 4.51905 3.85646 4.48964C4.13818 4.46023 4.40918 4.36561 4.64799 4.2133C5.08179 3.96917 5.40434 3.5667 5.54811 3.09014C5.8508 2.17409 5.57998 1.46515 5.82691 1.27397Z" fill="#E0E0E0"/>
</svg>
