<svg width="45" height="65" viewBox="0 0 45 65" fill="none" xmlns="http://www.w3.org/2000/svg">
<path d="M44.7925 64.392C44.7539 64.3265 44.7239 64.2564 44.703 64.1833C44.6434 64.0267 44.5763 63.818 44.4794 63.5645C44.2025 62.7622 43.9881 61.9396 43.8382 61.1042C43.4002 58.0182 43.4002 54.8859 43.8382 51.7999C44.0395 49.8391 44.3228 47.6994 44.5092 45.4032C44.7505 42.9657 44.703 40.5083 44.3675 38.082C43.9192 35.4167 42.9842 32.8566 41.609 30.5297C40.1308 28.0285 38.3116 25.7451 36.2039 23.7454C31.8872 19.5927 26.8474 16.7671 22.2996 14.2919C17.7519 11.8168 13.547 9.68452 10.2219 7.58211C7.59005 5.92816 5.04907 4.1338 2.61 2.20679C1.74518 1.5209 1.11892 0.9692 0.65669 0.596432L0.157182 0.164019C0.0528064 0.0596439 -0.00683014 0.00745537 0.000625228 0L0.187009 0.134191C0.321206 0.238566 0.49267 0.365314 0.70142 0.536787L2.70692 2.08751C4.45147 3.41456 7.02358 5.28586 10.371 7.35099C13.7185 9.41613 17.8711 11.5558 22.4711 13.9937C27.0711 16.4316 32.1034 19.2796 36.4723 23.4844C38.6043 25.5099 40.4458 27.8206 41.9445 30.3508C43.3357 32.7231 44.2784 35.3312 44.7254 38.0447C45.0528 40.4997 45.0879 42.9848 44.8298 45.4479C44.6285 47.7591 44.3303 49.9212 44.0842 51.8372C43.6319 54.9047 43.5942 58.0192 43.9724 61.0967C44.1099 61.9278 44.2991 62.7495 44.539 63.557C44.621 63.818 44.6807 64.0193 44.7254 64.1833C44.7534 64.2509 44.7758 64.3207 44.7925 64.392Z" fill="#455A64"/>
</svg>
