<svg width="71" height="82" viewBox="0 0 71 82" fill="none" xmlns="http://www.w3.org/2000/svg">
<path d="M70.4974 79.3788C70.4974 79.3788 68.3277 51.4733 68.1856 48.578C68.1332 47.598 67.8863 44.2613 67.5123 40.0493C63.8689 38.6727 58.9386 36.346 55.168 32.8148C48.3749 26.4556 44.4697 15.4655 44.1779 9.24849C43.9759 4.85693 43.916 2.35068 43.9011 1.25092C42.0083 0.929218 40.0856 0.674851 38.2976 0.50278C39.3075 3.93673 41.9709 15.0166 37.3848 23.5828C31.886 33.8547 24.2251 36.6004 18.1502 33.129C12.0754 29.6577 5.43191 17.2236 4.99051 12.4505C4.73614 9.63004 4.37702 6.70483 4.13013 4.7896L1.44433 5.29833C0.464106 12.7983 0.248544 20.3784 0.800939 27.922C1.2573 33.9071 1.98299 39.0318 2.64135 42.8847C4.26589 45.6521 6.22035 48.2119 8.46185 50.5082C13.3771 55.1317 19.1677 64.6779 19.1677 64.6779C19.1677 64.6779 19.7438 72.0546 19.0181 74.5085C18.2924 76.9623 17.5742 80.7255 17.5742 80.7255C17.5742 80.7255 35.6491 81.0172 46.0632 81.0172C56.4773 81.0172 70.4974 79.3788 70.4974 79.3788Z" fill="#1A0161" stroke="#263238" stroke-linecap="round" stroke-linejoin="round"/>
</svg>
