<svg width="13" height="11" viewBox="0 0 13 11" fill="none" xmlns="http://www.w3.org/2000/svg">
<path d="M12.9732 2.00282C12.6718 2.0082 12.3709 1.97418 12.0783 1.90165L9.68916 1.47364L6.14826 0.788802C5.48678 0.664287 4.78638 0.485296 4.0782 0.423039C3.73201 0.366188 3.37729 0.392258 3.04314 0.499132C2.70899 0.606005 2.40495 0.79064 2.15601 1.03784C1.73658 1.62774 1.46926 2.31206 1.37779 3.03007C1.22215 3.75381 1.0743 4.44642 0.934226 5.11568C0.632426 6.26463 0.421657 7.43558 0.303873 8.61765C0.283858 9.00569 0.357542 9.39283 0.518732 9.74636C0.679923 10.0999 0.923861 10.4094 1.22993 10.6488C1.46875 10.8032 1.73182 10.9163 2.00814 10.9834C1.93188 11.0055 1.85095 11.0055 1.77469 10.9834C1.54492 10.9642 1.32327 10.8894 1.12878 10.7655C0.775848 10.5325 0.487392 10.2143 0.290146 9.84017C0.0928995 9.46609 -0.00676874 9.04829 0.000356931 8.62544C0.0708978 7.41534 0.253268 6.21435 0.545118 5.03786C0.677415 4.36859 0.817476 3.6682 0.965337 2.95224C1.07353 2.1579 1.38443 1.4048 1.86807 0.765456C2.15883 0.472649 2.51532 0.253506 2.90786 0.126268C3.3004 -0.000969696 3.71765 -0.0326254 4.12489 0.033931C4.83724 0.123692 5.54395 0.253601 6.24164 0.423039L9.7592 1.20126L12.0938 1.75378C12.3959 1.80131 12.6911 1.88492 12.9732 2.00282Z" fill="#884C3B"/>
</svg>
