<svg width="10" height="19" viewBox="0 0 10 19" fill="none" xmlns="http://www.w3.org/2000/svg">
<path d="M6.04672 18.8689C6.8915 17.9908 7.62652 17.0134 8.23565 15.9581C8.86408 14.801 9.28444 13.5425 9.47759 12.24C9.74239 10.652 9.62338 9.02367 9.13051 7.49104C8.63764 5.9584 7.78521 4.56594 6.64441 3.42995C5.7345 2.47287 4.66229 1.68448 3.47744 1.1013C2.3649 0.602242 1.19783 0.234926 0 0.00683429C0.332477 -0.0122308 0.66604 0.00863016 0.993555 0.0689448C1.89294 0.20224 2.7686 0.463631 3.59388 0.845161C4.83227 1.41136 5.9558 2.20073 6.90832 3.17381C8.10429 4.34265 8.99672 5.78588 9.50807 7.37807C10.0194 8.97026 10.1342 10.6632 9.84241 12.3099C9.63033 13.6487 9.16961 14.9361 8.48403 16.1056C8.03438 16.8967 7.47223 17.6183 6.81517 18.2479C6.58652 18.4868 6.32828 18.6955 6.04672 18.8689Z" fill="#263238"/>
</svg>
