<svg width="14" height="33" viewBox="0 0 14 33" fill="none" xmlns="http://www.w3.org/2000/svg">
<path d="M14 0C13.5766 0.272687 13.1391 0.522711 12.6892 0.749016C11.5028 1.43114 10.3731 2.20763 9.31118 3.07097C5.27858 6.38567 2.41554 10.9065 1.14283 15.969C-0.129883 21.0316 0.254843 26.3688 2.24047 31.1965C2.60748 32.0953 2.83968 32.5822 2.80972 32.5972C2.7295 32.493 2.66164 32.3799 2.60748 32.2601C2.48764 32.0354 2.2929 31.7058 2.09815 31.2564C1.52212 29.9988 1.0657 28.6897 0.734943 27.3466C-0.405495 22.8849 -0.215329 18.187 1.282 13.8321C2.77932 9.47726 5.51834 5.65576 9.16137 2.83878C10.2469 1.98257 11.4105 1.23025 12.6368 0.591729C13.0712 0.359534 13.4233 0.21721 13.6555 0.112348C13.7665 0.0639759 13.8818 0.0263577 14 0Z" fill="white"/>
</svg>
