<svg width="13" height="6" viewBox="0 0 13 6" fill="none" xmlns="http://www.w3.org/2000/svg">
<path d="M12.9997 5.65399C12.339 5.37624 11.7056 5.03775 11.1076 4.64284C9.95852 3.98404 8.39581 3.04181 6.68754 1.97701C5.90267 1.46854 5.07167 1.03509 4.20555 0.682403C3.50321 0.408309 2.753 0.278061 1.99938 0.299383C1.30279 0.347972 0.622972 0.535507 0 0.850933C0 0.850933 0.122564 0.674735 0.451961 0.483225C0.922309 0.217234 1.44531 0.0577312 1.98404 0.0159522C2.77937 -0.0440414 3.57837 0.0656122 4.32812 0.337676C5.22817 0.67755 6.08863 1.11421 6.89436 1.63995C8.61029 2.69709 10.15 3.67761 11.2531 4.40535C11.8711 4.7691 12.4556 5.18696 12.9997 5.65399Z" fill="#884C3B"/>
</svg>
