<svg width="26" height="17" viewBox="0 0 26 17" fill="none" xmlns="http://www.w3.org/2000/svg">
<path d="M23.5397 4.01801C21.8024 2.34484 19.6717 1.13609 17.3442 0.503245C15.0167 -0.129606 12.5673 -0.166178 10.222 0.396913C7.87666 0.960004 5.71087 2.10463 3.9244 3.72519C2.13793 5.34576 0.788298 7.39009 0 9.66963L1.7022 16.2545C2.35173 14.0147 3.74037 11.8422 5.88305 10.9164C8.02574 9.99066 10.6985 10.5058 12.983 11.3345C15.2676 12.1632 17.5073 13.2681 19.9337 13.4174C22.3601 13.5668 25.0926 12.417 25.8167 10.1026C26.4961 7.92262 25.1821 5.60076 23.5397 4.01801Z" fill="#1A0161"/>
</svg>
