<svg width="28" height="44" viewBox="0 0 28 44" fill="none" xmlns="http://www.w3.org/2000/svg">
<path d="M0 43.9999C0.00831063 43.8188 0.0357603 43.6391 0.0819118 43.4637C0.163835 43.0839 0.26811 42.5775 0.394718 41.9742C0.521326 41.371 0.722402 40.4847 0.923485 39.5836C1.12457 38.6824 1.54163 37.6323 1.90656 36.4928C3.99458 30.5886 6.82765 24.9749 10.3371 19.788C13.8425 14.6044 17.7949 9.73749 22.1489 5.24304C23.8246 3.52266 25.2396 2.18956 26.2451 1.29586C26.744 0.84901 27.1536 0.551112 27.4292 0.297896C27.567 0.182807 27.7168 0.082933 27.8761 0C27.8761 0 25.6418 1.95123 22.35 5.42923C18.0692 9.96525 14.1615 14.8393 10.6648 20.004C7.1787 25.1605 4.32331 30.7162 2.15978 36.5524C1.7874 37.6844 1.41502 38.7047 1.13201 39.6133C0.849009 40.5219 0.7075 41.3188 0.543654 41.9817C0.379809 42.6445 0.253209 43.0988 0.156392 43.4712C0.117165 43.651 0.0649 43.8277 0 43.9999Z" fill="#263238"/>
</svg>
