<svg width="18" height="21" viewBox="0 0 18 21" fill="none" xmlns="http://www.w3.org/2000/svg">
<path d="M4.52244 21C4.4065 21 4.29171 20.9769 4.18475 20.9322C4.07779 20.8874 3.9808 20.8218 3.8994 20.7393L0.257944 17.0587C-0.0859815 16.7112 -0.0859815 16.1475 0.257944 15.8C0.60187 15.4524 1.1595 15.4524 1.50331 15.8L4.52467 18.8538C4.72569 18.6497 4.95443 18.4166 5.17201 18.1942C5.25286 18.1111 5.34942 18.045 5.45607 17.9997C5.56272 17.9543 5.67732 17.9306 5.79322 17.9299C5.90911 17.9293 6.02398 17.9517 6.13113 17.9958C6.23829 18.04 6.33559 18.105 6.41738 18.1871C6.76318 18.5328 6.76635 19.0964 6.42442 19.446C5.14089 20.7579 5.1086 20.781 5.03052 20.8369C4.88234 20.9429 4.70467 21 4.52244 21ZM12.8684 11.5474C12.8186 11.5474 12.7687 11.5462 12.7188 11.5437C12.233 11.5196 11.8585 11.102 11.8825 10.6109C11.9065 10.12 12.3206 9.74187 12.8053 9.76559C13.2054 9.78473 13.6338 9.60683 13.9496 9.28756C14.2254 9.00881 14.2403 8.66899 14.1451 8.53078C14.0654 8.41512 13.7916 8.44002 13.464 8.59267C12.6833 8.95655 11.951 9.24071 11.9202 9.25269C11.8768 9.26943 11.8322 9.28274 11.7868 9.29249C11.061 9.44714 10.3324 9.16838 9.8854 8.56519C9.41278 7.92724 9.36476 7.06843 9.76047 6.32386C10.3638 5.1884 11.5796 4.79304 12.2029 4.73844C12.6877 4.6957 13.1144 5.05877 13.1563 5.54853C13.198 6.03547 12.8435 6.46476 12.3632 6.51138C12.3335 6.51502 11.6082 6.60919 11.3122 7.16612C11.2424 7.2974 11.2363 7.41834 11.2953 7.49795C11.3253 7.53858 11.3579 7.55102 11.3835 7.55349C11.5988 7.46789 12.1559 7.24197 12.7266 6.97601C14.118 6.32773 15.1182 6.82818 15.5902 7.51298C16.2104 8.41254 16.0444 9.68832 15.1952 10.5466C14.5609 11.1876 13.7201 11.5474 12.8684 11.5474ZM14.2016 3.81457C14.0857 3.81462 13.9709 3.7916 13.864 3.74685C13.7571 3.70209 13.6602 3.6365 13.5789 3.5539C13.235 3.20622 13.235 2.64271 13.5789 2.29503L15.5916 0.260712C15.6729 0.178141 15.7698 0.112567 15.8767 0.0678087C15.9836 0.0230503 16.0984 0 16.2143 0C16.3302 0 16.4449 0.0230503 16.5518 0.0678087C16.6587 0.112567 16.7556 0.178141 16.837 0.260712C17.1809 0.608396 17.1809 1.1719 16.837 1.51946L14.8242 3.55378C14.743 3.6364 14.646 3.70201 14.5391 3.74678C14.4322 3.79156 14.3175 3.8146 14.2016 3.81457Z" fill="#365E7D"/>
</svg>
