<svg width="5" height="4" viewBox="0 0 5 4" fill="none" xmlns="http://www.w3.org/2000/svg">
<path d="M0 1.93032C0.00599563 2.47523 0.224594 2.99625 0.609205 3.3823C0.993816 3.76836 1.51402 3.98891 2.0589 3.99695C2.32436 4.01153 2.59004 3.97295 2.84039 3.88349C3.09074 3.79403 3.3207 3.65548 3.5168 3.47596C3.71289 3.29645 3.87117 3.07958 3.98235 2.83809C4.09353 2.5966 4.15537 2.33535 4.16425 2.06965C4.1583 1.52605 3.94076 1.00616 3.5578 0.620313C3.17485 0.234468 2.65661 0.013041 2.11308 0.00300633C1.84724 -0.0115685 1.58115 0.026954 1.33036 0.11633C1.07957 0.205705 0.849094 0.344133 0.652385 0.523549C0.455676 0.702965 0.296682 0.919768 0.184671 1.1613C0.0726602 1.40283 0.00988035 1.66426 0 1.93032Z" fill="#263238"/>
</svg>
