<svg width="20" height="44" viewBox="0 0 20 44" fill="none" xmlns="http://www.w3.org/2000/svg">
<path d="M12.8732 11.9421L18.7363 12.8623L19.4435 8.3832L17.1622 8.02579L17.4816 5.98778L15.3675 5.65318L15.6489 3.86611L18.0899 4.24634L18.3333 2.72544L14.4245 2.10947L14.5158 1.52392C14.5475 1.15416 14.4319 0.786852 14.194 0.501984C13.9561 0.217116 13.6153 0.0377694 13.2458 0.00301874C12.8778 -0.0208635 12.5147 0.0976498 12.2316 0.334034C11.9485 0.570418 11.7671 0.90658 11.7249 1.27297C10.5893 8.52261 9.45119 15.7647 8.31051 22.9991L7.39798 28.7937C5.50263 28.8452 3.69489 29.6029 2.32924 30.9182C0.963597 32.2335 0.138552 34.0115 0.0159298 35.9036C-0.106692 37.7957 0.481949 39.6654 1.6664 41.1459C2.85085 42.6265 4.54568 43.6112 6.41853 43.9069C8.29137 44.2026 10.2071 43.788 11.7901 42.7444C13.3731 41.7008 14.5092 40.1035 14.9755 38.2657C15.4418 36.4279 15.2047 34.4821 14.3108 32.81C13.4168 31.138 11.9305 29.8602 10.1432 29.2272C11.0253 23.6505 11.9049 18.0739 12.782 12.4972L12.8732 11.9421ZM13.2002 37.2576C13.0259 38.361 12.5284 39.388 11.7705 40.2088C11.0127 41.0296 10.0285 41.6073 8.94242 41.869C7.85633 42.1306 6.71705 42.0643 5.66859 41.6787C4.62012 41.293 3.70954 40.6051 3.05189 39.702C2.39424 38.799 2.01905 37.7212 1.97375 36.605C1.92846 35.4887 2.2151 34.3841 2.79742 33.4307C3.37974 32.4774 4.23161 31.718 5.24538 31.2486C6.25915 30.7793 7.3893 30.621 8.49301 30.7937C9.22855 30.9094 9.93405 31.1691 10.569 31.558C11.204 31.9468 11.7559 32.4572 12.1932 33.0598C12.6305 33.6625 12.9446 34.3455 13.1174 35.0697C13.2902 35.794 13.3183 36.5452 13.2002 37.2804V37.2576Z" fill="#E0E0E0"/>
</svg>
