<svg width="15" height="9" viewBox="0 0 15 9" fill="none" xmlns="http://www.w3.org/2000/svg">
<path d="M0 0C0.230233 0.0148472 0.456784 0.0652019 0.671636 0.149263C0.880591 0.223889 1.12686 0.335817 1.4179 0.462682C1.70895 0.589548 2.00745 0.776132 2.35074 0.970161C3.70894 1.77613 5.43282 3.0821 7.34327 4.51493C8.94253 5.75868 10.6256 6.89069 12.3806 7.90297C13.7462 8.64924 14.6716 8.93282 14.6194 8.99998C14.3917 8.98438 14.1677 8.93406 13.9552 8.85074C13.7011 8.77694 13.4518 8.6872 13.2089 8.58207C12.8776 8.45625 12.5537 8.31175 12.2388 8.14925C10.4236 7.19941 8.69775 6.08795 7.08207 4.82835C5.17163 3.38805 3.48507 2.05225 2.1791 1.2015L1.29104 0.656719L0.589552 0.291055C0.381742 0.218825 0.183708 0.121051 0 0Z" fill="#884C3B"/>
</svg>
