<svg width="10" height="10" viewBox="0 0 10 10" fill="none" xmlns="http://www.w3.org/2000/svg">
<path d="M6.39381 8.34764C6.39381 8.34764 6.3938 8.73075 5.92056 9.09883C5.61829 9.30536 5.25715 9.40818 4.89143 9.3918C4.42818 9.36791 3.97054 9.27941 3.53178 9.12888C2.33739 8.82619 1.28722 8.11368 0.564574 7.1157C0.204454 6.44935 0.0109126 5.70574 0.000448164 4.94838C-0.0100163 4.19101 0.162917 3.44236 0.504488 2.76631C0.79593 2.05233 1.18525 1.38236 1.6613 0.775663C1.91105 0.475178 2.23463 0.244778 2.60029 0.107094C2.95506 -0.00286823 3.33059 -0.0285935 3.69704 0.0319701C4.8695 0.27212 6.01282 0.637291 7.10742 1.1212C7.84461 1.43313 8.55987 1.79453 9.24832 2.20292C9.52267 2.33183 9.77593 2.50151 9.99951 2.7062C9.99951 2.7663 8.90276 2.10526 7.0323 1.37661C5.94911 0.94173 4.8274 0.609738 3.682 0.38503C3.36987 0.33805 3.05111 0.363761 2.75054 0.460153C2.45564 0.583428 2.19708 0.779938 1.99935 1.03106C1.55545 1.60794 1.19158 2.24218 0.917633 2.91656C0.599927 3.53605 0.434225 4.22225 0.434225 4.91846C0.434225 5.61467 0.599927 6.30089 0.917633 6.92039C1.58459 7.86099 2.55139 8.54702 3.65947 8.86596C4.073 9.02221 4.50457 9.12569 4.944 9.17395C5.27032 9.20315 5.5978 9.13242 5.88298 8.97114C6.10686 8.81372 6.28351 8.59812 6.39381 8.34764Z" fill="#884C3B"/>
</svg>
