<svg width="115" height="88" viewBox="0 0 115 88" fill="none" xmlns="http://www.w3.org/2000/svg">
<path d="M45.001 5.96262C45.001 5.96262 35.3514 8.12353 31.037 13.5929C26.7227 19.0622 25.1281 22.6687 25.1281 22.6687C25.1281 22.6687 19.2266 26.6998 15.4785 31.3123C11.7305 35.9247 4.67402 44.4193 3.37747 47.4445C2.08093 50.4698 -0.0725183 52.0495 0.642815 54.6426C1.35815 57.2357 30.0236 66.1624 32.043 66.453C34.0623 66.7436 41.551 68.3233 41.551 68.3233C41.551 68.3233 42.8251 77.5481 43.5703 79.7016C44.2141 81.2462 45.2001 82.6246 46.454 83.7328C46.454 83.7328 44.8668 84.165 44.8668 85.0293C44.8668 85.8937 45.612 87.1902 46.5955 87.3393C47.6404 87.5527 48.7176 87.5527 49.7624 87.3393C50.5075 87.0487 55.3807 85.0293 56.2451 84.4556C57.1095 83.8818 58.1154 83.0174 57.9738 80.5659C57.8322 78.1144 53.3688 68.0402 51.6401 65.4471C49.9114 62.854 48.7564 61.7214 47.9144 61.2668C47.0724 60.8123 27.8925 48.0183 27.8925 48.0183C27.8925 48.0183 37.5421 44.4193 39.703 40.6712C40.5621 39.0746 41.5254 37.5363 42.5867 36.0662C42.5867 36.0662 47.4823 46.2896 52.3778 50.902C57.2734 55.5144 63.0408 65.0149 63.0408 65.0149C63.0408 65.0149 63.6145 72.362 62.8917 74.806C62.1689 77.2501 61.4536 80.9981 61.4536 80.9981C61.4536 80.9981 79.4562 81.2887 89.8285 81.2887C100.201 81.2887 114.165 79.7016 114.165 79.7016C114.165 79.7016 112.004 51.9079 111.862 49.0242C111.721 46.1405 109.843 22.8102 107.973 16.7671C106.102 10.7241 102.935 7.08033 96.0504 4.09978C89.1653 1.11922 74.0166 0.500765 74.0166 0.500765L45.001 5.96262Z" fill="white" stroke="#263238" stroke-linecap="round" stroke-linejoin="round"/>
</svg>
