<svg width="5" height="9" viewBox="0 0 5 9" fill="none" xmlns="http://www.w3.org/2000/svg">
<path d="M0.00822347 8.08125C0.0551691 8.08125 0.188178 8.21427 0.493325 8.35511C0.915659 8.54479 1.39484 8.5644 1.83127 8.40987C2.92667 8.02648 3.8734 6.31297 3.95947 4.49773C3.99917 3.61347 3.84148 2.73145 3.49784 1.91572C3.40903 1.59181 3.242 1.2947 3.01143 1.05049C2.78086 0.806272 2.49381 0.622445 2.17554 0.515182C1.9702 0.454398 1.74997 0.468181 1.55381 0.554091C1.35765 0.640001 1.19819 0.792509 1.10362 0.984643C0.96278 1.27414 1.02536 1.47757 0.970594 1.49322C0.915824 1.50886 0.751535 1.32109 0.845426 0.898575C0.902185 0.641879 1.04937 0.414151 1.26011 0.256979C1.54722 0.050044 1.90362 -0.0369517 2.25379 0.0144288C2.67649 0.103924 3.06907 0.300628 3.39381 0.585633C3.71855 0.870639 3.96454 1.23437 4.10813 1.64188C4.5291 2.54395 4.72509 3.53463 4.67932 4.52904C4.5776 6.60247 3.47437 8.52723 1.97993 8.9341C1.70189 9.00877 1.41065 9.02012 1.12764 8.96731C0.844628 8.9145 0.577062 8.79887 0.344661 8.62895C0.0238663 8.33163 -0.0230736 8.0969 0.00822347 8.08125Z" fill="#884C3B"/>
</svg>
