<svg width="37" height="26" viewBox="0 0 37 26" fill="none" xmlns="http://www.w3.org/2000/svg">
<path d="M37.0003 5.58867C36.8668 5.76613 36.7173 5.9309 36.5535 6.08089L35.2358 7.42883L30.2984 12.3284L23.0059 19.5982C21.5434 21.0196 19.9398 22.2883 18.2199 23.3845C16.3618 24.5942 14.2449 25.3492 12.0406 25.5882C9.82157 25.8489 7.57612 25.4178 5.61138 24.3539C4.70587 23.8403 3.9128 23.1499 3.27928 22.3239C2.64575 21.4978 2.18469 20.5529 1.92348 19.5452C1.4766 17.7451 1.26782 15.8942 1.30251 14.0398C1.30251 12.3132 1.36309 10.7078 1.39338 9.23872C1.53419 6.93538 1.37125 4.6235 0.908735 2.36268C0.748657 1.75851 0.533179 1.17041 0.26505 0.605831C0.165572 0.408946 0.077083 0.206683 0 0C0.129021 0.178196 0.240604 0.368389 0.333201 0.567954C0.637142 1.12522 0.878426 1.71444 1.05262 2.32483C1.57988 4.59197 1.78888 6.92149 1.67359 9.24628C1.67359 10.7154 1.60543 12.3208 1.62815 14.0398C1.61009 15.8598 1.82641 17.6745 2.27181 19.4392C2.52346 20.4001 2.96547 21.3008 3.57164 22.0878C4.17781 22.8748 4.93581 23.532 5.8007 24.0207C7.6993 25.0372 9.86401 25.4468 12.0028 25.1944C14.146 24.9605 16.2049 24.2293 18.0155 23.0589C19.7177 21.9749 21.306 20.7216 22.756 19.318C24.1645 18.0003 25.4216 16.6448 26.6711 15.4635C27.9206 14.2822 29.0641 13.1462 30.1167 12.1239L35.1298 7.30766L36.5005 6.01274C36.6583 5.86139 36.8253 5.71977 37.0003 5.58867Z" fill="#263238"/>
</svg>
