<svg width="7" height="7" viewBox="0 0 7 7" fill="none" xmlns="http://www.w3.org/2000/svg">
<path d="M6.45458 3.49193C6.45618 4.07697 6.28406 4.64932 5.96003 5.13644C5.636 5.62355 5.17465 6.0035 4.63445 6.22813C4.09424 6.45276 3.49952 6.51195 2.92564 6.39821C2.35176 6.28447 1.82454 6.00291 1.41086 5.58922C0.997167 5.17553 0.71561 4.64835 0.601867 4.07446C0.488124 3.50058 0.547315 2.90586 0.771943 2.36565C0.996571 1.82545 1.37653 1.36408 1.86364 1.04005C2.35075 0.716017 2.9231 0.543895 3.50814 0.5455C4.28893 0.547642 5.03711 0.858768 5.58921 1.41087C6.14131 1.96296 6.45243 2.71115 6.45458 3.49193Z" fill="white" stroke="#263238" stroke-linecap="round" stroke-linejoin="round"/>
</svg>
