<svg width="55" height="58" viewBox="0 0 55 58" fill="none" xmlns="http://www.w3.org/2000/svg">
<path d="M33.3886 57.0287C30.6295 55.3986 23.6681 48.1008 23.6681 48.1008C22.1764 49.0952 20.5393 49.852 18.8153 50.344C15.6225 51.3534 15.129 46.7399 15.129 46.7399L10.3062 39.9505C9.32641 40.1772 8.31855 40.2578 7.31523 40.1898C5.67022 40.0702 5.10942 29.916 5.10942 29.916C4.48803 29.464 3.90302 28.9639 3.35973 28.4205C2.26804 27.3737 0.503391 16.3148 0.503391 16.3148C0.503391 16.3148 0.436109 13.9295 1.47545 12.7107C2.5148 11.4919 18.8602 -1.26439 25.687 0.709619C32.5138 2.68363 38.69 21.6984 39.2209 23.665C39.7518 25.6315 43.3484 34.2902 43.8643 34.4996C44.3802 34.7089 49.3527 38.657 54.497 40.4141" fill="white"/>
<path d="M33.3886 57.0287C30.6295 55.3986 23.6681 48.1008 23.6681 48.1008C22.1764 49.0952 20.5393 49.852 18.8153 50.344C15.6225 51.3534 15.129 46.7399 15.129 46.7399L10.3062 39.9505C9.32641 40.1772 8.31855 40.2578 7.31523 40.1898C5.67022 40.0702 5.10942 29.916 5.10942 29.916C4.48803 29.464 3.90302 28.9639 3.35973 28.4205C2.26804 27.3737 0.503391 16.3148 0.503391 16.3148C0.503391 16.3148 0.436109 13.9295 1.47545 12.7107C2.5148 11.4919 18.8602 -1.26439 25.687 0.709619C32.5138 2.68363 38.69 21.6984 39.2209 23.665C39.7518 25.6315 43.3484 34.2902 43.8643 34.4996C44.3802 34.7089 49.3527 38.657 54.497 40.4141" stroke="#263238" stroke-linecap="round" stroke-linejoin="round"/>
</svg>
