<svg width="4" height="15" viewBox="0 0 4 15" fill="none" xmlns="http://www.w3.org/2000/svg">
<path d="M3.99789 14.9891C3.79428 14.8899 3.60676 14.7607 3.44164 14.6057C2.97552 14.2129 2.55221 13.7719 2.17876 13.2902C0.908751 11.6972 0.156112 9.75408 0.021755 7.72125C-0.112602 5.68842 0.377745 3.6631 1.42706 1.91685C1.7382 1.39151 2.10351 0.900237 2.51703 0.451029C2.65615 0.274126 2.82384 0.121685 3.01316 0C3.0733 0.0526196 2.38925 0.751693 1.66761 2.05215C0.716306 3.77313 0.27799 5.73063 0.404548 7.69296C0.531107 9.65529 1.21724 11.5403 2.38173 13.1248C3.28378 14.3501 4.043 14.9289 3.99789 14.9891Z" fill="white"/>
</svg>
