<svg width="70" height="80" viewBox="0 0 70 80" fill="none" xmlns="http://www.w3.org/2000/svg">
<path d="M69.908 59.3428L69.5652 58.5082L68.589 56.0564L64.8629 46.7562C63.2384 42.7172 61.2487 37.8138 58.946 32.0607C57.7934 29.1992 56.5663 26.1438 55.2647 22.8947C53.9009 19.6829 52.798 16.1059 50.6816 12.8568C48.4868 9.43659 45.5437 6.55972 42.0745 4.44336C41.6199 4.16763 41.1728 3.88447 40.7108 3.62365L39.265 2.91569C38.2966 2.4515 37.3012 2.04587 36.2842 1.701C35.77 1.50724 35.226 1.40293 34.6969 1.24643C34.1678 1.08994 33.6313 0.925994 33.0798 0.851473C31.9728 0.630592 30.8526 0.481237 29.7264 0.404344C27.4214 0.231602 25.104 0.34172 22.8258 0.732237L21.1043 1.13463L20.2399 1.33585L19.3904 1.61904L17.6913 2.20773C17.1324 2.42384 16.5958 2.69957 16.0444 2.95294C11.4988 5.069 7.62931 8.40453 4.86627 12.5885C2.66511 15.906 1.21693 19.6652 0.623443 23.602C0.0299541 27.5389 0.305542 31.5579 1.43086 35.3769C2.25059 37.9703 3.3684 40.5263 4.41169 43.1271L17.2665 75.2903L19.0252 79.6795L18.7718 79.5752L26.4624 76.4975L26.3581 76.7509C23.027 68.4269 19.7779 60.2743 16.6107 52.3602L11.9457 40.6604L9.66541 34.9596C8.92749 33.0635 8.46814 31.0705 8.30168 29.0427C8.04003 25.0767 8.9941 21.1252 11.0366 17.7155C11.2625 17.2948 11.5113 16.8868 11.7818 16.4934L12.6388 15.3457C13.8601 13.9009 15.2685 12.6253 16.8269 11.5526C17.2144 11.2844 17.6242 11.0683 18.0266 10.8074L18.6228 10.4572L19.2562 10.1666C20.9085 9.3724 22.6647 8.81545 24.4727 8.51221C26.2302 8.23481 28.0162 8.18721 29.786 8.37062C33.1908 8.76751 36.4314 10.0525 39.1831 12.0967C41.7886 13.9854 43.8606 16.5168 45.1969 19.4444C45.3534 19.7946 45.5173 20.1449 45.6738 20.4877C45.8303 20.8305 45.957 21.1956 46.0912 21.5459L46.9258 23.625C47.4673 25.0061 48.0038 26.355 48.5354 27.6715L54.3182 42.1956C57.7909 50.9592 60.5109 57.8449 62.3218 62.3758L62.2473 62.3385L68.0599 60.0507L69.4832 59.4993L69.9601 59.3205L69.513 59.5142C69.2 59.6409 68.7678 59.8272 68.112 60.088L62.292 62.4429H62.2398V62.3907C60.4066 57.8449 57.6568 51.0039 54.1394 42.2701C52.3807 37.8957 50.4133 33.0444 48.3119 27.7609L46.6948 23.7219C46.419 23.0363 46.1359 22.3433 45.8601 21.6428L45.4354 20.5846C45.2789 20.2418 45.1224 19.899 44.9584 19.5562C44.3038 18.1494 43.4832 16.8259 42.5141 15.614C41.4873 14.383 40.3164 13.2797 39.0266 12.3277C36.3096 10.3336 33.1194 9.08267 29.7711 8.69851C28.0331 8.52503 26.28 8.57511 24.5547 8.84754C22.7856 9.15189 21.0675 9.70117 19.45 10.4795L18.8315 10.7627L18.2427 11.113C17.8552 11.3514 17.4454 11.5676 17.0653 11.8209C16.3049 12.3458 15.5804 12.9209 14.8968 13.5424C14.2044 14.1666 13.5569 14.839 12.9592 15.5544L12.1171 16.6871C11.8191 17.0597 11.6104 17.4845 11.3719 17.8794C9.37205 21.2308 8.43897 25.1112 8.69663 29.0054C8.86558 30.9944 9.31726 32.9491 10.038 34.8106C10.7832 36.6959 11.5284 38.6037 12.3258 40.5189L16.9982 52.2112L26.753 76.6018L26.8275 76.7807L26.6487 76.8552C24.1448 77.8463 21.5738 78.8822 18.9581 79.9254L18.7718 80L18.7048 79.8211L16.9461 75.4244C12.5419 64.4102 8.24951 53.6494 4.09871 43.2612C3.07777 40.653 1.96741 38.1268 1.11787 35.4738C0.370595 32.8388 -0.00563079 30.1124 6.36835e-05 27.3734C0.0630857 24.6908 0.486686 22.0289 1.25947 19.4593C2.05917 16.9626 3.1895 14.5841 4.62035 12.3873C7.41185 8.15656 11.3192 4.78049 15.9102 2.63251C16.4766 2.38659 17.0206 2.11086 17.587 1.8873L19.3009 1.29858C19.5916 1.20915 19.8747 1.09739 20.1579 1.01542L21.0373 0.814199L22.7811 0.411781C25.0886 0.0139076 27.4365 -0.0962093 29.7711 0.0839104C30.9079 0.1626 32.0381 0.316948 33.1543 0.545935C33.7076 0.647626 34.2549 0.779475 34.7938 0.940895C35.3304 1.10484 35.8818 1.20917 36.396 1.40292C37.4365 1.75847 38.4565 2.17145 39.4513 2.63997L40.9418 3.38517C41.4038 3.646 41.8584 3.94407 42.313 4.21234C45.8148 6.36039 48.7832 9.27537 50.9946 12.7375C53.1259 16.0388 54.2214 19.6307 55.5776 22.8575L59.2441 32.0682C61.5244 37.8138 63.4843 42.7619 65.0939 46.8084L68.7678 56.1086L69.7217 58.5231C69.8111 59.0373 69.908 59.3428 69.908 59.3428Z" fill="#263238"/>
</svg>
