<svg width="16" height="16" viewBox="0 0 16 16" fill="none" xmlns="http://www.w3.org/2000/svg">
<path d="M15.0519 5.45428C14.9336 5.45433 14.8166 5.43084 14.7075 5.38518C14.5984 5.33952 14.4995 5.2726 14.4166 5.18832L10.8171 1.55018C10.4663 1.19558 10.4663 0.620553 10.8171 0.265951C11.168 -0.0886504 11.737 -0.0886504 12.0877 0.265951L15.6872 3.90409C16.0381 4.25869 16.0381 4.83372 15.6872 5.18844C15.6042 5.27266 15.5053 5.33953 15.3962 5.38517C15.2872 5.4308 15.1701 5.4543 15.0519 5.45428ZM3.52769 16C3.06353 16.0004 2.60392 15.9084 2.17567 15.7294C1.74741 15.5504 1.35906 15.288 1.03326 14.9574C0.366941 14.2839 0 13.3885 0 12.4361C0 11.4837 0.366941 10.5882 1.03326 9.91483C2.40866 8.52446 4.64684 8.52458 6.02212 9.91483C7.39752 11.305 7.39752 13.5671 6.02212 14.9574C5.69631 15.288 5.30797 15.5504 4.87971 15.7294C4.45145 15.9084 3.99185 16.0004 3.52769 16ZM3.52769 10.6875C3.08444 10.6875 2.6413 10.858 2.30383 11.1991C1.9769 11.5295 1.79685 11.9688 1.79685 12.4361C1.79685 12.9033 1.9769 13.3426 2.30383 13.6731C2.97865 14.3551 4.0766 14.3553 4.75142 13.6731C5.42624 12.991 5.42624 11.8812 4.75142 11.1992C4.59162 11.0369 4.40111 10.9081 4.19101 10.8203C3.98091 10.7324 3.75541 10.6873 3.52769 10.6875Z" fill="#365E7D"/>
</svg>
