<svg width="15" height="47" viewBox="0 0 15 47" fill="none" xmlns="http://www.w3.org/2000/svg">
<path d="M0 0C0.110399 0.158032 0.202817 0.327883 0.275547 0.506412C0.454282 0.878777 0.692596 1.37775 1.02028 1.99587C1.6384 3.33639 2.50975 5.21312 3.58961 7.51433C4.13078 8.68605 4.71662 9.95705 5.34716 11.3274L6.33021 13.4498C6.6579 14.1946 7.03026 14.9393 7.30581 15.7287C8.49738 18.9162 9.8081 22.4313 11.1859 26.073L14.2691 34.3545L14.3435 34.5555L14.135 34.6002L6.87388 36.1716L6.97813 35.9482L10.6273 43.9615C11.0369 44.8998 11.372 45.652 11.6178 46.1957L11.8636 46.7914C11.8968 46.857 11.9194 46.9274 11.9306 47C11.8857 46.9429 11.8481 46.8803 11.8189 46.8138L11.5284 46.2404L10.4635 44.0434L6.69513 36.0822L6.60576 35.9035L6.80685 35.8588L14.0531 34.2427L13.9265 34.4885L10.7986 26.2518C9.43574 22.5802 8.13991 19.0874 6.95579 15.9074C6.68024 15.0957 6.31533 14.3584 5.98764 13.6211L5.03439 11.4912L3.35129 7.63349C2.33101 5.31738 1.48947 3.42577 0.893686 2.07781L0.245751 0.588344C0.14716 0.399619 0.0649486 0.202778 0 0Z" fill="#263238"/>
</svg>
