<svg width="16" height="5" viewBox="0 0 16 5" fill="none" xmlns="http://www.w3.org/2000/svg">
<path d="M0 1.71796C0.173219 1.56136 0.371145 1.43448 0.585768 1.34247C1.14993 1.03889 1.74066 0.78752 2.35058 0.591484C4.37695 -0.0587513 6.5368 -0.175137 8.62131 0.253554C10.7018 0.691395 12.6372 1.65003 14.2462 3.0397C14.7275 3.45683 15.1699 3.91681 15.5679 4.414C15.8533 4.77447 15.981 4.98475 15.9584 4.99977C15.9359 5.01478 15.3051 4.2488 14.066 3.2575C12.4613 1.95432 10.567 1.05579 8.54259 0.637572C6.51816 0.219357 4.42288 0.293691 2.43319 0.854333C0.901181 1.28991 0.0300394 1.78555 0 1.71796Z" fill="#263238"/>
</svg>
