<svg width="35" height="47" viewBox="0 0 35 47" fill="none" xmlns="http://www.w3.org/2000/svg">
<path d="M22.2422 46.4941H5.27693C4.57572 46.494 3.88316 46.3393 3.24852 46.0411C2.61387 45.743 2.05275 45.3086 1.60506 44.7689C1.15736 44.2292 0.83409 43.5975 0.658266 42.9187C0.482443 42.2399 0.458393 41.5307 0.587795 40.8415L7.49732 4.38962C7.70421 3.29744 8.2859 2.31175 9.14199 1.60269C9.99809 0.893631 11.0749 0.505691 12.1865 0.505828H29.1517C29.853 0.506848 30.5455 0.662445 31.1799 0.961547C31.8142 1.26065 32.3748 1.69591 32.8218 2.23633C33.2688 2.77676 33.5912 3.40907 33.766 4.08827C33.9409 4.76746 33.9638 5.47684 33.8333 6.16592L26.9464 42.6178C26.7374 43.7112 26.1529 44.6971 25.2938 45.4049C24.4348 46.1128 23.3553 46.4981 22.2422 46.4941Z" fill="#878787" stroke="#263238" stroke-linecap="round" stroke-linejoin="round"/>
</svg>
