<svg width="61" height="92" viewBox="0 0 61 92" fill="none" xmlns="http://www.w3.org/2000/svg">
<path d="M7.82712 0.606566C7.82712 0.606566 18.8514 -0.406551 26.251 3.94614C33.6506 8.29883 40.1721 17.4545 40.6074 18.1599C41.0426 18.8653 48.5848 29.6195 52.7949 34.6701C57.005 39.7207 60.7723 43.6757 60.4797 45.4093C60.187 47.1428 54.1007 60.351 46.8437 68.0357C39.5868 75.7205 35.1065 79.9381 34.2284 80.9662C33.3504 81.9944 27.5568 86.9174 25.2229 88.0731C22.7493 89.2883 20.0047 89.8466 17.2529 89.6941C14.3562 89.5515 11.4519 89.2589 11.4519 89.2589C11.4519 89.2589 7.39185 90.4221 4.92283 90.8573C2.4538 91.2926 -0.292901 91.8705 0.720225 90.7073C1.73335 89.544 5.65077 85.454 7.82712 84.9062C10.0035 84.3583 17.9809 82.5872 17.9809 82.5872L23.2341 81.7167C23.2341 81.7167 31.069 71.4203 31.9395 68.0808C32.8101 64.7412 39.8869 45.4168 39.8869 45.4168C39.8869 45.4168 28.1347 37.5819 25.8157 34.8277C23.4968 32.0735 19.2867 28.1561 19.2867 28.1561L16.8177 29.8972" fill="white"/>
<path d="M7.82712 0.606566C7.82712 0.606566 18.8514 -0.406551 26.251 3.94614C33.6506 8.29883 40.1721 17.4545 40.6074 18.1599C41.0426 18.8653 48.5848 29.6195 52.7949 34.6701C57.005 39.7207 60.7723 43.6757 60.4797 45.4093C60.187 47.1428 54.1007 60.351 46.8437 68.0358C39.5868 75.7205 35.1065 79.9381 34.2284 80.9662C33.3504 81.9944 27.5568 86.9174 25.2229 88.0731C22.7493 89.2883 20.0047 89.8466 17.2529 89.6941C14.3562 89.5515 11.4519 89.2589 11.4519 89.2589C11.4519 89.2589 7.39185 90.4221 4.92283 90.8573C2.4538 91.2926 -0.292901 91.8705 0.720225 90.7073C1.73335 89.544 5.65077 85.454 7.82712 84.9062C10.0035 84.3583 17.9809 82.5872 17.9809 82.5872L23.2341 81.7167C23.2341 81.7167 31.069 71.4203 31.9395 68.0808C32.8101 64.7412 39.8869 45.4168 39.8869 45.4168C39.8869 45.4168 28.1347 37.5819 25.8157 34.8277C23.4968 32.0735 19.2867 28.1561 19.2867 28.1561L16.8177 29.8972" stroke="#263238" stroke-linecap="round" stroke-linejoin="round"/>
</svg>
