<svg width="70" height="80" viewBox="0 0 70 80" fill="none" xmlns="http://www.w3.org/2000/svg">
<path d="M70 59.3026L62.2934 62.3793L45.5286 20.4263C44.5887 18.0727 43.1943 15.9273 41.4252 14.1126C39.6562 12.2978 37.547 10.8493 35.2181 9.84977C32.8892 8.85018 30.3862 8.31909 27.8521 8.28683C25.3179 8.25456 22.8023 8.72174 20.4487 9.66171C18.0951 10.6017 15.9497 11.996 14.135 13.7651C12.3202 15.5342 10.8717 17.6434 9.87216 19.9723C8.87258 22.3012 8.34149 24.8041 8.30923 27.3383C8.27696 29.8724 8.74415 32.3881 9.68412 34.7417L26.4489 76.6947L18.7423 79.7788L1.97007 37.8258C0.62559 34.4616 -0.0431106 30.8656 0.00215346 27.243C0.0474175 23.6204 0.805762 20.0422 2.23388 16.7127C3.66201 13.3832 5.73194 10.3676 8.3255 7.83804C10.9191 5.30849 13.9855 3.31457 17.3496 1.97008C20.7138 0.625595 24.3098 -0.0431106 27.9324 0.00215344C31.555 0.0474175 35.1332 0.805768 38.4627 2.23389C45.1869 5.11811 50.49 10.5554 53.2053 17.3496L70 59.3026Z" fill="#E0E0E0"/>
</svg>
