<svg width="26" height="19" viewBox="0 0 26 19" fill="none" xmlns="http://www.w3.org/2000/svg">
<path d="M18.4333 0H7.5664C6.91066 0 6.30923 0.367769 6.00481 0.954745L0.749409 11.09C0.256792 12.0409 -0.000218709 13.0961 1.39648e-07 14.167V14.2018C1.39648e-07 16.4075 1.76904 18.1954 3.95121 18.1954H9.34284L13.6904 17.3117L17.3545 18.1954H22.0485C24.2307 18.1954 25.9997 16.4074 25.9997 14.2018V14.167C25.9999 13.0961 25.7429 12.0409 25.2503 11.09L24.9525 10.5156L22.8968 8.61764L22.1974 5.20251L19.9948 0.954745C19.6905 0.367769 19.0889 0 18.4333 0Z" fill="#E28086"/>
</svg>
