<svg width="32" height="64" viewBox="0 0 32 64" fill="none" xmlns="http://www.w3.org/2000/svg">
<path d="M32 0.69467H30.0878L24.7246 0.642378L5.82642 0.358528L6.00569 0.216603C4.945 5.8263 4.086 12.2203 3.4212 18.9803C2.241 31.3874 1.74799 42.6665 1.14295 50.8159C0.851633 54.8943 0.575256 58.1884 0.395985 60.4592C0.283941 61.5797 0.186846 62.4536 0.127089 63.081C0.0897412 63.3574 0.0673205 63.5815 0.0449116 63.7608C0.0399357 63.8365 0.0274336 63.9116 0.00757251 63.9849C-0.00252417 63.908 -0.00252417 63.8302 0.00757251 63.7533C0.00757251 63.5815 0.00756339 63.35 0.0449116 63.0736C0.097199 62.4461 0.16444 61.5797 0.246606 60.4517C0.418408 58.2109 0.649947 54.8719 0.903915 50.801C1.44173 42.6516 1.88991 31.3799 3.07758 18.943C3.73491 12.168 4.60886 5.76654 5.69943 0.149379V0H5.84883L24.7395 0.425752L30.1102 0.575154L31.5294 0.627447H31.8954C31.9627 0.679734 32 0.687201 32 0.69467Z" fill="#263238"/>
</svg>
