<svg width="24" height="38" viewBox="0 0 24 38" fill="none" xmlns="http://www.w3.org/2000/svg">
<path d="M0.274631 2.47992L9.70596 0L14.6048 0.625709C15.0502 0.684958 15.4734 0.855946 15.835 1.12278C16.1965 1.38962 16.4847 1.74363 16.6726 2.15182L19.8469 9.06508C19.8469 9.06508 24.4253 12.8803 23.8988 15.1695C23.3722 17.4587 19.122 38 19.122 38L6.47823 37.6185C4.26651 34.8774 2.93642 31.5309 2.66297 28.0193C2.52562 25.135 3.62443 23.3723 3.34974 21.8462C3.1666 20.8008 3.8152 18.939 4.11279 17.5044L4.49432 16.1157L3.65495 16.5201C3.29444 16.6958 2.89764 16.7842 2.49663 16.7782C2.09563 16.7722 1.70166 16.6719 1.34658 16.4854C0.991505 16.299 0.685296 16.0316 0.45268 15.7049C0.220065 15.3782 0.0675791 15.0014 0.00755812 14.6048C0.00377632 14.5311 0.00377632 14.4573 0.00755812 14.3836C-0.0341802 13.5711 0.0973012 12.7591 0.3933 12.0013C0.689298 11.2436 1.14305 10.5574 1.72443 9.98836L6.49351 5.30321C6.49351 5.30321 1.22082 8.30965 0.274631 2.47992Z" fill="#B5715A"/>
</svg>
