<svg width="60" height="121" viewBox="0 0 60 121" fill="none" xmlns="http://www.w3.org/2000/svg">
<path d="M23.546 12.7557C18.263 15.0382 13.1931 17.7854 8.39623 20.965C0.0302455 26.4428 0.321299 31.9281 0.604892 35.6745C0.888485 39.4209 12.4337 90.3482 13.1576 93.9528C13.8815 97.5574 15.1801 104.625 15.1801 104.625C14.8787 104.768 14.6237 104.993 14.4442 105.274C14.2647 105.555 14.168 105.881 14.1651 106.214C14.1651 107.364 15.1801 112.991 15.1801 112.991C18.0514 112.981 20.9101 113.373 23.6729 114.155C28.285 115.454 33.4793 120.499 33.4793 120.499C34.4068 118.473 35.0859 116.343 35.5017 114.155C35.8548 111.351 35.4045 108.504 34.2031 105.946C33.6146 104.919 33.0839 103.86 32.6136 102.774C32.6136 102.774 31.4642 79.5493 31.315 74.2132C31.1657 68.8772 33.4792 56.4663 32.0613 50.2646C30.6433 44.0629 28.3298 33.3908 28.3298 33.3908C28.3298 33.3908 45.4946 34.2565 52.5695 30.0698C59.6444 25.8831 59.2041 18.8231 58.1891 11.8975C57.667 8.00135 56.7005 4.17779 55.3084 0.501543L34.2181 2.21057" fill="#263238"/>
<path d="M23.546 12.7557C18.263 15.0382 13.1931 17.7854 8.39623 20.965C0.0302455 26.4428 0.321299 31.9281 0.604892 35.6745C0.888485 39.4209 12.4337 90.3482 13.1576 93.9528C13.8815 97.5574 15.1801 104.625 15.1801 104.625C14.8787 104.768 14.6237 104.993 14.4442 105.274C14.2647 105.555 14.168 105.881 14.1651 106.214C14.1651 107.364 15.1801 112.991 15.1801 112.991C18.0514 112.981 20.9101 113.373 23.6729 114.155C28.285 115.454 33.4793 120.499 33.4793 120.499C34.4068 118.473 35.0859 116.343 35.5017 114.155C35.8548 111.351 35.4045 108.504 34.2031 105.946C33.6146 104.919 33.0839 103.86 32.6136 102.774C32.6136 102.774 31.4642 79.5493 31.315 74.2132C31.1657 68.8772 33.4792 56.4663 32.0613 50.2646C30.6433 44.0629 28.3298 33.3908 28.3298 33.3908C28.3298 33.3908 45.4946 34.2565 52.5695 30.0698C59.6444 25.8831 59.2041 18.8231 58.1891 11.8975C57.667 8.00135 56.7005 4.17779 55.3084 0.501543L34.2181 2.21057" stroke="#263238" stroke-linecap="round" stroke-linejoin="round"/>
</svg>
