<svg width="28" height="28" viewBox="0 0 28 28" fill="none" xmlns="http://www.w3.org/2000/svg">
<path d="M18.348 1.98802C15.9986 1.01482 16.3939 -1.13687 12.8813 2.74833L2.53341 17.3996L0.510964 18.2132C0.723853 19.7338 1.27128 22.6762 2.53341 24.6226C3.41783 25.8388 4.58403 26.8224 5.93201 27.489L6.82918 26.9644C9.95407 25.208 15.1926 22.8663 16.9794 21.8931C18.2267 21.0798 19.291 20.0155 20.1043 18.7682C20.1043 18.7682 21.6629 20.9123 22.8338 19.9391C24.0047 18.9659 26.3465 12.5184 26.3465 12.5184C26.3465 12.5184 27.0307 8.31385 27.1752 6.70958C27.3197 5.10532 20.6897 2.95362 18.348 1.98802Z" fill="#263238" stroke="#263238" stroke-linecap="round" stroke-linejoin="round"/>
</svg>
