<svg width="99" height="127" viewBox="0 0 99 127" fill="none" xmlns="http://www.w3.org/2000/svg">
<path d="M44.6382 1.9378L43.3423 3.956C43.3423 3.956 34.1301 6.54763 22.7582 15.6109C11.3862 24.6742 1.90587 35.4802 0.73665 39.7996C-0.432568 44.119 3.03785 52.0354 4.62411 55.342C6.21037 58.6486 21.5517 75.1963 26.3254 79.2402C31.0991 83.284 48.6671 97.1136 49.2108 97.3742C49.7544 97.6349 64.4702 108.314 64.4702 108.314C64.4702 108.314 64.3287 116.231 62.3105 118.681C60.2923 121.131 56.1218 123.432 56.4123 125.011C56.7027 126.59 65.766 126.888 68.4991 126.024C71.2323 125.16 74.6952 124.006 75.5591 122.851C76.423 121.697 82.0308 110.042 83.3266 107.741C84.6224 105.44 85.6352 102.699 84.7714 99.8244C83.9075 96.9498 79.8711 95.7954 78.5753 95.356C77.2794 94.9167 74.5463 94.0602 74.1069 93.7698C73.6675 93.4793 53.5227 77.788 52.8078 76.4922C52.0929 75.1963 38.658 61.6721 37.3994 60.1082C36.1409 58.5443 28.0457 45.8542 28.0457 45.8542C28.0457 45.8542 39.4176 37.7963 46.9021 34.1993C54.3866 30.6023 74.8293 32.33 81.1595 30.0214C87.4896 27.7127 96.4188 25.27 97.5434 18.5079C98.6679 11.7458 97.2529 0.634532 97.2529 0.634532L44.6382 0.500487V1.9378Z" fill="#263238" stroke="#263238" stroke-linecap="round" stroke-linejoin="round"/>
</svg>
