<svg width="5" height="5" viewBox="0 0 5 5" fill="none" xmlns="http://www.w3.org/2000/svg">
<path d="M4.81461 2.49583C4.81461 2.49583 4.76407 2.29366 4.65458 1.95674C4.50399 1.48758 4.20924 1.07789 3.81228 0.785968C3.4958 0.554818 3.12152 0.415788 2.73088 0.384305C2.34024 0.352821 1.94851 0.43012 1.5991 0.607602C1.24968 0.785085 0.956228 1.05583 0.751249 1.38985C0.54627 1.72388 0.437779 2.10814 0.437779 2.50004C0.437779 2.89195 0.54627 3.27618 0.751249 3.61021C0.956228 3.94423 1.24968 4.215 1.5991 4.39248C1.94851 4.56996 2.34024 4.64724 2.73088 4.61575C3.12152 4.58427 3.4958 4.44527 3.81228 4.21411C4.20924 3.92219 4.50399 3.51248 4.65458 3.04331C4.76407 2.70639 4.7725 2.49583 4.81461 2.49583C4.86726 2.68884 4.86726 2.89241 4.81461 3.08542C4.70856 3.62965 4.40943 4.11723 3.97232 4.45836C3.6487 4.71949 3.26378 4.89369 2.854 4.96444C2.44423 5.03519 2.02318 5.00017 1.63074 4.86267C1.15131 4.68082 0.738535 4.35742 0.447264 3.93542C0.155992 3.51342 0 3.0128 0 2.50004C0 1.98728 0.155992 1.48666 0.447264 1.06466C0.738535 0.642659 1.15131 0.319233 1.63074 0.137384C2.02318 -0.000111254 2.44423 -0.0351331 2.854 0.0356188C3.26378 0.106371 3.6487 0.280563 3.97232 0.541695C4.40943 0.882824 4.70856 1.37041 4.81461 1.91464C4.86869 2.10459 4.86869 2.30587 4.81461 2.49583Z" fill="#263238"/>
</svg>
