<svg width="5" height="4" viewBox="0 0 5 4" fill="none" xmlns="http://www.w3.org/2000/svg">
<path d="M0 1.93455C0.00800861 2.47905 0.227866 2.99899 0.612925 3.38405C0.997985 3.76911 1.51793 3.98897 2.06243 3.99698C2.32834 4.01158 2.59449 3.97293 2.84527 3.88332C3.09605 3.7937 3.32641 3.65491 3.52284 3.47509C3.71927 3.29527 3.87782 3.07803 3.98919 2.83613C4.10056 2.59422 4.1625 2.33252 4.17139 2.06636C4.16538 1.52257 3.94722 1.00262 3.56341 0.617352C3.17959 0.232087 2.66047 0.011972 2.11671 0.0039185C1.84993 -0.0128368 1.5825 0.0242566 1.33035 0.112988C1.0782 0.201719 0.846482 0.340276 0.648986 0.52041C0.45149 0.700543 0.292259 0.918572 0.180765 1.16152C0.0692707 1.40446 0.00779518 1.66736 0 1.93455Z" fill="#263238"/>
</svg>
