<svg width="26" height="43" viewBox="0 0 26 43" fill="none" xmlns="http://www.w3.org/2000/svg">
<path d="M0.0150919 43C0.00369364 42.8193 0.00369364 42.638 0.0150919 42.4572C0.0150919 42.1029 0.0150919 41.5828 0.0150919 40.9043C0.0678619 39.5624 0.196006 37.6099 0.497549 35.2202C0.844429 32.43 1.34779 29.6615 2.00526 26.9278C2.81958 23.5581 4.08759 20.3145 5.77455 17.2859C7.47823 14.267 9.56346 11.48 11.9788 8.99351C13.9506 6.96207 16.1341 5.14751 18.4921 3.58082C19.4797 2.89481 20.4446 2.37466 21.2739 1.89219C22.1031 1.40972 22.857 1.08555 23.4676 0.791541L24.8999 0.188464C25.0607 0.107084 25.2302 0.0438731 25.405 0C25.2496 0.0931164 25.0885 0.1762 24.9225 0.248763L23.5204 0.904638C22.9248 1.21372 22.1936 1.59818 21.3568 2.05049C20.52 2.50281 19.6003 3.08328 18.6203 3.77683C13.4364 7.31001 9.1383 11.9925 6.06102 17.4593C2.40481 23.852 1.40219 30.5764 0.67849 35.2881C0.346793 37.6702 0.180945 39.6077 0.0904822 40.9495C0.0527893 41.5978 0.0226157 42.118 0 42.4949C0.0200526 42.6625 0.0251131 42.8315 0.0150919 43Z" fill="#263238"/>
</svg>
