<svg width="19" height="55" viewBox="0 0 19 55" fill="none" xmlns="http://www.w3.org/2000/svg">
<path d="M18.8352 55C18.8352 55 18.8352 54.9477 18.8352 54.8429V54.3717C18.8352 53.9304 18.7978 53.3245 18.7754 52.5616C18.7305 50.9608 18.6632 48.6869 18.5809 45.8969C18.4986 43.1069 18.3789 39.7335 18.177 36.0234C17.975 32.3134 17.6908 28.2218 17.1298 23.9732C16.8934 21.904 16.4881 19.8577 15.918 17.8546C14.786 14.3317 13.0607 11.028 10.8167 8.08582C9.87902 6.88034 8.84865 5.74993 7.73496 4.70489C6.10611 3.19622 4.26368 1.93601 2.26713 0.964919C1.91557 0.80036 1.6014 0.643269 1.32465 0.53107L0.576652 0.254315L0.142826 0.074804C0.0455864 0.0299243 -0.00677502 0.00747994 0.00070492 0L0.150313 0.0448778L0.599091 0.186999L1.34709 0.441314C1.63132 0.546033 1.94549 0.695623 2.312 0.852702C4.3412 1.78688 6.21744 3.0226 7.87708 4.51789C9.01006 5.56239 10.0581 6.69544 11.0112 7.90631C12.102 9.31413 13.0657 10.816 13.891 12.3943C14.8019 14.1224 15.553 15.93 16.1349 17.7948C16.7151 19.8115 17.1254 21.8731 17.3616 23.9583C17.9301 28.2293 18.1919 32.3133 18.3864 36.0309C18.5809 39.7484 18.6632 43.1069 18.723 45.9194C18.7828 48.7318 18.8053 51.0132 18.8128 52.584V54.4016C18.8128 54.5886 18.8128 54.7457 18.8128 54.8729C18.8245 54.9144 18.8321 54.957 18.8352 55Z" fill="#263238"/>
</svg>
