<svg width="94" height="113" viewBox="0 0 94 113" fill="none" xmlns="http://www.w3.org/2000/svg">
<path d="M40.202 0.523583C40.202 0.523583 22.3736 3.01822 12.7834 15.2897C3.1933 27.5612 2.81239 36.7629 2.43147 43.0891C2.05055 49.4153 2.43147 83.5484 2.43147 84.3103C2.43147 85.0721 1.08706 94.2813 1.47545 97.1569C1.86383 100.032 2.81239 99.0764 2.81239 99.0764C2.81239 99.0764 0.325233 103.296 0.511957 104.641C0.69868 105.985 4.92611 112.498 4.92611 112.498C4.92611 112.498 23.718 98.8822 26.2051 98.1204C28.6923 97.3585 39.2459 98.1204 39.2459 98.1204L57.8436 97.1569C57.8436 97.1569 58.232 84.1235 58.232 82.0098C58.232 79.8961 63.0196 54.7855 63.0196 54.7855L65.32 53.4411C65.32 53.4411 80.6613 55.1664 84.687 53.8295C88.7128 52.4925 92.9029 42.8949 92.9029 42.8949C92.9029 42.8949 87.5327 34.4625 84.687 31.9679C81.8413 29.4732 81.2364 28.7114 80.4745 27.367C79.7127 26.0226 78.7417 23.5279 73.5658 17.3959C68.3898 11.2639 54.5872 -0.0589946 40.202 0.523583Z" fill="#1A0161" stroke="#263238" stroke-linecap="round" stroke-linejoin="round"/>
</svg>
