<svg width="60" height="94" viewBox="0 0 60 94" fill="none" xmlns="http://www.w3.org/2000/svg">
<path d="M51.3788 59.7625C50.018 52.7556 45.7628 30.3065 39.4927 18.6008C33.2226 6.89512 26.0578 2.27148 19.096 0.557347C16.4532 -0.160886 13.6698 -0.185356 11.0148 0.486303C8.35978 1.15796 5.92285 2.50305 3.9395 4.39159C0.879624 7.26351 0 15.4282 0 15.4282C0 15.4282 16.788 18.7437 22.6295 28.1338C29.3507 38.9148 31.0423 44.3804 31.0423 44.3804L33.2977 50.3122C33.2977 50.3122 35.072 79.1893 34.4856 84.8956L59.7014 94C54.2883 82.8657 52.7471 66.7919 51.3788 59.7625Z" fill="#263238"/>
</svg>
