<svg width="13" height="15" viewBox="0 0 13 15" fill="none" xmlns="http://www.w3.org/2000/svg">
<path d="M12.5035 0C12.5035 0.0747369 11.3824 0.31389 9.67843 1.06873C7.45681 2.05359 5.54501 3.62437 4.14789 5.61274C2.77472 7.61565 1.70209 9.80876 0.964102 12.1223C0.366206 13.8936 0.0672633 15.0221 0 14.9997C0.0137781 14.7264 0.0589108 14.4556 0.134521 14.1925C0.239153 13.6769 0.440938 12.9444 0.702518 12.0401C1.37351 9.66351 2.43151 7.41368 3.834 5.38106C4.6262 4.26578 5.58388 3.27785 6.674 2.45137C7.56534 1.78617 8.53714 1.23624 9.56632 0.81463C9.95822 0.647905 10.3601 0.505626 10.7696 0.388624C11.0722 0.282413 11.3819 0.197506 11.6963 0.134521C11.9582 0.0541418 12.2297 0.00890956 12.5035 0Z" fill="#455A64"/>
</svg>
