<svg width="5" height="5" viewBox="0 0 5 5" fill="none" xmlns="http://www.w3.org/2000/svg">
<path d="M4.81319 2.5C4.75241 2.32045 4.70179 2.13762 4.66154 1.95238C4.51092 1.4831 4.21609 1.07328 3.81904 0.781286C3.52936 0.575067 3.19336 0.443354 2.8407 0.397803C2.48805 0.352252 2.1296 0.394267 1.79703 0.520111C1.39407 0.671319 1.04684 0.941883 0.801727 1.29566C0.556611 1.64945 0.425263 2.0696 0.425263 2.5C0.425263 2.9304 0.556611 3.35053 0.801727 3.70432C1.04684 4.0581 1.39407 4.32869 1.79703 4.47989C2.13028 4.60454 2.48911 4.64514 2.84178 4.59811C3.19445 4.55109 3.5301 4.41789 3.81904 4.21029C4.21777 3.91996 4.51303 3.50953 4.66154 3.03919C4.70089 2.85649 4.75153 2.67643 4.81319 2.5C4.81319 2.5 4.88901 2.70221 4.81319 3.08133C4.70202 3.62604 4.40401 4.11476 3.97068 4.46303C3.64492 4.72354 3.25809 4.89662 2.84677 4.96591C2.43545 5.0352 2.01322 4.99841 1.62009 4.85901C1.14327 4.6756 0.73325 4.35201 0.444032 3.93088C0.154815 3.50976 0 3.01088 0 2.5C0 1.98913 0.154815 1.49025 0.444032 1.06912C0.73325 0.647998 1.14327 0.324383 1.62009 0.140974C2.01322 0.00156685 2.43545 -0.0352246 2.84677 0.0340664C3.25809 0.103357 3.64492 0.276441 3.97068 0.536952C4.40508 0.880681 4.70359 1.36725 4.81319 1.91024C4.89744 2.28937 4.83846 2.5 4.81319 2.5Z" fill="#263238"/>
</svg>
