<svg width="8" height="81" viewBox="0 0 8 81" fill="none" xmlns="http://www.w3.org/2000/svg">
<path d="M7.45433 81C7.42992 80.9346 7.41471 80.8662 7.40914 80.7966L7.31875 80.1865C7.25096 79.6216 7.15304 78.8308 7.025 77.8365C6.76891 75.7577 6.40736 72.8126 5.96297 69.1821C5.07418 61.876 3.81633 51.7755 2.63379 40.6054C2.03876 35.0166 1.54164 29.6914 1.12738 24.8332C0.713111 19.9751 0.449488 15.6065 0.291314 11.9233C0.185865 10.0854 0.133148 8.42086 0.0879559 6.95964C0.0427634 5.49841 0.00510257 4.24055 0.00510257 3.19359C0.00510257 2.14664 0.00510257 1.39343 0.00510257 0.820994V0.210897C-0.00170086 0.140763 -0.00170086 0.0701348 0.00510257 0C0.0148889 0.0674355 0.0148889 0.135922 0.00510257 0.203358C0.00510257 0.369064 0.00510487 0.572435 0.0427653 0.820994C0.0427653 1.39343 0.0728899 2.1843 0.133147 3.19359C0.133147 4.21796 0.208465 5.45322 0.283786 6.95964C0.359107 8.46605 0.426893 10.0854 0.539874 11.9157C0.735708 15.5914 1.07466 19.96 1.46633 24.8107C1.858 29.6613 2.39277 34.9865 2.97274 40.5753C4.16281 51.7379 5.37547 61.8384 6.18893 69.152C6.5806 72.79 6.94214 75.7501 7.13044 77.8214C7.22836 78.8232 7.30368 79.6141 7.35641 80.1865C7.35641 80.4376 7.37147 80.641 7.4016 80.7966C7.43039 80.861 7.44821 80.9297 7.45433 81Z" fill="#263238"/>
</svg>
