<svg width="68" height="114" viewBox="0 0 68 114" fill="none" xmlns="http://www.w3.org/2000/svg">
<path d="M7.97166 1.76093C7.97166 1.76093 45.2696 7.49335 52.1337 11.5284C58.9977 15.5634 69.9116 21.4745 67.0231 32.5597C64.1345 43.6448 46.7586 84.3748 46.565 85.1342C46.42 86.5314 46.3554 87.9358 46.3715 89.3404C47.009 89.8712 47.4214 90.6242 47.5254 91.4473C47.4108 92.9204 47.2195 94.3865 46.9522 95.8397L53.831 102.726C53.831 102.726 63.1965 107.506 63.0104 109.426C62.8242 111.347 58.8041 112.292 56.8908 112.866C54.9775 113.439 48.4783 113.059 45.225 112.292C41.9716 111.526 33.5666 106.746 30.1271 105.592C26.6877 104.438 22.2878 104.066 22.0943 101.58C21.9007 99.093 26.3005 93.3531 27.0673 91.2537C27.8341 89.1543 28.7871 82.4615 29.74 80.9279C30.5467 79.8419 31.1311 78.6073 31.4597 77.2949C31.8468 75.7687 39.6489 36.7659 39.6489 36.7659C39.6489 36.7659 6.3785 7.32212 5.23202 5.98952C4.08553 4.65692 -1.11832 0.569776 1.00342 0.502774C3.12516 0.435772 7.97166 1.76093 7.97166 1.76093Z" fill="#263238" stroke="#263238" stroke-linecap="round" stroke-linejoin="round"/>
</svg>
