<svg width="75" height="41" viewBox="0 0 75 41" fill="none" xmlns="http://www.w3.org/2000/svg">
<path d="M74.9998 0C74.9815 0.100361 74.9514 0.198192 74.9101 0.291477L74.5962 1.12111L74.0731 2.46643C73.8414 2.98962 73.5873 3.59502 73.2883 4.26768C72.6829 5.62049 71.8906 7.25732 70.8966 9.11088C69.9025 10.9645 68.6544 13.0198 67.1595 15.2022C63.6449 20.3305 59.4823 24.983 54.775 29.0442C52.0076 31.4562 49.0312 33.6172 45.8809 35.5018C42.4987 37.5541 38.8021 39.0363 34.9389 39.8891C31.0509 40.7332 27.0174 40.6358 23.1747 39.605C21.3532 39.0996 19.6103 38.345 17.9952 37.3628C16.4559 36.4083 15.0637 35.2351 13.862 33.8799C11.7173 31.3354 9.87391 28.5516 8.36858 25.5837C6.87377 22.8557 5.51349 20.2921 4.37744 17.9004C3.34127 15.7513 2.44015 13.5396 1.6793 11.2784C1.11452 9.56862 0.674886 7.82005 0.363868 6.04651C0.0930885 4.53493 -0.027093 3.00022 0.0051046 1.46491C0.0130483 1.5669 0.0130483 1.66936 0.0051046 1.77135C0.0051046 1.9881 0.00511007 2.27958 0.0574285 2.65328C0.140939 3.78351 0.283132 4.90863 0.483444 6.02409C0.81833 7.78595 1.2779 9.52181 1.85868 11.2186C2.63891 13.461 3.55236 15.6548 4.59418 17.7883C5.74518 20.165 7.12041 22.7137 8.6227 25.4342C10.1238 28.3762 11.9597 31.1349 14.0937 33.6557C15.2789 34.9783 16.6483 36.1236 18.1596 37.0564C19.7482 38.0136 21.4608 38.748 23.2494 39.2388C27.0325 40.246 31.001 40.3383 34.8268 39.5079C38.6483 38.6608 42.3062 37.1967 45.6567 35.1729C48.79 33.3029 51.7536 31.1622 54.5134 28.7751C59.2081 24.7432 63.3698 20.1294 66.898 15.0453C68.3928 12.8778 69.6335 10.8224 70.6798 9.00623C71.7262 7.19004 72.496 5.54576 73.1239 4.2079C73.4303 3.53523 73.6994 2.9373 73.9385 2.42159L74.4916 1.09121L74.8429 0.276537C74.8845 0.178686 74.9372 0.0859091 74.9998 0Z" fill="#263238"/>
</svg>
