<svg width="66" height="67" viewBox="0 0 66 67" fill="none" xmlns="http://www.w3.org/2000/svg">
<path d="M21.8779 0C22.8691 3.75429 22.905 7.69696 21.9823 11.4687C21.0596 15.2404 19.2076 18.7212 16.5952 21.5939C14.1967 24.1792 11.1407 26.2938 9.62388 29.4768C7.94269 33.0036 8.48814 37.1505 7.74094 40.9911C6.99375 44.8317 3.73598 48.9114 0 47.9849C3.5417 53.2152 8.92151 57.0334 14.6899 59.656C20.4582 62.2787 26.645 63.8179 32.7944 65.3497C36.2165 66.194 39.9077 67.0309 43.1804 65.7158C47.417 64.0197 49.5241 59.3646 51.2202 55.128L65.9997 18.2091" fill="#263238"/>
</svg>
