<svg width="43" height="23" viewBox="0 0 43 23" fill="none" xmlns="http://www.w3.org/2000/svg">
<path d="M39.2946 15.3171C35.4563 13.7759 30.2639 9.33156 30.2639 9.33156L27.3833 3.34598C23.1481 4.50543 18.7217 4.79306 14.3721 4.19145C11.207 3.59696 8.20343 2.33991 5.55838 0.502821C4.32796 1.81379 3.016 3.04579 1.63035 4.19145C-1.26518 6.38367 2.01942 9.68321 4.71293 11.2245C7.40644 12.7658 13.9382 17.5617 17.5819 18.9085C21.2256 20.2552 26.4256 22.3651 31.4161 22.3651C36.4065 22.3651 41.2175 21.617 41.9881 20.0607C42.7588 18.5045 43.1703 16.8509 39.2946 15.3171Z" fill="#1A0161" stroke="#263238" stroke-linecap="round" stroke-linejoin="round"/>
</svg>
