<svg width="52" height="37" viewBox="0 0 52 37" fill="none" xmlns="http://www.w3.org/2000/svg">
<path d="M12.6488 3.79085C12.6488 3.79085 7.83908 6.43807 6.22838 9.83098C4.61768 13.2239 2.78326 13.8726 0.904106 17.0344C-0.975044 20.1961 4.31194 17.2656 4.31194 17.2656C4.31194 17.2656 0.844451 22.56 2.55955 23.5518C4.27465 24.5435 9.85244 19.0776 9.85244 19.0776C9.85244 19.0776 9.43487 20.1141 11.411 19.7114C13.3871 19.3088 18.8679 15.5952 18.8679 15.5952C18.8679 15.5952 19.1065 23.3579 20.24 23.3952C22.2675 23.7524 24.2739 24.2204 26.2503 24.7971L31.4701 32.254C31.4701 32.254 34.1248 30.9118 34.2218 30.5315C34.3187 30.1512 32.1114 24.5659 32.365 23.0223C32.6185 21.4787 35.7281 19.4877 37.3388 20.8673C39.1183 22.5821 40.3087 24.8168 40.7391 27.2504C40.8883 29.1221 42.5213 32.254 42.5661 32.8729C42.6108 33.4919 41.0747 36.1316 41.0747 36.1316C42.6096 36.515 44.2277 36.3867 45.6831 35.7662C47.8605 34.7148 49.3668 29.9498 49.3668 29.9498C49.3668 29.9498 50.2244 30.7925 50.2244 31.1951C50.3205 30.3507 50.5521 29.5273 50.9104 28.7567C51.6561 27.1907 51.7605 26.803 50.8284 24.6181C49.8962 22.4332 45.4668 18.7719 45.4668 18.7719C45.4668 18.7719 45.6756 13.4849 43.5877 9.38356C41.4997 5.28224 36.3619 2.18016 33.2598 1.0467C30.1577 -0.0867547 25.7134 0.897553 25.7134 0.897553C25.7134 0.897553 16.1461 0.37557 12.6488 3.79085Z" fill="#263238" stroke="#263238" stroke-linecap="round" stroke-linejoin="round"/>
</svg>
