<svg width="40" height="16" viewBox="0 0 40 16" fill="none" xmlns="http://www.w3.org/2000/svg">
<path d="M39.4906 15.3194C38.3009 12.1669 34.6861 7.49889 25.6153 4.37674C12.7857 -0.0488187 3.78298 0.534683 3.78298 0.534683C3.78298 0.534683 1.13068 10.424 0.835136 11.4546C0.758873 11.6517 0.648571 11.8338 0.509275 11.9926L1.42622 12.7504C2.75237 13.9326 5.10913 13.9326 5.55624 13.3415C6.00334 12.7505 9.09517 10.8332 11.4595 9.50705C13.8239 8.1809 17.2112 10.6892 17.2112 10.6892C17.2112 10.6892 20.7502 13.7886 21.758 13.1976C22.7659 12.6065 22.6447 12.3109 23.8268 11.8638C25.009 11.4167 26.7747 10.6892 26.7747 10.6892L39.4906 15.3194Z" fill="#263238" stroke="#263238" stroke-linecap="round" stroke-linejoin="round"/>
</svg>
