<svg width="20" height="44" viewBox="0 0 20 44" fill="none" xmlns="http://www.w3.org/2000/svg">
<path d="M12.9767 12.1197C12.9767 12.1197 12.9767 12.3019 12.9159 12.6664C12.7033 14.3144 11.7844 20.382 10.3947 29.3734L10.3112 29.2215C12.0569 29.876 13.5028 31.1469 14.3758 32.7943C15.2487 34.4417 15.4885 36.3517 15.0498 38.1637C14.6111 39.9758 13.5243 41.5646 11.9944 42.6303C10.4646 43.696 8.59763 44.1648 6.74583 43.9483C4.89403 43.7318 3.18551 42.845 1.94275 41.4551C0.700002 40.0653 0.00897206 38.2687 8.67585e-05 36.4043C-0.00879854 34.5399 0.665077 32.7367 1.89453 31.3351C3.12398 29.9335 4.82396 29.0304 6.67362 28.7963C6.9546 28.7507 7.23558 28.7431 7.50897 28.7203L7.31912 28.8874C8.29116 22.7514 9.22521 16.8356 10.0985 11.2919C10.539 8.52009 10.9643 5.83938 11.3743 3.27259C11.4731 2.62709 11.5794 1.99679 11.6781 1.36648C11.7295 1.01664 11.8951 0.693612 12.1492 0.44774C12.4034 0.201867 12.7317 0.0469496 13.083 0.00713138C13.4272 -0.0258394 13.7726 0.0561327 14.0652 0.24024C14.3579 0.424347 14.5813 0.700225 14.7006 1.02475C14.7983 1.34139 14.7983 1.68014 14.7006 1.99679V2.21701V2.27776L14.374 2.2322V2.18664V2.08032L14.4499 1.63986L14.7689 1.69302L14.6778 2.27776L14.5411 2.0955L18.4444 2.71822H18.5963V2.8701C18.5052 3.41687 18.4292 3.91808 18.3457 4.38892V4.5332H18.2014L15.7637 4.13831L15.9232 4.0244C15.8169 4.6699 15.7257 5.24704 15.6346 5.809L15.5207 5.65712L17.6395 5.99885H17.761V6.12795C17.6395 6.88736 17.5331 7.52527 17.4268 8.15558L17.3281 8.01888L19.6063 8.391H19.7126V8.49731C19.4291 10.1984 19.176 11.6894 18.9532 12.9702V13.0538H18.8697L14.5487 12.2943L13.4172 12.0969L13.0299 12.021H13.3944L14.5107 12.1804L18.9001 12.8183L18.8014 12.8867C18.9988 11.6033 19.219 10.1148 19.4772 8.41378L19.5683 8.53528L17.2901 8.19354H17.1762V8.07964L17.4876 6.04442L17.5939 6.18871L15.4827 5.86217H15.346V5.73307C15.4296 5.16351 15.5207 4.58636 15.6194 3.94087V3.80417H15.7561L18.2014 4.17628L18.0267 4.29779C18.1103 3.80418 18.1862 3.30297 18.2698 2.77898L18.3989 2.95364L14.4879 2.34611H14.3284V2.18664L14.4196 1.5943L14.7385 1.64745L14.6702 2.08791V2.19423V2.23979C14.0171 2.13347 14.4955 2.23979 14.3436 2.17904V2.12588V1.90565C14.424 1.64334 14.424 1.36299 14.3436 1.10068C14.2506 0.845942 14.0755 0.629365 13.8459 0.485017C13.6164 0.340669 13.3453 0.27674 13.0754 0.3033C12.798 0.334662 12.5389 0.457802 12.3394 0.653165C12.1399 0.848529 12.0114 1.10492 11.9743 1.38166L11.6781 3.28018L10.4251 11.3071C9.55936 16.8508 8.62529 22.7666 7.66844 28.9026V29.0545H7.50137C7.24317 29.0545 6.96977 29.0545 6.70398 29.1228C5.19429 29.3298 3.78539 29.9979 2.66983 31.0359C1.55427 32.0739 0.78653 33.4312 0.471565 34.9221C0.156599 36.413 0.309767 37.9647 0.910157 39.3653C1.51055 40.7658 2.52885 41.9467 3.82584 42.7466C5.42981 43.7412 7.35381 44.0836 9.20243 43.7034C10.7871 43.3696 12.2196 42.528 13.2826 41.3064C14.3456 40.0848 14.9812 38.5497 15.0928 36.9342C15.2045 35.3186 14.7862 33.7108 13.9013 32.3545C13.0164 30.9982 11.7133 29.9676 10.1897 29.419L10.0833 29.381V29.2671C11.5262 20.2757 12.521 14.2156 12.8172 12.5601C12.9387 12.264 12.9767 12.1197 12.9767 12.1197Z" fill="#263238"/>
</svg>
