<svg width="7" height="19" viewBox="0 0 7 19" fill="none" xmlns="http://www.w3.org/2000/svg">
<path d="M5.78926 18.8637C5.78926 18.7311 4.3857 18.5206 2.101 18.2788C1.52398 18.2321 0.978145 18.1307 0.868979 17.733C0.810948 17.1389 0.933222 16.5411 1.21987 16.0176C1.73451 14.6062 2.27255 13.1324 2.83398 11.5807C5.07189 5.27246 6.67818 0.0948501 6.42086 0.00127891C6.16354 -0.0922923 4.14397 4.96055 1.90606 11.2688C1.37582 12.8283 0.861183 14.3099 0.346541 15.7212C-0.00329071 16.4268 -0.0917057 17.2335 0.0970124 17.9981C0.184463 18.2129 0.32216 18.4037 0.498541 18.5543C0.674921 18.7049 0.884843 18.811 1.1107 18.8637C1.43224 18.9416 1.76239 18.9783 2.0932 18.9728C4.37789 19.0274 5.78926 19.004 5.78926 18.8637Z" fill="#263238"/>
</svg>
