<svg width="12" height="12" viewBox="0 0 12 12" fill="none" xmlns="http://www.w3.org/2000/svg">
<path d="M11.5886 6.97844C11.6346 6.16021 11.5484 5.33992 11.3333 4.54913C11.0692 3.65296 10.5821 2.83843 9.91756 2.18172C9.07088 1.32279 7.96892 0.76097 6.77646 0.580247L6.87704 0.247578L8.07624 0.773662L6.77646 0.580247C5.76168 0.424029 4.72347 0.551729 3.77678 0.949193C2.83008 1.34666 2.01185 1.99837 1.41272 2.83219C0.813595 3.666 0.456932 4.64938 0.382229 5.6734C0.307525 6.69742 0.517711 7.72215 0.989486 8.63409C1.48403 9.61784 2.26668 10.4275 3.2331 10.9551C4.0466 11.4107 4.96108 11.6557 5.89339 11.6678C6.8257 11.68 7.74626 11.4589 8.57137 11.0247C9.69698 10.4274 10.5943 9.47565 11.1245 8.31688C11.3029 7.88193 11.4578 7.43773 11.5886 6.98618C11.6058 7.10678 11.6058 7.2292 11.5886 7.3498C11.5305 7.70209 11.4345 8.04706 11.3024 8.37876C10.8077 9.60952 9.90308 10.6316 8.74157 11.2723C8.05219 11.6505 7.29417 11.8872 6.51205 11.9684C5.72993 12.0497 4.93946 11.9738 4.18705 11.7454C3.43464 11.5169 2.73547 11.1404 2.13057 10.638C1.52567 10.1356 1.02723 9.51745 0.664537 8.81976C0.160058 7.84627 -0.06445 6.7519 0.015962 5.65841C0.096374 4.56492 0.47857 3.51519 1.12003 2.62597C1.76148 1.73675 2.63704 1.04292 3.64933 0.621659C4.66161 0.200397 5.77091 0.0682159 6.85384 0.239833L6.75326 0.572514L5.49993 0L6.85384 0.239833C8.11348 0.448338 9.27068 1.06224 10.1496 1.98831C10.8254 2.69287 11.3101 3.55835 11.5577 4.50271C11.7115 5.10362 11.7689 5.72512 11.7279 6.34403C11.7055 6.56006 11.6588 6.77288 11.5886 6.97844Z" fill="#263238"/>
</svg>
