<svg width="14" height="19" viewBox="0 0 14 19" fill="none" xmlns="http://www.w3.org/2000/svg">
<path d="M13.4992 8.14955C13.4992 8.14955 13.4992 2.0496 11.1801 0.886279C8.86088 -0.277039 4.21506 1.32625 3.92423 3.93626C3.66213 5.77896 3.17373 7.5823 2.47008 9.30541C2.47008 9.30541 -0.289065 13.0862 0.725109 15.1145C1.73928 17.1429 3.77509 18.597 6.24341 17.4412C8.71173 16.2853 8.57005 14.8237 8.57005 14.8237" fill="white"/>
<path d="M13.4992 8.14955C13.4992 8.14955 13.4992 2.0496 11.1801 0.886279C8.86088 -0.277039 4.21506 1.32625 3.92423 3.93626C3.66213 5.77896 3.17373 7.5823 2.47008 9.30541C2.47008 9.30541 -0.289065 13.0862 0.725109 15.1145C1.73928 17.1429 3.77509 18.597 6.24341 17.4412C8.71173 16.2853 8.57005 14.8237 8.57005 14.8237" stroke="#263238" stroke-linecap="round" stroke-linejoin="round"/>
</svg>
