<svg width="14" height="12" viewBox="0 0 14 12" fill="none" xmlns="http://www.w3.org/2000/svg">
<path d="M13.9985 11.7064C13.2602 11.209 12.5565 10.662 11.8924 10.0691C10.5231 8.96026 8.79653 7.55371 6.87648 6.00576C4.95642 4.45781 3.15544 2.94707 1.93494 1.84564C1.31725 1.30237 0.826068 0.848413 0.491174 0.528404C0.305103 0.374452 0.139978 0.196799 0 0C0.741759 0.495902 1.44799 1.04299 2.11355 1.63727L7.12207 5.70063C9.07933 7.29324 10.8431 8.75932 12.0636 9.86075C12.6813 10.404 13.1799 10.858 13.5074 11.178C13.8348 11.498 14.0209 11.6915 13.9985 11.7064Z" fill="#884C3B"/>
</svg>
