<svg width="8" height="7" viewBox="0 0 8 7" fill="none" xmlns="http://www.w3.org/2000/svg">
<path d="M0.343891 3.03132C0.797999 2.23747 1.42354 1.55495 2.17489 1.03352C2.92624 0.512094 3.78447 0.164895 4.68703 0.0172363C5.21223 -0.0433199 5.74346 0.0565196 6.21085 0.303626C6.67823 0.550732 7.05987 0.933529 7.30556 1.40166C7.56902 2.01448 7.68071 2.68183 7.63113 3.34704C7.58155 4.01225 7.37216 4.65567 7.02076 5.22267C6.68294 5.81909 6.17763 6.30334 5.56738 6.6155C4.95713 6.92766 4.26873 7.054 3.5874 6.97889C2.46023 6.68258 1.44678 6.05744 0.676163 5.18311C0.413406 4.97319 0.206818 4.70138 0.0749207 4.39201C0.00656912 4.19339 -0.0154237 3.98176 0.0106295 3.77334C0.0366827 3.56491 0.110093 3.36522 0.225231 3.18954" fill="#884C3B"/>
</svg>
