<svg width="23" height="123" viewBox="0 0 23 123" fill="none" xmlns="http://www.w3.org/2000/svg">
<path d="M14.1891 123C14.1891 123 14.1891 122.858 14.2935 122.59C14.3978 122.322 14.4798 121.912 14.6288 121.398L15.8883 116.8C16.9465 112.798 18.4444 106.992 19.8305 99.7265C20.5236 96.0972 21.1868 92.0953 21.6414 87.8028C21.8575 85.6416 22.0215 83.3985 22.0737 81.0957C22.1462 78.7217 22.0166 76.3458 21.6861 73.9937C21.5022 72.7793 21.2155 71.5826 20.8291 70.4166C20.4342 69.2317 20.0839 68.0244 19.5548 66.847L18.8096 65.0584L18.0047 63.2848C17.4831 62.0924 16.8869 60.915 16.2981 59.7226C13.9134 54.9755 11.1263 50.2135 8.10063 45.444C5.49233 41.3229 2.81696 37.3508 0.104332 33.5949L0 33.4458L0.141584 33.3341L19.5995 17.3638L19.7262 17.6619L2.58593 19.6368L2.24313 19.674L2.45924 19.4057C7.3554 13.4439 11.3275 8.55521 14.0774 5.17932L17.2446 1.32651L18.0792 0.327902C18.273 0.104334 18.3773 0 18.3773 0L18.109 0.357695L17.3117 1.37865L14.1891 5.20168L2.67537 19.5101L2.54868 19.2865L19.6889 17.252L20.2628 17.185L19.8156 17.5501L0.380062 33.5725L0.417326 33.3117C3.13741 37.0751 5.81278 41.0472 8.42853 45.1757C11.4094 49.9527 14.2413 54.7221 16.626 59.499C17.2222 60.6914 17.8184 61.8689 18.3401 63.0761L19.1449 64.8572L19.8901 66.6532C20.3969 67.8382 20.7695 69.0529 21.1719 70.2452C21.5576 71.4317 21.8443 72.6481 22.029 73.8819C22.358 76.2541 22.4826 78.6501 22.4016 81.0436C22.3494 83.3687 22.178 85.6193 21.9544 87.7879C21.4849 92.1251 20.8068 96.127 20.0988 99.7637C18.668 107.037 17.1179 112.835 16.0299 116.829C15.4709 118.819 15.0163 120.362 14.6959 121.405C14.5319 121.912 14.4127 122.307 14.3233 122.59C14.2339 122.873 14.1891 123 14.1891 123Z" fill="#263238"/>
</svg>
