<svg width="12" height="81" viewBox="0 0 12 81" fill="none" xmlns="http://www.w3.org/2000/svg">
<path d="M1.2878 80.8225C0.942423 79.7954 0.67392 78.744 0.484522 77.677C-0.0200857 74.7597 -0.131183 71.7879 0.154204 68.8411C0.599899 64.4731 1.53671 60.1693 2.94688 56.0112C4.44832 51.2967 6.49028 46.2519 8.20193 40.8392C9.06141 38.2082 9.76334 35.5284 10.304 32.814C10.7968 30.2873 11.1551 27.7363 11.3775 25.1716C11.7083 20.8156 11.786 16.4441 11.6102 12.0791C11.4826 8.32548 11.2874 5.32261 11.1598 3.24312C11.0997 2.21463 11.0547 1.41135 11.0171 0.840803C11.0171 0.578051 11.0171 0.375367 11.0171 0.217715V0C11.0396 0.0679208 11.0522 0.138703 11.0547 0.210201C11.0547 0.367852 11.0547 0.578044 11.1147 0.833288C11.1598 1.40384 11.2273 2.20712 11.3174 3.2356C11.4826 5.3151 11.7153 8.333 11.873 12.0641C12.0856 16.4426 12.0305 20.8299 11.7078 25.2017C11.5042 27.7833 11.1608 30.3521 10.6793 32.8966C10.1398 35.6236 9.43785 38.316 8.57729 40.9593C6.82811 46.3945 4.77865 51.4318 3.2622 56.1313C1.85005 60.269 0.893465 64.5484 0.409446 68.8936C0.108437 71.8242 0.186655 74.7814 0.642167 77.692C0.82234 78.7205 0.987517 79.5163 1.13015 80.0418C1.19772 80.297 1.24275 80.4997 1.28028 80.6499C1.28805 80.7071 1.29057 80.7649 1.2878 80.8225Z" fill="#263238"/>
</svg>
