<svg width="75" height="33" viewBox="0 0 75 33" fill="none" xmlns="http://www.w3.org/2000/svg">
<path d="M23.4238 1.14712C23.4238 1.14712 12.4992 1.47543 9.24566 0.826227C5.99216 0.177019 0.291074 0.00540012 0.507476 5.24383C0.723879 10.4823 5.42504 22.5859 11.9768 27.496C18.5286 32.4061 42.9074 32.4061 42.9074 32.4061H66.9132C68.1489 32.4067 69.366 32.1054 70.4586 31.5282C71.5512 30.951 72.4862 30.1155 73.1822 29.0944C73.8781 28.0733 74.3139 26.8975 74.4516 25.6695C74.5893 24.4415 74.4248 23.1985 73.9724 22.0486L73.8605 21.7725C70.0398 12.2806 56.5632 5.72887 44.0118 3.28128C31.4605 0.833695 23.4238 1.14712 23.4238 1.14712Z" fill="#878787" stroke="#263238" stroke-linecap="round" stroke-linejoin="round"/>
</svg>
