<svg width="99" height="125" viewBox="0 0 99 125" fill="none" xmlns="http://www.w3.org/2000/svg">
<path d="M53.0961 3.63012C53.0961 3.63012 78.3305 8.76396 86.822 13.1933C95.3134 17.6226 98.1764 20.3132 98.3712 23.1986C98.5661 26.0841 80.0918 79.2061 79.3198 83.8303C78.5479 88.4545 74.6956 98.0701 74.6956 98.0701C74.7557 99.4225 74.8857 100.771 75.0854 102.11C75.2802 102.687 74.3359 105.385 74.3359 105.385L77.2213 111.381C77.2213 111.381 82.4226 115.802 86.2674 117.376C90.1121 118.95 89.7374 120.644 88.9654 122.188C88.1935 123.732 83.3819 124.496 78.3755 124.496C73.3691 124.496 68.1753 122.383 64.5179 121.034C60.8605 119.685 54.3177 114.873 51.6271 113.337C48.9365 111.8 45.6314 108.488 48.5393 106.292C51.4472 104.096 58.1699 96.3988 58.1699 96.3988C58.1699 96.3988 62.2096 77.5348 62.2096 74.4545C62.2096 71.3742 63.1764 55.0209 64.3305 48.6654C65.4847 42.31 66.6389 33.2714 66.6389 33.2714C66.6389 33.2714 25.4184 34.613 17.3691 33.2714C9.31985 31.9299 3.87874 30.5734 1.96761 25.9567C0.827905 23.3527 0.341645 20.5098 0.55112 17.6751C0.55112 17.6751 6.39694 7.48237 11.9805 3.82499C17.564 0.167602 45.6164 0.512346 45.6164 0.512346L53.0961 3.63012Z" fill="#263238" stroke="#263238" stroke-linecap="round" stroke-linejoin="round"/>
</svg>
