<svg width="36" height="24" viewBox="0 0 36 24" fill="none" xmlns="http://www.w3.org/2000/svg">
<path d="M0 10.0006C1.92466 7.34383 6.68728 6.56643 9.69126 7.89482C12.6952 9.22322 14.8992 11.8574 16.8691 14.4915C18.8391 17.1256 20.7562 19.8957 23.4809 21.7222C26.2056 23.5488 30.0247 24.2129 32.7419 22.3713C33.6099 21.7251 34.3367 20.9084 34.8779 19.9714C35.4191 19.0343 35.7633 17.9966 35.8893 16.9219C36.1281 14.7719 35.9798 12.5965 35.4515 10.4988C34.8024 7.41176 33.7458 4.18889 31.2701 2.1963C28.5152 0.0150158 24.6961 -0.0679894 21.1789 0.022583C17.1408 0.158441 13.05 0.460344 9.26104 1.85667C5.47209 3.25299 1.60766 6.27205 0 9.97797" fill="#1A0161"/>
</svg>
