<svg width="30" height="4" viewBox="0 0 30 4" fill="none" xmlns="http://www.w3.org/2000/svg">
<path d="M29.9995 3.8378C28.7692 2.91155 27.4395 2.12535 26.035 1.49376C24.5062 0.840124 22.8777 0.45019 21.2187 0.340552C19.182 0.296038 17.1564 0.652008 15.2568 1.38823C13.334 2.14358 11.3684 2.78534 9.37031 3.31019C7.69202 3.60145 5.97609 3.60145 4.29779 3.31019C3.16489 3.13321 2.06486 2.78771 1.03421 2.28515C0.759055 2.13813 0.494585 1.9719 0.242798 1.7877C0.0769806 1.65957 -0.0134478 1.59173 0.00162652 1.57666C0.0167008 1.56158 0.386023 1.80276 1.10959 2.1344C2.14992 2.59593 3.24763 2.91537 4.37317 3.08409C6.01822 3.31978 7.69065 3.28668 9.32509 2.9861C11.2984 2.43837 13.2429 1.79187 15.1513 1.04905C17.0999 0.291661 19.1821 -0.0621771 21.2715 0.00893841C24.1203 0.237762 26.8423 1.28469 29.1101 3.0238C29.3554 3.21362 29.5894 3.41746 29.8111 3.63431C29.9317 3.76244 29.9995 3.8378 29.9995 3.8378Z" fill="white"/>
</svg>
