<svg width="5" height="5" viewBox="0 0 5 5" fill="none" xmlns="http://www.w3.org/2000/svg">
<path d="M4.99996 2.49998C4.99996 2.99442 4.85333 3.47775 4.57863 3.88887C4.30393 4.29999 3.91349 4.62044 3.45668 4.80966C2.99987 4.99888 2.49721 5.04836 2.01227 4.9519C1.52732 4.85544 1.08186 4.61736 0.732234 4.26773C0.382606 3.9181 0.144499 3.47264 0.0480367 2.9877C-0.0484254 2.50275 0.00108546 2.0001 0.190303 1.54329C0.37952 1.08648 0.699946 0.696006 1.11106 0.421305C1.52218 0.146604 2.00554 0 2.49999 0C3.16302 0 3.79891 0.263384 4.26774 0.73222C4.73658 1.20106 4.99996 1.83694 4.99996 2.49998Z" fill="#E0E0E0"/>
</svg>
