<svg width="14" height="11" viewBox="0 0 14 11" fill="none" xmlns="http://www.w3.org/2000/svg">
<path d="M13.8806 2.7344C14.034 2.3054 14.0397 1.83749 13.897 1.40485C13.7542 0.972202 13.4712 0.59958 13.0926 0.346051C12.7141 0.0925226 12.2618 -0.0274097 11.8074 0.00527282C11.353 0.0379553 10.9225 0.221383 10.5841 0.526471C9.13278 1.80799 5.51209 3.6608 4.86361 3.71484C4.21512 3.76888 3.09573 2.68036 1.6598 2.66492C0.223876 2.64948 0.0463183 3.57588 0.0463183 3.57588L0 3.95416L1.8451 6.55581C1.8451 6.55581 2.35461 11.3191 5.65106 10.2769C7.43098 9.76886 9.1212 8.98755 10.6614 7.96086C10.6614 7.96086 13.2784 4.98865 13.8806 2.7344Z" fill="#263238"/>
</svg>
