<svg width="7" height="7" viewBox="0 0 7 7" fill="none" xmlns="http://www.w3.org/2000/svg">
<path d="M0.5455 3.49192C0.543894 4.07662 0.715807 4.64864 1.03948 5.13558C1.36315 5.62252 1.82402 6.00249 2.36375 6.22735C2.90348 6.45222 3.49778 6.51188 4.07144 6.39879C4.6451 6.28571 5.17231 6.00496 5.58632 5.59208C6.00034 5.17921 6.28256 4.65278 6.39722 4.07943C6.51188 3.50609 6.45384 2.91161 6.23046 2.37127C6.00708 1.83092 5.62838 1.36901 5.14233 1.044C4.65629 0.718991 4.08473 0.545491 3.50003 0.545489C2.71784 0.545486 1.96759 0.855652 1.41374 1.40798C0.859888 1.96031 0.547649 2.70973 0.5455 3.49192Z" fill="white" stroke="#263238" stroke-linecap="round" stroke-linejoin="round"/>
</svg>
